<?xml version="1.0" standalone="no"?>
<!DOCTYPE svg PUBLIC "-//W3C//DTD SVG 1.1//EN" "http://www.w3.org/Graphics/SVG/1.1/DTD/svg11.dtd" >
<svg xmlns="http://www.w3.org/2000/svg">
<metadata>
This is a custom SVG webfont generated by Font Squirrel.
</metadata>
<defs>
<font id="webfontLAtODcfU" horiz-adv-x="649" >
<font-face units-per-em="2048" ascent="1638" descent="-410" />
<missing-glyph horiz-adv-x="500" />
<glyph unicode=" " />
<glyph unicode="!" horiz-adv-x="686" d="M227 0v258h82h152v-258h-82h-152zM227 395v1118h82h152v-1118h-82h-152z" />
<glyph unicode="&#x22;" horiz-adv-x="714" d="M152 1051v462h81h107v-462h-82h-106zM379 1051v462h82h106v-462h-82h-106z" />
<glyph unicode="#" horiz-adv-x="1216" d="M10 512l33 119h307l74 252h-305l33 118h309l149 512h82h86l-147 -512h100l152 512h82h84l-150 -512h307l-32 -118h-310l-73 -252h307l-35 -119h-309l-150 -512h-82h-88l152 512h-103l-151 -512h-82h-86l151 512h-305zM518 631h105l71 252h-102z" />
<glyph unicode="$" horiz-adv-x="1216" d="M154 436v29h82h143v-6v-4v-4v-2q0 -27 5 -53.5t15 -49.5q10 -25 24.5 -45t35.5 -39q20 -20 41.5 -33.5t46.5 -23.5q14 -6 29.5 -9t31.5 -8q16 4 31.5 7.5t30.5 9.5q23 10 44 23.5t42 33.5q20 18 35.5 40t23.5 44q10 23 15.5 48.5t5.5 51.5q0 35 -5.5 65t-15.5 54 q-8 25 -23.5 45.5t-35.5 34.5t-42 26.5t-46 24.5q-25 12 -52.5 22.5t-56.5 18.5q-18 4 -35.5 9.5t-34.5 11.5l-33 12q-17 6 -34 14q-16 6 -31.5 15.5t-32.5 17.5l-29 22q-15 11 -28 25q-14 12 -25 27l-20 29l-16 31q-8 15 -15 32q-6 16 -10 34l-8 34q-2 16 -4 34.5t-2 36.5 q0 35 5 67t15 60q10 29 25.5 56.5t36.5 52.5q20 25 44.5 45t51.5 35q29 16 59.5 26.5t63.5 16.5v174h82h133v-170q35 -8 67.5 -18.5t63.5 -26.5q29 -14 55.5 -36t48.5 -46q23 -27 40.5 -55.5t29.5 -59.5t18.5 -64.5t8.5 -70.5h-82l-144 4q-2 25 -6 48.5t-14 43.5 q-8 23 -21.5 41.5t-29.5 34.5t-36 29.5t-42 21.5q-14 6 -27.5 10.5t-30.5 6.5l-14 -3.5t-12 -3.5q-8 -2 -15.5 -5t-15.5 -7q-8 -2 -15 -7t-16 -9l-6 -4l-6 -2l-4 -4l-4 -5q-12 -10 -21.5 -20t-17.5 -21q-8 -10 -14 -21t-11 -22q-4 -10 -7 -22t-5 -25q-2 -14 -3 -27.5 t-1 -27.5q0 -31 4 -56.5t12 -47.5q10 -20 23.5 -37t32.5 -27q18 -12 38.5 -21.5l41.5 -19.5q23 -8 45 -17t49 -16l12 -4l12 -4l7 -4h8l6 -4h6q14 -4 28.5 -9t28.5 -11q8 -2 15.5 -5.5l15.5 -7.5q6 -2 13.5 -5t15.5 -7l27 -15q13 -7 28 -18q12 -8 25 -18l24 -21 q14 -14 27 -30l24 -33q10 -16 19.5 -33.5t17.5 -36.5l13 -40q6 -19 8 -38q4 -18 6 -37.5t2 -39.5q0 -37 -7 -71t-20 -69q-12 -33 -30.5 -64.5t-42.5 -60.5q-25 -31 -52.5 -53t-58.5 -39q-31 -16 -64.5 -25.5t-70.5 -11.5v-166h-82h-133v170q-35 4 -68 14.5t-63 24.5 q-31 16 -58.5 38t-54.5 48q-27 27 -46 55.5t-32 61.5q-14 31 -20 64.5t-6 70.5z" />
<glyph unicode="%" horiz-adv-x="1669" d="M27 1180q0 37 6 71.5t18 65.5t31.5 59.5t46.5 55.5q27 25 55.5 44t61.5 31t67.5 19.5t73.5 7.5v4h82q37 -2 71.5 -10t65.5 -21q31 -14 59.5 -33.5t55.5 -46.5q25 -27 43 -55.5t31 -58.5q12 -33 19 -67t7 -70q0 -37 -7 -72t-19 -66q-14 -31 -34 -59.5t-46 -54.5 q-27 -27 -55.5 -47.5t-59.5 -32.5q-31 -14 -64.5 -20.5t-68.5 -6.5h-82q-37 0 -71.5 6t-65.5 21q-31 12 -59.5 32.5t-55.5 47.5t-47 55.5t-33 60.5q-14 33 -20 68t-6 72zM254 1178q0 -23 3 -44.5t11 -39.5t20.5 -35t26.5 -33q16 -16 33 -28.5t35 -20.5q4 -2 9 -4t11 -2 q4 -2 9.5 -3t9.5 -1q12 2 23.5 5t19.5 7q18 8 35.5 20.5t31.5 28.5q16 16 26.5 34.5t19.5 39.5q8 18 12 39.5t4 44.5q0 20 -4 38.5t-12 37.5q-8 18 -18.5 35.5t-27.5 31.5q-14 14 -31.5 24.5t-35.5 18.5q-6 2 -11 4l-10 4q-4 2 -9 3t-11 1q-10 -2 -20.5 -5t-20.5 -7 q-20 -8 -36.5 -18.5t-33.5 -24.5q-14 -14 -26.5 -31.5t-18.5 -35.5q-8 -18 -11 -39.5t-3 -44.5zM371 0l680 1513h82h147l-680 -1513h-82h-147zM825 324q0 37 6.5 71.5t20.5 67.5q12 33 31.5 62.5t46.5 56.5t55.5 46t61.5 34q31 12 65.5 19t73.5 7v4h82q37 -2 71.5 -10 t65.5 -23q31 -14 59.5 -33.5t55.5 -47.5q25 -27 44 -58t31 -61q12 -33 19.5 -67t7.5 -70q0 -37 -7 -71t-20 -65q-14 -31 -33.5 -59.5t-45.5 -52.5q-27 -27 -55.5 -45.5t-59.5 -28.5q-33 -12 -67 -18.5t-68 -6.5l-82 -2q-37 2 -72 8.5t-65 18.5q-31 10 -60 28.5t-55 45.5 q-27 27 -47.5 55.5t-32.5 58.5q-14 31 -20.5 65t-6.5 71zM1053 322q0 -23 3 -43.5t11 -38.5t20.5 -35t28.5 -31t32.5 -26.5t35.5 -18.5q10 -4 20 -6l21 -4l21 4q11 2 20 6q18 8 35.5 20.5t31.5 28.5q16 16 26.5 32.5t18.5 35.5q8 18 12.5 39.5t4.5 44.5t-4.5 42t-12.5 38 q-8 18 -18 35.5t-27 33.5q-14 16 -31.5 27.5t-35.5 19.5q-10 4 -21.5 7.5t-21.5 5.5q-10 -2 -20.5 -5.5t-20.5 -7.5q-20 -8 -37 -19t-33 -28q-14 -16 -26.5 -34.5t-18.5 -36.5q-8 -20 -11 -41.5t-3 -44.5z" />
<glyph unicode="&#x26;" horiz-adv-x="1632" d="M117 438q0 41 6 79t20 71q12 35 32 66.5t46 58.5q27 29 54.5 53.5t56.5 44.5q29 23 60.5 42t64.5 36l-11 8l-8 8l-8 8l-8 11q-14 14 -27 29l-24 30q-12 16 -21.5 32.5t-17.5 33.5q-8 16 -15.5 33.5t-11.5 37.5q-4 18 -6 40t-2 44q0 35 6 67t21 60q14 29 35.5 55.5 t48.5 51.5q29 23 56.5 40t57.5 29q31 12 63.5 18.5t65.5 8.5h82q37 -2 72 -9t67 -20q33 -12 64 -31.5t57 -43.5q29 -27 48.5 -55.5t33.5 -59.5t21.5 -66t9.5 -73q-2 -33 -8 -63t-17 -58q-12 -27 -29.5 -50.5t-39.5 -43.5q-23 -20 -47.5 -39t-49.5 -35l-52 -28 q-26 -13 -54 -23l231 -226l193 373h82h170l-281 -534l383 -373l-108 -103h-82l-293 285q-12 -23 -26 -43l-27 -41q-23 -31 -47.5 -58.5t-53.5 -49.5q-27 -25 -59.5 -42.5t-67.5 -25.5q-35 -10 -73.5 -16.5t-81.5 -6.5l-82 -2q-49 2 -95.5 10.5t-87.5 22.5q-41 16 -77.5 42 t-71.5 61t-61.5 71.5t-42.5 77.5t-24.5 86t-8.5 94zM350 426q0 -31 5 -59.5t18 -57.5q10 -27 27.5 -53.5t39.5 -48.5q23 -25 47.5 -42.5t51.5 -29.5q18 -8 37.5 -13t39.5 -7q23 2 44.5 7t41.5 13q29 12 52.5 29.5t44.5 42.5l39 47l36 51l33 54q16 28 31 57l-336 332l-12 -7 q-12 -8 -25 -15l-22 -13l-24 -16q-11 -7 -21 -15q-20 -14 -41 -31.5t-37 -34.5q-18 -18 -30.5 -39.5t-22.5 -44.5q-8 -25 -12.5 -51t-4.5 -55zM530 1194q0 -14 2.5 -28.5t6.5 -28.5t11 -26.5t15 -25.5l19.5 -24t19.5 -23q10 -12 21 -22l20 -21l12 -14l13 -12q2 0 3 1l1 1h2 h2l2 1q2 1 4 3l34 17q17 9 32 20q8 4 16 9t16 11q6 6 14.5 13.5t16.5 13.5q14 14 24.5 29.5t18.5 31.5t12 36t4 40v4q0 16 -4 33.5t-12 32.5q-8 16 -18.5 30.5t-26.5 28.5l-16 12q-8 6 -15 13q-8 6 -16 10l-16 8q-12 6 -24.5 10t-25.5 6q-8 -2 -17 -4t-19 -6q-18 -6 -35 -16 t-33 -23q-16 -14 -28.5 -29.5t-20.5 -33.5t-11.5 -36.5t-3.5 -41.5z" />
<glyph unicode="'" horiz-adv-x="487" d="M152 1051v462h81h103v-462h-82h-102z" />
<glyph unicode="(" horiz-adv-x="837" d="M117 618q0 37 2 74t6 74q4 35 12 70.5t19 68.5q4 16 10 32.5t12 35.5q6 16 13.5 32.5l15.5 32.5l34 65q17 32 38 64q4 4 7 9.5t5 9.5q4 4 7 9t5 9q4 4 7 9.5t5 9.5q4 4 8.5 9t8.5 11l17 20.5t18 22.5q10 10 19 20.5t20 20.5l41 40l45 40l46 34.5t48 28.5l49 22.5t51 16.5 v4h82v-133q-45 -27 -85 -58.5t-77 -68.5t-67.5 -76.5t-59.5 -86.5q-27 -47 -48 -95.5t-38 -97.5q-14 -49 -24.5 -98t-14.5 -101q-2 -6 -3 -11t-1 -9v-11v-10v-10v-8v-12v-9v-8v-8v-10v-8v-17q0 -8 2 -16q0 -8 1 -17.5t3 -19.5q0 -8 1 -16.5t3 -16.5q8 -45 20.5 -91t29.5 -89 q16 -45 39.5 -88t50.5 -84q27 -43 57.5 -80t63.5 -65q35 -31 71.5 -58.5t75.5 -50.5v-135h-82q-25 8 -48.5 17.5t-45.5 21.5q-23 12 -44 27l-44 32q-12 8 -22.5 18.5t-22.5 18.5l-20 20l-19 19q-18 18 -35.5 37.5t-34.5 40.5l-4 4l-4 4q-2 0 -4 2l-4 4l-8 8q-4 4 -9 11l-8 8 l-6 12l-6 8l-6 10l-40 63q-19 32 -36 64l-29 69q-14 34 -24 69q-12 35 -20.5 70.5t-14.5 72.5t-8 73.5t-2 73.5z" />
<glyph unicode=")" horiz-adv-x="837" d="M70 -127q41 25 77.5 52.5t69.5 58.5q35 29 64.5 65.5t56.5 79.5q27 41 48.5 84t39.5 88q16 43 28.5 89t20.5 91q2 8 3 16.5t1 16.5q0 10 1 19.5t3 17.5v8q0 4 2 8v8v9v8q0 4 2 10v8v8v9v12l-2 8v10v9v12l-2 8v12q-4 51 -14 100.5t-27 98.5q-16 49 -37.5 97t-48.5 96 q-27 47 -59.5 87t-67.5 76q-35 35 -74.5 66t-84.5 57v137h82q29 -10 57.5 -22t54.5 -29q29 -14 54.5 -33.5t50.5 -42.5t47 -46l43 -46l20 -24q10 -12 21 -23l20 -24q10 -12 19 -25l4 -8l4 -8l2 -4l4 -2l2 -5l4 -4l39 -64q18 -32 33 -65q8 -16 15 -32.5t13 -32.5l12 -35 q5 -16 11 -33q10 -33 16 -68l13 -71q4 -37 7 -74t3 -74t-3 -73.5t-9 -73.5t-14.5 -73t-18.5 -70q-12 -37 -25.5 -71t-29.5 -69q-16 -33 -35 -64.5t-39 -60.5l-6 -10l-9 -8l-6 -12l-8 -8q-4 -6 -8 -11l-8 -8l-4 -4l-2 -2l-4 -4l-5 -4q-16 -20 -34 -40l-37 -38 q-10 -10 -20.5 -19.5t-20.5 -19.5q-10 -8 -20.5 -18.5t-20.5 -18.5l-45 -32q-23 -15 -45 -27q-23 -12 -46.5 -21.5t-45.5 -15.5l-82 -2v133z" />
<glyph unicode="*" horiz-adv-x="952" d="M131 1192v104h211l-111 185l99 57h82l65 -115l70 115h82l94 -57l-109 -185h205v-104h-205l109 -180l-94 -58h-82l-70 115l-65 -115h-82l-99 58l111 180h-211z" />
<glyph unicode="+" horiz-adv-x="1323" d="M104 543v155h439v437h82h155v-437h439v-155h-439v-443h-82h-155v443h-439z" />
<glyph unicode="," d="M186 -137l181 395h82h151l-180 -395h-82h-152z" />
<glyph unicode="-" horiz-adv-x="761" d="M63 547v137h82h555v-137h-82h-555z" />
<glyph unicode="." d="M207 0v258h82h151v-258h-82h-151z" />
<glyph unicode="/" horiz-adv-x="976" d="M82 -262l592 1775h82h139l-596 -1775h-82h-135z" />
<glyph unicode="0" horiz-adv-x="1216" d="M61 571v4v394q0 23 1 46t4 46q2 23 5 46t7 44q4 20 11 40.5t15 41.5q10 23 21.5 42t26.5 40l6 8l6 10l8 8l8 13q16 23 37 41l41 35q23 16 46.5 30.5t49.5 26.5q25 10 51.5 19.5t53.5 15.5t54.5 9t55.5 3h82q27 0 52.5 -3t50.5 -7q12 -2 24.5 -6.5t26.5 -8.5l24 -8l25 -8 q25 -10 47.5 -22.5t42.5 -28.5q23 -14 42.5 -31.5t37.5 -38.5q18 -20 34.5 -43.5t28.5 -46.5q12 -25 22.5 -49.5t18.5 -50.5l13 -53q6 -26 8 -54q4 -27 6 -54.5t2 -55.5v-390q0 -31 -1 -58.5t-3 -55.5q-2 -27 -6 -54.5l-8 -52.5q-4 -27 -12.5 -52.5t-20.5 -49.5 q-12 -25 -26.5 -49.5t-32.5 -46.5q-20 -25 -41 -45.5t-43 -36.5q-20 -18 -44 -32.5t-49 -25.5q-27 -10 -52 -16t-54 -12q-27 -6 -55.5 -9.5t-57.5 -3.5l-82 -2q-29 2 -56.5 5.5t-55.5 7.5l-53 12q-26 6 -50 16q-25 10 -48 25l-46 29q-20 16 -40.5 35.5t-39.5 41.5 q-20 23 -36.5 47.5t-28.5 51.5q-12 25 -21.5 50t-13.5 52t-7 54.5t-7 54.5q-2 29 -3.5 57t-1.5 59zM295 496q0 -8 1 -16.5t3 -16.5q0 -14 2 -28l4 -25q2 -14 5 -27.5t7 -26.5l7.5 -26.5t9.5 -24.5l12 -23q6 -11 14 -22q12 -20 28 -37l30 -30q16 -14 32.5 -24.5t34.5 -18.5 t38 -15.5t40 -11.5q6 -2 11.5 -3t11.5 -1q6 -2 11 -2h11q14 0 26.5 3t24.5 5q23 4 43.5 12t40.5 19q20 10 39 24.5t33 28.5q16 16 30.5 34.5t26.5 39.5q4 10 9.5 19t7.5 20q2 4 4 9t4 11q0 4 2 10l4 13q2 6 3 11t3 11q0 4 1 10t3 13q2 12 3.5 24t3.5 25v9v9v8q0 4 2 11v8v8 v9v9v9v8v8q0 4 2 8v8v9v8v8v4v334v10v4v4v2v4q-2 4 -2 9v8v8v8v8v9q-2 4 -2 8v8v8v8q-2 4 -2 9v8q-2 6 -3.5 12t-1.5 12q-2 6 -3 12.5t-1 12.5q-2 4 -4 10t-2 12q-2 6 -3 12.5t-3 12.5q-2 12 -7 23.5l-9 21.5q-2 6 -5.5 11t-5.5 10q-4 6 -6 11t-6 9q-10 16 -22.5 29.5 t-26.5 25.5t-29.5 23.5t-31.5 21.5l-17.5 8.5l-17.5 8.5q-10 4 -18.5 8t-18.5 6l-17 4q-8 2 -14 4q-8 2 -16 3t-17 3h-6q-20 -2 -40 -8l-38 -12q-18 -6 -36.5 -15.5l-36.5 -19.5q-18 -12 -35 -24.5t-29 -26.5q-14 -14 -24 -30l-21 -31q-4 -8 -8 -17.5l-8 -19.5 q-4 -8 -7.5 -19.5t-5.5 -21.5t-5 -21.5t-5 -21.5t-3 -21.5t-3 -21.5q-2 -8 -3 -16.5t-1 -16.5q-2 -8 -2 -15v-16v-15v-16v-15v-13v-330v-17v-20v-16v-17v-8v-8v-10v-8z" />
<glyph unicode="1" horiz-adv-x="1216" d="M317 1376v137h82h408v-1513h-82h-152v1376h-256z" />
<glyph unicode="2" horiz-adv-x="1216" d="M68 0v135l577 557l6 2l8 6l7 7l6 6l12 12l8 8l8 8l34 35q17 18 32 37q16 18 32 39l29 41q14 20 24.5 41.5t18.5 44.5q6 23 10.5 46.5t4.5 47.5q0 35 -7.5 65.5t-19.5 57.5q-12 29 -30.5 54.5t-43.5 47.5q-25 23 -52 39.5t-56 28.5q-20 8 -40 13t-42 7q-10 -2 -21.5 -3 t-21.5 -5q-20 -6 -38.5 -14t-37.5 -18q-20 -10 -36.5 -22.5t-30.5 -29.5q-14 -14 -27.5 -30.5t-24.5 -32.5l-4 -8l-4 -9q-2 -6 -4 -10l-4 -8l-4 -8l-4 -8q0 -6 -2 -10.5t-2 -8.5q-2 -8 -4 -17t-5 -20q-2 -8 -3 -17t-1 -20l-2 -12v-12v-12v-13v-4v-4v-2v-4v-4h-82l-151 4v4v6 v8v9q0 51 8 98t25 90q16 43 42.5 82t59.5 74q35 35 73 60.5t83 43.5q43 16 92 25.5t102 9.5h82q25 0 48.5 -2t45.5 -6q23 -2 43.5 -8.5t40.5 -14.5t40 -18t38 -23q10 -6 18.5 -13l18.5 -15q8 -8 17.5 -16.5t17.5 -16.5q16 -16 30.5 -34.5t26.5 -37.5l25 -38q12 -19 22 -40 q10 -20 17 -42l12 -44q4 -20 7 -43.5t3 -46.5q0 -39 -5 -73.5t-15 -65.5q-8 -33 -22.5 -61.5t-33.5 -55.5q-18 -27 -37.5 -51.5t-41.5 -48.5q-20 -25 -44 -49.5t-49 -46.5l-6 -7l-4 -6l-6 -6l-6 -4l-12 -12l-9 -8l-469 -443h752v-137h-82h-960z" />
<glyph unicode="3" horiz-adv-x="1216" d="M68 459v4v2v4l151 4h82q0 -14 1 -28.5t3 -26.5l4 -25l4 -24q2 -12 5.5 -24.5t9.5 -25.5q4 -12 10 -23t14 -22q10 -18 23.5 -33.5t27.5 -29.5t31 -27.5t35 -23.5q16 -12 34.5 -20.5t39.5 -14.5q10 -2 19 -4l18 -4q25 4 48 9t44 13q31 12 58.5 30.5t51.5 43.5 q25 25 43.5 52.5t30.5 58.5t18.5 63.5t6.5 67.5q0 27 -4.5 51t-12.5 49t-19 48.5t-28 45.5q-16 23 -34.5 41.5t-39.5 32.5q-20 16 -41.5 27.5t-46.5 19.5q-8 2 -15 4t-17 4q-8 2 -16.5 3t-16.5 3h-8q-4 0 -9 2h-8h-8h-8q-4 0 -8 2h-9h-8h-4h-2h-4h-4h-4l-2 3h-4h-2h-4h-5h-2 h-4h-4h-4h-4h-4h-2h-4h-4h-4h-2v139h81l35 -2l19.5 4t17.5 4q25 6 48.5 16.5t43.5 24.5q23 14 38.5 32.5t25.5 41.5t16 49t6 59q0 25 -4 48.5t-14 43.5q-8 20 -21.5 39t-29.5 35t-35 27.5t-41 19.5q-12 4 -24.5 7t-24.5 5q-14 -2 -28.5 -6t-27.5 -10q-20 -8 -37.5 -23.5 t-31.5 -35.5t-26.5 -41t-18.5 -43q-8 -20 -11.5 -44t-3.5 -48h-81v4h-152q0 41 6 78.5t21 72.5q12 35 32.5 68t46.5 61q27 29 58 51.5t65 36.5q35 14 74 21.5t84 7.5h82q41 0 77 -7t68 -22q35 -14 66 -35.5t57 -50.5q27 -29 46.5 -59.5t33.5 -65.5q14 -33 21.5 -69.5 t7.5 -77.5q0 -25 -3 -46.5t-7 -41.5q-6 -20 -13.5 -39t-17.5 -35t-23 -32l-26 -31l-31 -30q-16 -15 -35 -30q29 -14 54.5 -30.5t48.5 -36.5t43 -45t38 -54q16 -29 29.5 -58.5t22.5 -57.5q10 -31 14 -62t4 -61q0 -51 -9 -97.5t-28 -89.5q-18 -43 -44.5 -83t-61.5 -74 q-35 -35 -74 -61.5t-82 -43.5q-43 -14 -90 -23.5t-98 -9.5l-82 -2q-51 2 -97.5 11.5t-89.5 23.5q-43 16 -80.5 44t-72.5 65q-35 35 -61.5 74.5t-43.5 82.5q-16 43 -24 89.5t-8 95.5z" />
<glyph unicode="4" horiz-adv-x="1216" d="M25 276v138l733 1099h82h184v-1099h137v-138h-137v-276h-82h-151v276h-766zM285 414h506v766z" />
<glyph unicode="5" horiz-adv-x="1216" d="M53 471l152 4h82q2 -39 9 -73.5t21 -65.5t34 -59.5t46 -55.5q25 -27 52.5 -47t58.5 -33q23 -10 47.5 -15t50.5 -9q27 4 52.5 9t50.5 15q33 14 61.5 36t54.5 50q27 29 46.5 60.5t31.5 64.5q12 35 19.5 70t7.5 74q0 37 -7.5 73.5t-19.5 69.5q-12 35 -31.5 65.5t-44.5 59.5 q-27 29 -55.5 51.5t-60.5 36.5q-25 10 -49.5 17.5t-53.5 9.5l-24 -5q-12 -2 -25 -6q-20 -6 -41.5 -14t-42.5 -18q-20 -12 -38.5 -24.5t-35.5 -27.5q-18 -14 -33 -30l-30 -33h-82l-121 47l137 745h82h684v-137h-561l-69 -379q4 2 8 3t10 4q4 0 8 1t8 3l33 8q16 4 33 6 q16 2 33.5 3t33.5 1h82q53 0 102.5 -10t94.5 -31q45 -20 86 -49t78 -68q35 -39 62.5 -82t45.5 -90q18 -45 27.5 -94t9.5 -102t-9 -103.5t-28 -97.5q-18 -45 -45.5 -88t-62.5 -82q-37 -39 -77 -69.5t-87 -49.5q-45 -14 -95 -24.5t-104 -10.5l-82 -2q-53 2 -102 11.5t-96 23.5 q-45 16 -86 44t-76 65q-37 35 -64.5 74.5t-48.5 84.5q-20 45 -31.5 94.5t-15.5 100.5z" />
<glyph unicode="6" horiz-adv-x="1216" d="M51 496q0 25 2 49l4 47l9 43q4 20 12 41q6 20 15 40l18 38q4 10 9 19t9 20q6 8 11 18t12 18q4 8 9 16.5t11 16.5l12 19.5t13 17.5q6 8 12 17.5t12 17.5q6 10 12.5 19.5t12.5 19.5l358 540h82h176l-334 -497q4 0 7.5 1t5.5 1q4 0 7 1t5 1q12 2 24.5 3t24.5 1h82 q51 0 97 -10t89 -31q43 -20 82 -51t74 -72t59.5 -84t42.5 -88q16 -45 25.5 -91t11.5 -93v-4v-2v-13v-8v-4v-4l-2 -6v-4q-2 -23 -5 -45.5t-9 -44.5q-6 -20 -13.5 -42t-17.5 -44l-21 -42q-11 -22 -24 -40l-25 -37q-13 -18 -30 -35q-20 -20 -40 -36.5l-42 -33.5 q-20 -14 -43 -26.5t-45 -22.5q-25 -8 -49.5 -13t-48.5 -11l-52.5 -7.5t-52.5 -3.5l-82 -2q-53 2 -102 12.5t-96 24.5q-45 18 -86 48t-78 69q-39 39 -67 82t-46 88q-18 47 -27.5 96.5t-9.5 102.5zM285 506q0 -39 6 -76t18 -72q12 -33 30.5 -65.5t45.5 -61.5q25 -29 54.5 -50 t62.5 -38q23 -10 50.5 -16t53.5 -10q27 2 52.5 8t48.5 16q33 14 62.5 36t55.5 50q27 29 46.5 59.5t33.5 63.5q12 35 19.5 70t7.5 74t-7 74.5t-20 68.5q-12 35 -31.5 65.5t-46.5 59.5t-55.5 51.5t-62.5 36.5q-27 10 -53.5 17t-55.5 10q-25 -4 -48.5 -10.5t-45.5 -16.5 q-33 -14 -61.5 -33.5t-55.5 -48.5q-27 -27 -46 -57.5t-32 -63.5q-14 -33 -20 -68.5t-6 -72.5z" />
<glyph unicode="7" horiz-adv-x="1216" d="M131 1376v137h82h872v-137l-618 -1376h-82h-164l623 1376h-713z" />
<glyph unicode="8" horiz-adv-x="1216" d="M86 440v10v9v9q0 5 2 11v9q0 5 2 12q0 4 1 9t3 11q4 25 12.5 49.5t18.5 48.5q10 25 24.5 48.5t30.5 46.5t33.5 43t38.5 35q20 16 42.5 29.5t47.5 21.5v4q-23 10 -42 22.5t-36 26.5q-16 16 -30.5 33.5t-24.5 38.5q-10 20 -18.5 41.5t-14.5 42.5q-6 23 -8 46t-2 48 q0 43 7 82t22 73q16 35 37.5 67t52.5 58q29 27 61.5 46.5t69.5 33.5t75.5 21.5t81.5 7.5h82q41 0 80 -7t74 -22q35 -14 66.5 -36.5t60.5 -51.5t50.5 -61.5t35.5 -67.5t21.5 -73.5t7.5 -79.5q0 -23 -3.5 -45.5t-9.5 -45.5q-6 -20 -15 -41.5t-19 -41.5q-12 -20 -26.5 -38 t-31.5 -34q-16 -14 -34.5 -25.5t-41.5 -21.5q29 -14 55.5 -30.5t49.5 -37.5q23 -20 44 -42.5t40 -51.5q16 -27 30.5 -56.5t22.5 -58.5q10 -31 14 -61.5t4 -61.5q0 -51 -9 -97t-27 -87q-18 -43 -46 -80t-63 -72q-37 -33 -77 -58t-83 -42q-43 -14 -88 -22.5t-94 -8.5l-82 -2 q-49 2 -95 10.5t-87 22.5q-41 16 -80 42t-74 61t-61.5 71.5t-42.5 77.5q-18 41 -26.5 87t-8.5 95zM319 432q0 -33 5.5 -63.5t17.5 -59.5q12 -27 30.5 -53.5t43.5 -48.5q23 -23 49.5 -40t54.5 -30q18 -8 40 -13t42 -7q23 2 45.5 7t42.5 13q29 12 56.5 29.5t52.5 42.5 q25 23 43 49.5t30 54.5q12 29 18.5 62t6.5 67q0 35 -7 67t-20 58q-12 29 -30.5 54.5t-42.5 48.5q-27 23 -54.5 39t-56.5 28q-20 8 -42.5 13.5t-45.5 7.5q-20 -2 -40.5 -8.5t-39.5 -14.5q-29 -12 -55.5 -30.5t-48.5 -40.5q-25 -25 -42.5 -51.5t-29.5 -55.5t-17.5 -59.5 t-5.5 -65.5zM399 1153q0 -27 5.5 -51.5t13.5 -46.5q10 -23 23.5 -43.5t31.5 -36.5q18 -18 38.5 -30.5t43.5 -22.5l26 -9q13 -4 27 -6q14 2 27.5 5t26.5 10q23 10 42 23t37 32q18 16 32.5 36.5t23.5 41.5q10 23 15 45t5 47t-4 48.5t-14 43.5q-8 23 -22.5 41t-31.5 37 q-18 16 -37.5 30.5t-41.5 22.5q-14 6 -27.5 10t-28.5 6q-14 -2 -26 -6l-25 -8q-20 -8 -41.5 -20.5t-40.5 -28.5q-20 -16 -34.5 -34.5t-24.5 -41.5q-8 -20 -13.5 -43.5t-5.5 -50.5z" />
<glyph unicode="9" horiz-adv-x="1216" d="M51 999v2v5v4v4v2v4v4q0 12 1 24.5t3 24.5q0 10 3 22.5t5 24.5q4 23 12.5 46.5t18.5 45.5q10 23 21.5 44.5t23.5 41.5t28 39l32 37q18 20 38.5 38t41.5 32l44 26.5t46 22.5q23 10 47 17.5t49 13.5q25 4 52.5 7t53.5 3h82q53 0 102.5 -10.5t94.5 -30.5t86 -49t80 -68 q37 -39 64.5 -81t45.5 -89q18 -45 28.5 -94t10.5 -102q0 -27 -2 -50.5t-6 -46.5q-2 -23 -8 -44l-12 -42l-16 -40q-7 -19 -17 -37q-8 -18 -19 -37l-20 -37q-2 -4 -5 -9t-5 -10q-4 -4 -6 -9t-7 -9q-2 -4 -5 -8t-5 -8q-4 -4 -6 -8.5t-6 -8.5l-12.5 -17t-12.5 -20q-6 -8 -12 -17 t-12 -20l-359 -532h-82h-176l326 483q-4 -2 -9 -2h-9q-12 -2 -25 -2h-25h-82q-51 0 -98 9.5t-90 29.5t-81 51t-73 72q-33 41 -59.5 83t-42.5 87q-18 45 -26.5 92t-8.5 96zM285 1014q-2 -39 4 -74t20 -70q12 -33 34 -64.5t48 -60.5q27 -29 55.5 -50t59.5 -36q27 -12 53.5 -18 t52.5 -10q29 4 56.5 10t52.5 16q31 12 58.5 34t51.5 48q25 29 43.5 57.5t30.5 61.5t19.5 68t7.5 71q0 39 -7 76t-20 70q-12 35 -31.5 66.5t-44.5 60.5q-27 29 -55.5 51t-60.5 37q-23 10 -48.5 18t-54.5 10q-27 -2 -52.5 -9t-49.5 -17q-33 -14 -62.5 -34.5t-56.5 -49.5 t-47 -59.5t-33 -63.5q-14 -33 -20 -67.5t-4 -71.5z" />
<glyph unicode=":" d="M207 0v258h82h151v-258h-82h-151zM207 786v258h82h151v-258h-82h-151z" />
<glyph unicode=";" d="M84 -137l180 395h82h152l-181 -395h-81h-152zM264 786v258h82h152v-258h-82h-152z" />
<glyph unicode="&#x3c;" horiz-adv-x="1323" d="M100 551v131l1043 475h82v-149l-848 -392l848 -391v-149h-82z" />
<glyph unicode="=" horiz-adv-x="1323" d="M104 340v154h82h1033v-154h-82h-1033zM104 739v154h82h1033v-154h-82h-1033z" />
<glyph unicode="&#x3e;" horiz-adv-x="1323" d="M98 76v149l848 391l-848 392v149h82l1043 -475v-131l-1043 -475h-82z" />
<glyph unicode="?" horiz-adv-x="1292" d="M133 1040v43v4v9v8l2 8q2 20 5 39.5t10 38.5q2 10 5 19.5t7 19.5q4 8 8 18t8 19l21 36q10 17 22 33l25 32q12 15 26 30q16 16 35 31.5t39 27.5t42 23.5t44 19.5q23 8 45.5 14.5t44.5 10.5q23 4 47.5 7t48.5 3h82q49 0 94.5 -9t86.5 -26q41 -16 76.5 -40.5t68.5 -57.5 t57.5 -70t40.5 -78t24.5 -86t8.5 -94q0 -29 -4 -55.5t-12 -50.5q-8 -25 -18.5 -47.5t-24.5 -42.5q-8 -10 -16.5 -19.5t-14.5 -19.5q-8 -8 -16.5 -17.5t-16.5 -19.5l-34 -37q-17 -18 -35 -35l-18 -17l-17 -18q-8 -10 -16.5 -18t-16.5 -19q-8 -8 -16.5 -18t-16.5 -18 q-6 -10 -14 -19.5t-14 -19.5q-14 -20 -26.5 -42t-21.5 -44q-8 -25 -11 -50.5t-3 -54.5h-82l-151 4v4v4v5q0 31 3 60.5t11 55.5q8 29 20.5 54.5t26.5 50.5l33 48q16 24 35 44q18 23 40 43l44 41l6 6l8 6l6 6l6 6l13 13l7 7q3 3 7 5l23 25l22 24q10 12 19.5 25.5t17.5 27.5 q8 12 14 27.5t10 32.5q4 16 7.5 34.5t3.5 39.5q0 33 -6.5 62.5t-18.5 55.5q-12 27 -30.5 51.5t-43.5 45.5q-25 23 -50 38t-54 25q-18 6 -36.5 11t-41.5 7q-20 -2 -41.5 -8t-42.5 -14q-29 -12 -55.5 -30.5t-48.5 -43.5q-25 -27 -42.5 -54.5t-29.5 -55.5q-12 -29 -17.5 -59.5 t-5.5 -63.5v-4v-2v-4v-5v-2v-4h-81v4h-146zM541 0v258h82h151v-258h-82h-151z" />
<glyph unicode="@" horiz-adv-x="1857" d="M145 760q0 80 14.5 154.5t43.5 144.5q29 68 72.5 130t101.5 120q57 57 119.5 100t132.5 70q70 29 144.5 43t156.5 14h82q33 0 64.5 -3t64.5 -9t64.5 -14.5t64.5 -18.5q31 -12 61.5 -26.5t57.5 -30.5q29 -16 55 -35t53 -41q27 -25 50.5 -49.5t43.5 -51.5t37 -55t31 -57 t24.5 -59.5t16.5 -65.5q6 -33 10 -67.5t4 -69.5q0 -27 -2 -52.5t-6 -50.5q-2 -25 -8 -49t-15 -47q-8 -25 -17 -47.5t-21 -44.5l-25 -44q-12 -22 -27 -42q-16 -23 -34.5 -44.5t-36.5 -39.5q-18 -20 -40 -38.5l-44 -35.5q-23 -16 -47.5 -28.5t-49.5 -22.5q-27 -8 -53 -12 t-55 -4h-82h-8h-8h-5l-4 2h-4h-4q-12 2 -24.5 5t-22.5 5q-10 4 -20.5 9t-20.5 11t-18 13.5t-15 15.5q-4 -2 -8 -5t-8 -5q-2 0 -3 -1t-3 -1q-2 -2 -5 -3t-5 -3q-14 -8 -27.5 -13.5t-26.5 -9.5l-12 -4l-12 -4q-8 0 -14.5 -2t-12.5 -2l-6 -2h-6l-8 -2h-82h-6h-13h-12 q-33 0 -62.5 5t-56.5 17t-49 29.5t-41 40.5q-20 23 -34.5 48.5t-24.5 51.5q-8 27 -13.5 55.5t-5.5 61.5v19v18q0 10 1 19t3 18q2 10 3.5 19t3.5 18q2 10 4 19t4 19q10 45 27.5 88t37.5 82q23 41 49.5 80t59.5 78q33 37 69.5 64.5t75.5 46.5q41 18 84 28.5t90 10.5h82 q16 0 33.5 -3.5t34.5 -7.5q16 -4 33.5 -10t33.5 -14q4 -2 7.5 -4t5.5 -4l13 -8.5t11 -10.5l8 25h82h140l-209 -625l-4 -10v-8l-4 -6l-2 -7l-3 -4v-2l-2 -4v-4v-4v-2l-2 -4v-2q-2 -4 -3 -8.5t-1 -8.5l-4 -12l-2 -14v-10q0 -8 1 -14.5t3 -10.5q2 -6 5 -10t8 -8q4 -2 7 -6l5 -5 l1 1l1 1h1l10 4t11 5q4 4 10.5 7t12.5 5q4 4 9 7t11 5q4 4 9.5 7t11.5 7l21 17q11 8 20 16l8 8q4 4 10 9q4 4 8.5 9t8.5 9l8 8l10 12l4 7l4 6l4 4l4 6q10 14 19.5 29.5t17.5 31.5t15.5 33t13.5 35q6 16 11 33.5t9 36.5l8.5 34.5t6.5 36.5v9l2 8v8v8v8l2 8v9v8 q0 63 -12.5 119.5t-34.5 105.5q-25 49 -59.5 92t-82.5 80q-47 37 -96 64.5t-102 46.5q-43 16 -88 24.5t-92 10.5q-59 -2 -115.5 -14.5t-108.5 -35.5q-59 -27 -113.5 -64.5t-101.5 -88.5q-49 -51 -86 -107.5t-61 -117.5q-25 -61 -36 -126t-11 -135t12 -135t37 -125 q25 -59 61.5 -113.5t87.5 -103.5q49 -49 104.5 -86t115.5 -61q51 -20 105 -31.5t112 -15.5q29 2 58.5 5t57.5 11q39 10 77 23.5t75 33.5q37 18 69.5 40t63.5 49t57.5 56.5t49.5 61.5v4l122 2h82q-25 -47 -55.5 -89t-64.5 -76q-35 -35 -75 -66t-87 -55q-45 -27 -93.5 -45.5 t-95.5 -28.5q-49 -10 -98 -16.5t-100 -6.5l-82 -2q-82 2 -159 15.5t-146 40.5q-70 29 -133.5 71.5t-118.5 100.5q-57 57 -99.5 120.5t-70.5 133.5q-27 70 -41.5 145.5t-14.5 157.5zM680 604q0 -18 2 -35.5t8 -33.5q4 -16 12.5 -32t18.5 -30t22.5 -25.5t26.5 -17.5 q8 -2 15.5 -5t15.5 -5q4 0 6 1t6 1l1 1l1 1q2 0 4 1t4 1q16 6 30.5 15.5t29.5 21.5q14 10 26.5 22.5t24.5 26.5l21 26q11 13 20 27l4 8l4 9l2 4l4 4v4l4 4l4 8l4 10l3 5l4 6v4l4 6q4 8 8 17.5t8 17.5l8 20l8 21l4.5 9t4.5 11q0 4 2 9.5l4 11.5q2 4 4 9t4 11q0 4 2 9t4 12 q2 4 3 9t3 11q0 4 1 9t3 10q4 10 5.5 20t3.5 20t3 19.5t3 17.5v10q0 5 2 9v9v9q0 14 -3 27.5t-7 28.5q-6 12 -13.5 24t-17.5 25q-10 10 -22.5 18t-24.5 14q-4 4 -9.5 5.5t-11.5 3.5q-16 -2 -31.5 -8.5t-31.5 -14.5q-27 -12 -49.5 -30.5t-44.5 -43.5l-39 -50t-35 -54 q-14 -27 -26.5 -56.5t-22.5 -58.5l-7.5 -23.5t-7.5 -21.5l-4 -23l-4 -22l-4 -23q-2 -11 -2 -22q-2 -10 -2 -19v-20z" />
<glyph unicode="A" horiz-adv-x="1597" d="M23 0l653 1513h82h168l649 -1513h-82h-164l-219 508h-623l-219 -508h-82h-163zM547 645h504l-250 598z" />
<glyph unicode="B" horiz-adv-x="1257" d="M156 0v1513h82h354q10 -2 21.5 -3t23.5 -1q10 -2 21.5 -3t21.5 -1q23 -2 45.5 -3t44.5 -5l21 -4q10 -2 22 -4q10 -4 20.5 -7t20.5 -7q23 -8 42 -18.5l40 -22.5q20 -14 38.5 -29.5t33.5 -34.5q16 -18 30.5 -36.5t26.5 -41.5q12 -20 21.5 -43.5t15.5 -46.5t9 -46t3 -48 t-3 -48.5t-9 -45.5q-6 -20 -14.5 -41t-18.5 -39l-25 -36q-12 -17 -28 -34q-14 -14 -33 -29l-37 -30q29 -12 55.5 -28.5t49.5 -35.5q23 -18 43 -39.5t36 -46.5q16 -27 28.5 -53.5t21.5 -54.5q8 -29 12 -59.5t4 -63.5q0 -27 -3 -51.5t-9 -48.5q-6 -25 -15.5 -49.5t-21.5 -47.5 q-12 -25 -27.5 -45t-32.5 -39q-18 -18 -36.5 -34.5t-40.5 -30.5l-11 -6l-8 -6l-10 -5l-8 -4q-10 -6 -21.5 -11l-21.5 -9t-20.5 -7t-20.5 -7q-12 -2 -22.5 -5.5t-20.5 -5.5t-21.5 -4t-21.5 -2q-10 -2 -21.5 -3t-21.5 -1q-12 -2 -24 -2h-21h-82h-46h-46h-4h-2h-5h-4h-4h-2h-4 h-4h-356zM389 137h186l7 -4h8h8h8q4 0 8 2h13h14q6 0 12 1t13 1l25 4l28 4q12 2 24.5 5.5t24.5 7.5t23.5 9t21.5 11q14 8 26.5 17.5l24.5 19.5t23.5 23.5t21.5 27.5t18.5 29.5t14.5 30.5q6 16 10 31.5t6 31.5v4l3 4v2v4v5v4v2v4v2v2q0 23 -3.5 45t-9.5 43q-6 23 -15 42 t-22 38q-14 18 -29.5 33.5t-31.5 29.5q-18 12 -36.5 22.5t-41.5 18.5q-10 4 -21.5 7.5t-23.5 5.5q-12 4 -23.5 5t-21.5 3h-5q-3 0 -7 2h-5h-8q-6 0 -12 1t-10 3h-12h-13h-5q-3 0 -7 2h-5h-7h-4h-2h-5h-4l-12 2h-14h-13h-12h-12h-12h-13h-4h-4h-4h-4l-78 2v-590zM389 866h164 v-4h4h3h13h13h7q3 0 5 2h7h7q6 0 12.5 1t12.5 3q6 0 12 1t13 3q12 2 24 5.5l25 7.5q6 2 12 5t12 5q4 4 10.5 7t12.5 5q12 6 23.5 14.5t21.5 18.5l20 22q10 11 19 25q8 12 14 26l12 27q4 14 7.5 29.5t5.5 30.5v4v4v2v4v4v4v4v4q-2 14 -5.5 27.5l-7.5 28.5l-12 27 q-6 13 -14 28q-8 14 -17.5 26.5t-19.5 22.5t-21.5 19.5t-23.5 17.5l-17.5 9l-19.5 10q-4 2 -9 4t-12 4q-4 0 -9 2t-11 4q-10 2 -21.5 3t-21.5 3t-21.5 3t-21.5 3h-8h-2h-82h-8h-7h-6l-94 2v-508z" />
<glyph unicode="C" horiz-adv-x="1746" d="M90 758q0 80 14.5 154.5t42.5 144.5q29 68 72 130t100 120q57 57 120 100t132 70q70 29 145 43t156 14h82q14 0 28.5 -1t29.5 -1q12 -2 26.5 -3t28.5 -3q29 -2 57.5 -8.5t57.5 -14.5t54.5 -17t51.5 -22q27 -12 52.5 -26.5t50.5 -30.5l8 -6l10 -6l8 -9l10 -6q4 -4 9.5 -8 l11.5 -8l4 -4q2 -2 6 -2q2 -2 5 -4t5 -4l25 -22l25 -23l24 -25q12 -12 25 -27q4 -4 6 -8t6 -6q2 -4 5 -7t5 -7q6 -6 11.5 -12.5t9.5 -12.5q4 -8 9 -15l9 -14q2 -2 4 -6t4 -6q0 -4 2 -7t4 -7v-6l5 -6l2 -7l4 -6h-82v4h-168q-20 29 -43 53.5t-47 47.5q-25 23 -53.5 43 t-61.5 37l-64.5 30.5t-66.5 24.5q-33 10 -66.5 17t-68.5 9h-8h-9h-12q-49 -4 -96 -15t-92 -30q-55 -25 -106.5 -60.5t-98.5 -82.5t-83 -98t-58 -107q-23 -55 -34 -114.5t-11 -120.5q0 -68 11 -129.5t36 -118.5t60.5 -108.5t84.5 -98.5q47 -47 99.5 -83t109.5 -58 q47 -20 97 -30.5t102 -14.5q29 2 57.5 6t54.5 10q37 10 73 23.5t71 33.5q35 18 67.5 40t59.5 46q29 25 54 53.5t48 61.5l168 4h82q-25 -49 -55.5 -92t-65.5 -82q-37 -39 -79 -72.5t-89 -62.5t-96 -50.5t-100 -35.5q-51 -10 -102.5 -17.5t-104.5 -7.5l-82 -2q-84 2 -161 15.5 t-149 40.5q-70 29 -134 69.5t-122 98.5q-57 57 -100 120.5t-72 133.5t-43 146.5t-14 160.5z" />
<glyph unicode="D" horiz-adv-x="1605" d="M156 0v1513h82h407q41 -2 81 -6l79 -8l77 -12q38 -6 76 -14q37 -8 73 -22.5t71 -31.5q35 -16 69.5 -37.5t67.5 -48.5t61.5 -56.5t53.5 -62.5t47 -67.5t41 -73.5q18 -39 32.5 -77t22.5 -78l8 -41q4 -20 6 -39q2 -20 3.5 -41t1.5 -41q0 -41 -4.5 -81t-12.5 -79t-20.5 -76 t-28.5 -74t-35.5 -71.5t-42.5 -65.5q-23 -33 -49.5 -61.5t-54.5 -54.5q-33 -31 -69 -56.5t-71 -46.5q-37 -20 -73.5 -33.5t-73.5 -23.5l-78 -15.5t-80 -11.5q-39 -2 -82 -4t-86 -2h-82h-417zM389 137h113q25 -1 49 -1h24q37 1 74 3q35 4 71 7.5t68 7.5q35 4 67 14t65 25 q33 14 64.5 33.5t64.5 45.5q29 23 54 47.5t46 51.5q23 27 40 55.5t32 60.5q14 31 24 64l19 65q8 35 12 69t6 71q-2 37 -6 71.5t-12 67.5q-8 35 -18.5 65.5t-24.5 61.5q-14 29 -32 57.5t-40 55.5q-20 29 -47 53l-55 47q-33 23 -65 42t-64 34q-33 16 -65 25.5t-67 15.5l-68 8 q-36 4 -71 6q-35 4 -71.5 5t-73.5 1l-113 2v-1237z" />
<glyph unicode="E" horiz-adv-x="1179" d="M156 0v1513h82h827v-137h-676v-545h653v-137h-653v-557h676v-137h-82h-827z" />
<glyph unicode="F" horiz-adv-x="1075" d="M156 0v1513h82h768v-137h-617v-547h594v-137h-594v-692h-82h-151z" />
<glyph unicode="G" horiz-adv-x="1867" d="M90 760v4v4v2v4v4q0 35 5 71t14 73q8 35 20 70.5t29 70.5q16 35 33.5 66.5t37.5 62.5l45 56q23 28 50 55q29 29 60.5 55t64.5 47q35 23 69.5 40t71.5 32q37 14 74.5 24t76.5 19q39 6 79 10t81 4h82q29 0 58.5 -2t58.5 -6t57.5 -10.5t56.5 -14.5q29 -8 56.5 -17t54.5 -22 q27 -12 52.5 -26.5t49.5 -30.5l9 -6l10 -6l8 -9l10 -6l9 -8l12 -6l8 -8l10 -8l29 -26l29 -28q6 -8 13 -15t15 -13q6 -8 13.5 -15.5t13.5 -15.5l24 -33q12 -16 21 -33l8 -16q4 -8 8 -14l9 -17q4 -8 6 -16h-82l-172 4q-18 29 -41 56.5t-49 52.5q-27 25 -56.5 46t-64.5 40 q-33 18 -69 32.5t-71 24.5t-70.5 16t-72.5 8h-6h-2q-23 -2 -46.5 -5t-45.5 -7q-29 -6 -56.5 -14t-56.5 -19q-27 -10 -54.5 -22t-51.5 -29q-25 -14 -47.5 -32.5l-45.5 -38.5t-43 -45t-38 -50t-35 -52.5t-31 -55.5q-14 -29 -25.5 -58.5t-19.5 -60.5t-12 -61.5t-4 -61.5v-4v-4 v-4v-4q0 -70 12 -132.5t37 -121.5q25 -57 61.5 -108.5t85.5 -98.5q49 -45 103.5 -80t111.5 -57q49 -20 102.5 -30.5t110.5 -12.5q41 2 79 8t77 18q47 16 92 39t90 54q43 31 80 66.5t66 74.5q29 41 51 85t37 95l-846 4v137h82h1028q-6 -80 -24.5 -151.5t-51.5 -136.5 q-33 -66 -78 -124.5t-104 -109.5t-124 -90t-132 -63q-68 -23 -139.5 -35.5t-147.5 -12.5l-82 -2q-82 2 -158.5 15.5t-148.5 40.5q-70 29 -136.5 70.5t-125.5 99.5q-61 57 -106.5 120.5t-75.5 133.5q-31 72 -45.5 148.5t-14.5 158.5z" />
<glyph unicode="H" horiz-adv-x="1480" d="M156 0v1513h82h151v-665h703v665h82h151v-1513h-82h-151v711h-703v-711h-82h-151z" />
<glyph unicode="I" horiz-adv-x="544" d="M156 0v1513h82h151v-1513h-82h-151z" />
<glyph unicode="J" horiz-adv-x="1069" d="M23 354l149 4h82q2 -29 8 -53t17 -47q10 -20 24 -40.5t35 -37.5q18 -16 39.5 -28.5t44.5 -20.5l28 -8q13 -4 27 -6q10 2 17.5 4l15.5 4q16 4 33.5 12t31.5 19q14 10 26.5 21t23.5 26q10 14 19 29.5t18 33.5q2 6 3 12.5t3 12.5t3 13t3 15v8q0 3 2 7v6v8q0 8 1 15.5t3 15.5 v9v9v10v9v8v10v8v9v4v4v4v4v1046h82h151v-1087v-10v-6l-2 -7v-6v-12v-12q-2 -6 -3 -12.5t-1 -12.5v-12v-10q-2 -6 -3 -12.5t-1 -12.5v-5v-5q-2 -4 -2 -6v-4q-2 -6 -3 -11.5t-1 -9.5q-2 -6 -3 -11t-1 -9q-2 -6 -3 -12.5t-3 -10.5q-2 -6 -3 -11t-3 -9l-7 -11l-4 -8l-6 -12 l-6 -8l-6 -11l-6 -8l-8 -12l-7 -8q-14 -20 -31.5 -36.5t-35.5 -31.5q-18 -14 -36.5 -24.5t-41.5 -20.5q-10 -2 -21.5 -4t-21.5 -6q-12 -2 -23.5 -5t-21.5 -5q-20 -4 -44 -7.5t-46 -3.5l-82 -2q-41 2 -80 9.5t-74 17.5t-67.5 31.5t-61.5 48.5q-29 29 -50 59.5t-38 63.5 q-14 35 -23 72.5t-9 78.5z" />
<glyph unicode="K" horiz-adv-x="1292" d="M156 0v1513h82h151v-768l617 768h81h193l-598 -737l598 -776h-82h-188l-467 604l-154 -190v-414h-82h-151z" />
<glyph unicode="L" horiz-adv-x="1028" d="M156 0v1513h82h151v-1376h627v-137h-82h-778z" />
<glyph unicode="M" horiz-adv-x="1964" d="M156 0v1513h82h233l512 -1191l510 1191h82h233v-1513h-82h-151v1151l-488 -1151h-81h-129l-488 1151v-1151h-82h-151z" />
<glyph unicode="N" horiz-adv-x="1597" d="M156 0v1513h82h204l766 -1134v1134h82h152v-1513h-82h-152l-819 1210v-1210h-82h-151z" />
<glyph unicode="O" horiz-adv-x="1861" d="M90 745q0 82 14.5 158t42.5 146q29 72 74 135t105 121q59 57 123.5 100t134.5 72q72 29 147.5 43t157.5 14v4h82q80 -2 155.5 -17.5t145.5 -43.5q72 -27 136.5 -70t123.5 -98q59 -57 104 -120t76 -130q29 -70 44.5 -144.5t15.5 -156.5t-15.5 -159t-44.5 -146 q-31 -70 -74 -133.5t-102 -120.5t-123.5 -99.5t-136.5 -70.5q-70 -27 -146.5 -40.5t-158.5 -13.5l-82 -2q-80 2 -155 14.5t-144 39.5q-70 29 -135.5 69.5t-124.5 98.5q-59 55 -104.5 117.5t-75.5 131.5q-31 70 -45.5 144.5t-14.5 156.5zM324 745q0 -66 11 -127t36 -116 t61.5 -105.5t85.5 -97.5q49 -45 101.5 -81t109.5 -58q41 -16 83 -26.5t85 -14.5q11 0 22 -1q54 0 103 9q59 10 117 33q57 23 109 58.5t100 82.5q47 47 82.5 98.5t60.5 108.5q23 57 35 119.5t12 130.5q0 66 -12.5 126t-36.5 115q-25 55 -61.5 107.5t-84.5 97.5 q-49 47 -101 81t-109 56q-47 20 -98.5 31.5t-104.5 13.5q-55 -2 -107.5 -13t-99.5 -32q-57 -25 -110.5 -59.5t-100.5 -81.5t-83 -99t-58 -110q-25 -57 -36 -118.5t-11 -127.5z" />
<glyph unicode="P" horiz-adv-x="1294" d="M156 0v1513h82h397l52 -4l52 -4l53 -4l52 -4q27 -2 52.5 -8t49.5 -16q25 -8 48.5 -19.5t45.5 -26.5q25 -14 46.5 -32.5t39.5 -38.5t34 -42t28 -46q12 -25 21.5 -50.5t15.5 -52.5t10 -54.5t4 -55.5q0 -27 -3 -51.5t-7 -49.5q-6 -25 -14.5 -49t-18.5 -47t-23.5 -44 t-29.5 -40q-16 -20 -34.5 -36.5t-41.5 -32.5t-46.5 -29.5t-45.5 -24.5l-25 -8q-12 -4 -22 -8q-12 -4 -24.5 -7t-24.5 -5l-25 -5l-25 -4q-14 0 -26 -2t-25 -2q-27 -2 -52.5 -3t-51.5 -1h-82l-203 2v-608h-82h-151zM389 748h260h4h4q2 -2 5 -3h4h4q2 0 6 3h4h4q10 0 20.5 1 t20.5 3q10 0 19.5 2l19.5 4q8 2 18.5 5t18.5 7l18 7l19 7q8 6 17 10.5t17 10.5q16 10 28.5 20.5l25.5 22.5q12 12 23.5 27.5t19.5 31.5t14 32.5t10 33.5q4 16 7.5 34.5t5.5 36.5v3v4v2v4q0 25 -3.5 48t-9.5 44q-6 23 -15 42t-22 38q-12 18 -27.5 33.5t-31.5 29.5 q-18 14 -37.5 26.5t-42.5 20.5l-12 4l-12 5l-13 4q-6 2 -10 4q-6 2 -12 3t-13 3q-6 0 -12 1t-12 3h-5q-3 0 -7 2h-6h-7h-5q-3 0 -7 2h-5h-7h-7q-3 0 -8 2h-5h-7h-12h-12h-9h-8h-10h-8h-8h-9h-8h-8h-6h-6h-9h-6h-12h-12l-113 2v-626z" />
<glyph unicode="Q" horiz-adv-x="1865" d="M90 741q0 86 14.5 165t45.5 149q29 72 73.5 135t104.5 121q59 55 124.5 97t137.5 69q72 29 150.5 43t164.5 14h82q84 0 163 -14.5t150 -42.5q72 -27 138.5 -70t126.5 -98q59 -57 102 -121t74 -135q29 -70 44 -150t15 -166q0 -39 -4 -79t-14 -76q-8 -39 -21.5 -76 t-29.5 -72q-16 -37 -37 -70.5t-43 -64.5q-23 -33 -49.5 -61.5t-55.5 -55.5q10 -8 21.5 -15t23.5 -13q10 -8 22.5 -14.5t26.5 -10.5q6 -2 11.5 -5t11.5 -5t11 -3t12 -3l8 2h82v-142h-82h-19q-25 2 -46 4.5t-44 6.5q-20 2 -41.5 8t-40.5 10q-20 8 -38.5 17.5t-37.5 21.5 q-8 6 -17 12t-19 15q-6 -2 -12.5 -5.5t-12.5 -7.5l-38 -17q-19 -9 -40 -15q-20 -8 -39.5 -13.5t-42.5 -9.5q-20 -2 -41 -6l-41 -8h-9h-9q-4 0 -8 -1t-8 -3h-11h-8h-4q-2 0 -4 -2h-6h-4h-10q-5 0 -9 -3h-9h-9h-8q-4 0 -9 -2h-8h-8l-82 -2q-82 2 -156.5 14.5t-146.5 39.5 q-70 27 -136.5 67.5t-127.5 95.5t-107.5 117t-76.5 131q-31 68 -45.5 144.5t-14.5 158.5zM324 700q0 -10 2 -20q0 -8 1 -17.5t3 -19.5q0 -4 1 -9t3 -9q0 -6 1 -10.5t3 -8.5v-4q0 -2 2 -4v-4v-4q6 2 11 3t11 3t11.5 3t11.5 1q8 2 15.5 3t15.5 3q8 0 15 1t15 3q16 4 32 5t30 3 h8l12 3h9h12h8l12 2h82h8h13q53 0 103 -4.5t97 -14.5q47 -8 91.5 -22.5t85.5 -30.5q20 -8 41 -19l40 -20q18 -12 39 -24l41 -23q41 -25 79 -53l77 -60q4 -4 9 -8t9 -8q4 -2 7.5 -5t5.5 -7l24 28q12 14 23 29q18 25 34.5 52.5t30.5 58.5q14 29 24.5 59.5t18.5 60.5 q6 31 10.5 63t4.5 64q0 70 -12.5 133.5t-36.5 120.5q-25 59 -62 111.5t-84 97.5q-49 47 -101 81t-112 58q-49 20 -102 31.5t-113 13.5q-57 -2 -110.5 -13t-102.5 -32q-57 -25 -111.5 -58.5t-103.5 -80.5t-86 -99t-61 -110q-25 -57 -36 -121q-10 -54 -10 -111q0 -11 1 -22v-4 v-4v-2v-4v-4v-21zM410 438q6 -12 13 -24.5t15 -24.5l19.5 -24.5t21.5 -24.5l22 -25q11 -12 23 -22q10 -10 22.5 -19.5l24.5 -19.5l13 -10l12 -8l12 -9l13 -8l44 -26.5t44 -22.5t45 -18.5t47 -14.5q23 -6 46 -10l48 -8q8 0 15.5 -1t15.5 -1q6 -2 13 -2h15h4q2 0 5 2h2h4h13 q7 0 15 2q6 2 13.5 3t15.5 3q6 0 13.5 1t15.5 3q6 0 13 2t15 4l13 4q6 2 14 4q6 2 13 5.5t16 5.5q14 4 27 10l26 12q6 4 12 7t13 7q4 2 10 7l12 8v4l-80 61q-4 2 -9 5.5t-9 5.5q-4 4 -9.5 7t-9.5 7l-10 6l-8 8l-10 6l-9 7q-10 8 -21 15l-22 13q-6 4 -11 7t-9 8q-6 2 -11 6 t-12 6q-10 6 -21 12l-24 12q-6 4 -12 7l-12 4q-8 4 -15 6l-12 4l-12 4l-12 4q-8 0 -15 2l-12 4l-12 4l-13 4q-8 0 -14 2l-12 5q-14 4 -27.5 7t-25.5 5q-14 4 -27.5 5t-26.5 3q-4 0 -8 1t-8 1q-6 2 -10 2h-9q-8 0 -16 1t-16 3h-9h-8h-3h-3h-5h-5q-4 -2 -6 -2h-6 q-14 -2 -28.5 -3t-29.5 -3q-8 -2 -15 -4t-15 -2l-15.5 -4t-13.5 -4q-14 -4 -27.5 -9.5t-27.5 -9.5z" />
<glyph unicode="R" horiz-adv-x="1325" d="M156 0v1513h82h360q10 -2 19.5 -3t17.5 -1h19h18h9h9q4 -2 9 -2h10h9h9q4 -2 9 -2h9q10 -2 19.5 -3t17.5 -1q10 -2 19.5 -3t17.5 -1q8 -2 17.5 -3t17.5 -1q10 -2 19.5 -3t17.5 -3q18 -4 35.5 -9t34.5 -12l33 -13q17 -7 34 -17q29 -16 54.5 -36t45.5 -42q23 -20 41.5 -45 t32.5 -53q16 -27 26.5 -56.5t18.5 -60.5t12.5 -62.5t4.5 -64.5q0 -47 -8.5 -90t-24.5 -84q-16 -39 -41 -76t-57 -70q-33 -33 -69 -58.5t-77 -41.5q-39 -16 -81 -25.5t-89 -9.5l426 -561h-82h-188l-514 686h82h45l6 -4h10h12h16q7 0 15 2h12h13h7q3 0 5 2h7h5q4 0 10.5 1 t12.5 3q6 0 12 1t12 3q6 0 12.5 1t12.5 3q4 2 10 3t12 4l24 8q11 4 22 10q23 10 43 24.5l38 28.5q18 16 34 33.5t30 38.5q12 20 21.5 41.5t15.5 44.5t10 46.5t4 49.5v2v4v2v4q-2 18 -5 37t-9 37q-2 10 -6 18.5t-6 18.5l-8.5 17.5l-8.5 17.5q-8 16 -19.5 32.5t-23.5 30.5 t-25.5 26.5t-29.5 22.5t-34 20l-34 17l-34 13q-17 6 -35 8q-8 2 -17.5 3t-19.5 3q-8 0 -17.5 1t-19.5 3h-20q-9 0 -19 2h-9q-5 0 -9 2h-10h-9h-8h-8h-13h-6h-6h-8h-6l-158 2v-1374h-82h-151z" />
<glyph unicode="S" horiz-adv-x="1101" d="M45 420v4h82h162q0 -33 6 -62.5t18 -58.5q10 -27 27.5 -51.5t38.5 -46.5q23 -23 46.5 -40.5t49.5 -27.5q16 -8 35.5 -13t40.5 -7q23 2 42 6t38 12q29 10 53.5 26.5t46.5 37.5q23 20 40 43.5t30 50.5q10 29 16 58.5t6 62.5q0 8 -1 15t-1 15q-2 6 -3 13.5t-3 15.5l-4 15.5 l-4 15.5q-4 6 -6 13t-6 15q-8 14 -16.5 26.5t-18.5 25.5q-8 12 -20 23l-21 22q-6 4 -12.5 9t-12.5 9q-8 4 -14 8l-12 9q-12 8 -25.5 14t-28.5 10q-14 4 -27.5 9t-29.5 10q-14 4 -28.5 9t-28.5 9h-4v2h-4h-3v2h-4h-4l-2 2h-4h-2h-4l-2 2h-4l-4 2q-16 4 -32.5 9.5t-33.5 9.5 q-14 4 -29 10l-32 12q-14 4 -29.5 11.5l-30.5 15.5l-27 19q-13 9 -26 22q-16 12 -31 27l-26 30q-12 16 -21.5 33.5t-17.5 36.5q-8 18 -13.5 36.5t-9.5 39.5q-4 18 -6 38.5t-2 40.5q0 45 8.5 86t22.5 78q16 37 38.5 70t55.5 61q31 29 65.5 49.5t73.5 34.5t80 21.5t86 7.5h82 q43 0 83 -7t77 -24q37 -14 70.5 -36.5t64.5 -51.5t53.5 -61.5t36.5 -69.5q16 -37 23.5 -77t7.5 -83h-82l-158 4q-2 27 -9 51.5t-17 49.5q-10 23 -24.5 44t-33.5 40q-20 18 -41.5 32.5t-44.5 22.5q-14 6 -30.5 10t-32.5 6q-16 -2 -32.5 -6t-31.5 -10q-25 -8 -45 -23.5 t-39 -33.5q-18 -20 -31.5 -42t-23.5 -44q-8 -25 -13 -49.5t-5 -51.5q0 -33 5 -62.5t17 -51.5q10 -23 27.5 -40.5t40.5 -29.5l46 -23.5t48 -21.5l50 -17q26 -9 52 -16l2 -4h4h3h4l6 -4h8l6 -4h6l6 -2h9l6 -4h6l16 -4q8 -2 17 -6l14 -4.5t16 -6.5q8 -2 15.5 -5t15.5 -5 q6 -4 13.5 -6t15.5 -6q14 -6 28.5 -13.5t28.5 -17.5q16 -8 29.5 -18.5l27.5 -22.5q16 -14 32 -30.5t28 -34.5l24 -37q12 -18 21 -41q10 -20 16 -42t11 -44l4 -22l4 -21q0 -12 1 -23.5t1 -21.5q0 -47 -9.5 -90t-25.5 -82q-18 -39 -44 -75t-60 -67q-35 -33 -72 -55.5 t-78 -38.5q-39 -14 -82 -21.5t-90 -7.5l-82 -2q-49 2 -94 9.5t-86 19.5q-41 16 -79 38.5t-73 55.5q-35 31 -61.5 67t-42.5 75q-18 41 -27 86q-7 36 -6 76v20z" />
<glyph unicode="T" horiz-adv-x="954" d="M14 1376v137h82h844v-137h-344v-1376h-82h-152v1376h-348z" />
<glyph unicode="U" horiz-adv-x="1423" d="M156 590v923h82h151v-919v-12v-11v-11v-9v-9v-10v-9q0 -5 2 -9q0 -16 2 -32l4 -31q2 -14 5.5 -29.5l7.5 -32.5l8 -30q4 -15 10 -29t14 -29l17 -29q10 -20 24.5 -36.5t30.5 -30.5t33.5 -26.5t38.5 -22.5q20 -10 40.5 -18.5t41.5 -12.5q6 -2 11 -3t11 -1q6 -2 11.5 -3 t11.5 -1t12 1t12 3q4 0 10.5 1t12.5 3q18 4 37 12l37 17q16 8 32.5 18t30.5 23q16 12 28.5 26.5t24.5 30.5t22.5 34.5t18.5 37.5q8 18 14.5 36.5t10.5 38.5t7 40t5 40t3 40t3 40v4v4v2v4v9v8v923h82h152v-919q0 -31 -1 -59.5t-5 -57.5q-2 -29 -7 -56l-8 -54 q-4 -27 -12 -54.5t-21 -52.5q-12 -27 -26 -51.5t-33 -46.5q-18 -25 -37.5 -45.5t-42.5 -38.5t-47 -32.5t-51 -27.5q-14 -6 -28 -10l-25 -8q-14 -2 -27.5 -6t-28.5 -6q-27 -6 -56.5 -9.5t-57.5 -3.5l-82 -2q-29 2 -56.5 5.5t-56.5 9.5l-53 12q-27 6 -53 16q-27 10 -50.5 24.5 t-46.5 31.5q-23 16 -43 35.5t-37 42.5q-20 23 -36.5 47t-28.5 51t-21.5 54.5t-13.5 55.5q-6 29 -9 56.5t-7 56.5q-2 29 -3 58.5t-1 60.5z" />
<glyph unicode="V" horiz-adv-x="1519" d="M20 1513h82h166l490 -1222l493 1222h82h166l-629 -1513h-82h-143z" />
<glyph unicode="W" horiz-adv-x="2048" d="M20 1513h82h158l330 -1171l321 1171h82h144l321 -1169l330 1169h82h158l-433 -1513h-82h-198l-291 1087l-293 -1087h-82h-198z" />
<glyph unicode="X" horiz-adv-x="1329" d="M16 0l514 774l-483 739h82h176l361 -544l358 544h82h176l-489 -739l520 -774h-82h-178l-387 586l-390 -586h-81h-179z" />
<glyph unicode="Y" horiz-adv-x="1294" d="M4 1513h82h166l395 -770l395 770h82h166l-526 -1007v-506h-82h-152v506z" />
<glyph unicode="Z" horiz-adv-x="1064" d="M35 0v135l743 1241h-721v137h82h891v-137l-741 -1239h764v-137h-82h-936z" />
<glyph unicode="[" horiz-adv-x="800" d="M229 324v596v37q0 19 2 40q0 18 2 37l5 37q2 16 5 33.5t9 36.5q6 18 13 35.5t16 33.5q4 6 7 12.5t5 12.5q4 6 7 12t7 13l8 12l9 12q4 6 9 12.5t11 12.5l2 4l4 4l2 2l4 4q12 14 27 28l29 27l32 28l35 28q16 12 34.5 23t37.5 20q18 10 36.5 16t39.5 12l4 2h2l4 2h82h4v-151 q-39 -18 -70.5 -38t-56.5 -42q-27 -20 -46.5 -45t-33.5 -51q-14 -27 -25.5 -55.5t-17.5 -63.5q-8 -33 -11 -70t-3 -78v-563q0 -45 3 -84t9 -73q6 -35 15.5 -66t21.5 -57q12 -27 31.5 -50.5t46.5 -44.5q29 -23 62.5 -42t74.5 -37v-2v-156h-82l-38.5 12t-37.5 15 q-18 8 -36.5 18t-34.5 20q-18 10 -34 23l-32 25q-14 14 -29.5 27.5t-27.5 27.5l-9 6l-6 8l-8 10l-6 9q-2 6 -5 10t-7 8q-2 4 -5 8t-8 8q-14 18 -24 36l-21 38q-8 20 -15 42t-11 42t-7 42l-6 46q-2 25 -3 50.5t-1 52.5z" />
<glyph unicode="\" horiz-adv-x="1320" d="M172 1513h82h145l633 -1513h-82h-143z" />
<glyph unicode="]" horiz-adv-x="800" d="M78 -104q37 16 67.5 34.5t57.5 40.5q27 20 47 42t35 48q14 27 24 56.5t19 62.5q6 35 10 72t4 76v569v12v13v7v7v6v6q-2 6 -2 13v12v12v12q-2 10 -3 21.5t-3 23.5q-2 6 -3 12.5t-1 12.5q-2 4 -3 10t-3 13l-3.5 7t-1.5 5q-2 4 -3 7t-3 5q-2 6 -5 13.5t-7 15.5q-2 4 -4 7 t-2 7q-2 2 -4 6l-4 8q-4 8 -9.5 15.5t-9.5 15.5q-8 14 -19 26.5l-22 24.5l-21 20.5t-22 18.5q-12 8 -24.5 15.5t-24.5 15.5l-27 15l-30 16v4v155h82q10 -4 19 -8t20 -6q8 -4 18 -8t19 -8q10 -4 18 -9.5t18 -9.5l17.5 -9t17.5 -11q16 -10 33.5 -22.5t32.5 -24.5 q16 -14 29 -28l28 -28l8 -8l6 -8l9 -10l6 -8q4 -4 7 -8.5t5 -8.5q4 -4 7 -8t5 -8q14 -20 25.5 -40t19.5 -42q10 -20 16.5 -41t10.5 -41t7 -44t5 -46q2 -25 3 -49.5t1 -50.5v-588q0 -25 -1 -46.5t-3 -41.5t-3 -39t-3 -35q-2 -18 -7 -35.5t-9 -34.5l-13 -33q-6 -17 -14 -34 q-2 -2 -4 -5t-2 -8q-2 -2 -4 -5t-4 -7q-2 -2 -4 -5l-2 -3q-2 -2 -4 -5t-5 -5l-8 -13l-8 -12q-4 -6 -9 -12t-9 -12l-4 -2v-5v-2h-2v-2l-25 -25q-12 -13 -27 -26l-29 -25l-32 -28q-16 -12 -33.5 -23.5t-36.5 -19.5q-18 -10 -36 -17l-33 -14l-11 -4l-8 -4h-10l-8 -4h-82v156z " />
<glyph unicode="^" horiz-adv-x="1323" d="M37 369l522 1144h82h119l526 -1144h-82h-131l-416 901l-407 -901h-82h-131z" />
<glyph unicode="_" horiz-adv-x="1105" d="M0 -137h82h1024v-119h-82h-1024v119z" />
<glyph unicode="`" horiz-adv-x="856" d="M152 1473l65 122h82l406 -221l-68 -119h-82z" />
<glyph unicode="a" horiz-adv-x="1480" d="M86 563q0 29 2 56.5t8 54.5t14.5 52.5t18.5 51.5q10 25 23.5 49.5t27.5 44.5l33 43q16 20 35 41q20 20 41.5 39t44.5 35t48.5 31.5t51.5 28.5q27 12 55.5 21t61.5 15q31 6 64.5 10.5t70.5 4.5h82h4h2h4q33 -2 64.5 -6.5t62.5 -12.5t60.5 -18t58.5 -25q29 -14 54.5 -31.5 t45.5 -39.5v112h82h146v-1120h-82h-146v100q-23 -23 -48 -40t-54 -31t-59 -23l-62 -16q-33 -6 -64.5 -10.5t-64.5 -4.5l-82 -2q-4 2 -9 2h-9q-4 2 -9 2h-10h-8h-8q-4 2 -8 3h-8q-4 0 -8.5 1t-8.5 1q-6 2 -10 3t-8 1q-8 2 -16.5 3t-16.5 3q-25 4 -48.5 10t-45.5 14l-46 21 q-24 10 -46 24q-23 14 -44.5 29.5t-43.5 34.5l-42 39q-22 20 -40 43l-11 10l-3 3q-1 1 -1 3q-2 2 -3 4t-3 4q-2 4 -5 8.5t-7 8.5q-2 4 -4 9t-4 11q-8 12 -15 27l-12 29l-12 33q-6 17 -11 38q-6 18 -9 39t-7 41q-2 23 -3 44t-1 44zM319 551q0 -45 8.5 -88t24.5 -82t43 -75 t60 -66q35 -33 71.5 -55.5t75.5 -39.5q31 -12 62.5 -18t64.5 -10q33 4 64.5 11t60.5 19q39 16 74 40t67 57q33 33 57.5 67.5t39.5 73.5q16 37 24 78t8 86q0 47 -8 90t-24 82q-14 41 -38 75.5t-55 67.5q-33 33 -67.5 57.5t-73.5 41.5q-33 12 -67.5 20t-71.5 10 q-33 -4 -63.5 -12t-59.5 -18q-39 -14 -76 -39t-69 -58q-33 -33 -57.5 -67.5t-41.5 -75.5q-16 -39 -24.5 -82t-8.5 -90z" />
<glyph unicode="b" horiz-adv-x="1478" d="M129 0v1513h82h151v-497l32 26q15 12 34 23q25 14 49.5 25.5t50.5 19.5q25 10 52.5 16.5t54.5 10.5h8l10 2h9h8h8l10 2h82h8h8q59 0 117 -10.5t111 -30.5t102 -52t94 -73t79 -87t57 -100q23 -51 35 -108t12 -119q0 -27 -3.5 -52.5t-7.5 -49.5q-4 -25 -10 -49.5t-14 -47.5 q-4 -12 -8 -22l-9 -21q-6 -10 -10 -19t-8 -19q-8 -18 -19 -34l-22 -30l-4 -4v-4l-4 -4l-2 -4l-6 -6l-6 -7q-12 -14 -24.5 -26t-23.5 -25q-12 -12 -23 -21.5l-22 -19.5q-12 -8 -23 -17l-22 -18q-12 -8 -23 -14l-22 -12l-34 -17q-17 -8 -33 -14l-34 -8q-17 -4 -34 -6 q-8 -2 -16 -3t-19 -3q-8 0 -16 -1t-19 -3q-8 0 -17 -1.5t-17 -1.5q-10 -2 -19 -2h-18l-82 -2q-4 2 -8 2h-9h-12q-2 2 -4 2h-4q-2 2 -4 3h-4h-4h-2h-4h-5h-4h-4q-2 2 -4 2h-4h-12q-2 2 -4 2h-4q-2 2 -5 2h-4h-4h-2q-2 2 -4 2h-4q-25 4 -49.5 9t-46.5 13q-23 8 -45.5 18.5 t-44.5 24.5l-31 20l-29 19v-92h-82h-143zM352 547q0 -47 8.5 -90t24.5 -82t41 -73t57 -64q33 -31 70 -53.5t76 -39.5q31 -12 63.5 -18t65.5 -10q35 4 66.5 11t62.5 19q41 16 75.5 40t67.5 57t57.5 68.5t38.5 74.5q16 39 24.5 82t8.5 88q0 47 -8 91t-25 83q-16 39 -40.5 74 t-57.5 65q-33 31 -68.5 54.5t-76.5 38.5q-31 12 -65 20t-68 10q-8 0 -16.5 -2t-16.5 -2q-4 -2 -8 -2t-9 -2q-20 -4 -41.5 -10t-42.5 -14q-20 -8 -39.5 -19.5t-37.5 -23.5t-35 -26.5t-33 -31.5q-16 -16 -30.5 -33.5t-26.5 -35.5t-20.5 -37t-14.5 -37q-8 -20 -12.5 -40 t-8.5 -42l-4 -43q-2 -22 -2 -45z" />
<glyph unicode="c" horiz-adv-x="1406" d="M86 557q0 61 11.5 119.5t33.5 109.5q23 53 57.5 99.5t79.5 87.5t94.5 72.5t102.5 52.5q53 23 109.5 33t117.5 10h82q45 0 88 -6.5t84 -18.5t82 -30.5t80 -43.5t71.5 -53t59.5 -63q29 -33 50.5 -71t37.5 -79h-82l-170 4q-14 23 -31.5 44.5t-37.5 41.5l-43 37 q-23 18 -50 33q-27 14 -52 24.5t-54 18.5l-37 8q-18 4 -39 6q-33 -2 -65.5 -10t-63.5 -20q-39 -14 -76 -38t-71 -55q-33 -31 -59.5 -65.5t-43.5 -73.5q-16 -39 -24.5 -82t-8.5 -90t8.5 -90t24.5 -82t40 -75t57 -68q33 -33 68.5 -56.5t74.5 -40.5q31 -14 63.5 -21t67.5 -9 q23 2 42 4t38 6q29 6 54.5 16.5t49.5 24.5q23 12 45.5 28.5t42.5 36.5q23 18 42.5 41t37.5 50v4h82h168q-20 -43 -42.5 -80t-51.5 -70q-27 -33 -58.5 -61.5t-66.5 -50.5q-37 -25 -75 -42.5t-79 -25.5q-41 -10 -84 -16.5t-88 -6.5l-82 -2q-63 2 -121.5 12.5t-111.5 26.5 q-55 20 -104.5 51t-94.5 72t-78.5 89t-56.5 100q-23 53 -34 111.5t-11 121.5z" />
<glyph unicode="d" horiz-adv-x="1484" d="M86 559q0 61 11.5 119.5t33.5 109.5q23 53 55.5 99.5t77.5 87.5t94.5 72.5t100.5 52.5q53 20 110.5 30.5t118.5 10.5h82h8h8h9h8q29 -2 58.5 -7.5t56.5 -13.5l28 -8q14 -4 29 -10q12 -6 26 -12l29 -13q25 -14 48.5 -29.5t43.5 -31.5v497h82h152v-1513h-82h-144v111l-5 -6 l-7 -7l-49.5 -38.5t-52.5 -32.5q-27 -14 -57.5 -22.5t-63.5 -14.5t-66.5 -10.5t-68.5 -4.5l-82 -2q-18 2 -36.5 3t-37.5 4q-18 2 -36 6l-33 8l-36 8q-17 4 -34 10q-18 6 -35.5 15.5l-34.5 19.5q-6 4 -12 7t-10 7l-13 9l-12 8q-12 8 -23 17l-22 18q-12 10 -24.5 19t-24.5 22 q-12 10 -23.5 22t-21.5 25l-4 2l-2 4l-4 2l-4 4l-7 8l-6 8q-8 10 -17 24.5t-18 31.5q-8 16 -15 37l-15 43q-8 23 -13.5 46t-9.5 48t-6 49t-2 51zM319 561q0 -45 8.5 -88t24.5 -84q16 -39 40 -74.5t57 -68.5t68.5 -57.5t74.5 -41.5q31 -12 63.5 -19t67.5 -11q35 4 66.5 10 t62.5 20q41 16 76 41t67 58q33 33 57.5 68.5t41.5 74.5q16 41 24 84t8 88v4q0 45 -9 86t-25 80t-41 74t-58 65q-33 31 -69.5 54.5t-77.5 38.5q-31 12 -61.5 20t-65.5 10q-33 -2 -64.5 -10t-60.5 -20q-39 -14 -75 -39t-68 -56q-33 -33 -57.5 -67.5t-41.5 -73.5 q-16 -39 -24.5 -80t-8.5 -86z" />
<glyph unicode="e" horiz-adv-x="1413" d="M86 555q0 59 10 115.5t31 107.5q23 53 54.5 100.5t74.5 90.5q41 43 88 75.5t98 53.5q53 23 109.5 33t118.5 10h82q33 0 64.5 -4t64.5 -11q31 -8 61.5 -18t58.5 -25q29 -14 56.5 -31.5t52.5 -37.5t48.5 -43t43.5 -47l34.5 -49.5t29.5 -49.5l12 -24q6 -12 10 -25 q4 -14 9.5 -26.5t7.5 -24.5q6 -27 11 -53.5t7 -55.5q2 -16 4 -35l4 -38q0 -8 1 -17.5t1 -19.5h-1014q2 -43 11.5 -81t25.5 -73q16 -33 41 -64.5t58 -60.5t66.5 -50t70.5 -36q29 -10 56.5 -16t56.5 -8q23 2 42 5t39 9q29 10 58.5 22.5t56.5 28.5q29 16 51.5 36t42.5 40 q20 23 37 48.5t29 53.5l158 5h81q-14 -45 -34.5 -84t-46.5 -74q-27 -35 -60 -65.5t-72 -59.5q-39 -27 -78.5 -48.5t-80.5 -33.5q-41 -10 -84 -17.5t-88 -7.5l-82 -2q-61 2 -117.5 12.5t-110.5 28.5q-51 20 -99 51t-91 74q-43 41 -74.5 89t-54.5 100q-20 53 -30.5 109.5 t-10.5 117.5zM319 643h781q-8 35 -21.5 68.5t-31.5 64.5t-43 59.5t-56 55.5t-63.5 46t-67.5 32q-25 10 -50.5 16t-53.5 8q-29 -2 -56.5 -8t-54.5 -16q-35 -12 -67.5 -30.5t-63.5 -43.5q-31 -27 -56.5 -55.5t-43.5 -59.5t-32 -65.5t-20 -71.5z" />
<glyph unicode="f" horiz-adv-x="724" d="M33 983v137h174v2v6v2v5v4q0 45 6 85t20 72q14 35 36 62.5t48 52.5q29 23 60 41t67 31q37 12 77 18t85 8l29 4h82v-137h-29q-29 -2 -55.5 -7t-48.5 -11q-23 -8 -42.5 -18.5t-35.5 -24.5t-28.5 -32.5t-20.5 -41.5q-8 -20 -12.5 -47t-4.5 -55v-19h279v-137h-279v-983h-82 h-151v983h-174z" />
<glyph unicode="g" horiz-adv-x="1460" d="M86 553q0 23 1 42t3 40q4 20 7 39.5t9 40.5q4 18 10.5 36.5t12.5 32.5l12 30.5t15 27.5q2 4 4 9t4 7t3 4t3 4q0 2 1 4t3 4q0 2 1 4.5t3 4.5l1 2q1 2 3 4l11 10q29 35 56 63.5t56 53.5q29 23 57.5 41t57.5 33q29 12 58.5 21t60.5 15q29 6 58.5 10.5t59.5 4.5h82h2h4h5h2h4 h4q33 -2 64.5 -6.5t62.5 -12.5t60.5 -19t58.5 -28q29 -14 53 -31.5t45 -37.5v114h82h145v-960v-25v-22q-2 -12 -2 -23v-20q-2 -20 -3 -39t-3 -33q-2 -8 -3 -16.5t-3 -16.5q-2 -10 -3 -19t-3 -18q-2 -8 -5 -16t-8 -16l-4 -9q-2 -4 -2 -10l-4 -8l-4 -8l-8 -13q-4 -6 -8 -14 l-10 -13q-5 -7 -9 -16q-2 -4 -5 -7t-5 -7q-4 -2 -6 -6t-6 -8q-2 -4 -6 -8.5t-7 -8.5q-4 -2 -7 -6t-7 -8q-16 -18 -34.5 -34.5t-39.5 -30.5q-20 -16 -42.5 -28.5t-45.5 -23.5q-12 -6 -24 -11l-23 -9l-24 -8l-25 -9l-49 -12q-25 -6 -49 -10h-5q-3 0 -5 -2h-7h-6h-5q-3 0 -5 -2 h-6h-4l-13 -2l-8 -2h-82h-12h-10q-45 2 -90 9t-88 21t-84 36t-82 50q-39 29 -73 62t-58 70q-27 37 -45.5 77.5t-28.5 87.5l82 -2h147q16 -29 35 -56.5t39 -51.5q23 -25 45.5 -45.5t48.5 -38.5q25 -16 53.5 -30.5t59.5 -22.5q20 -6 41.5 -10.5t42.5 -6.5q12 0 24 2l25 4 l22.5 4.5t24.5 6.5q25 8 48.5 17t45.5 22q23 12 43.5 27.5t38.5 31.5q16 16 31.5 35.5t30.5 42.5q4 6 7 12t5 12q2 2 3 5.5t3 7.5q0 2 1 5t3 7l4 10l4 10l2 13l5 12q2 6 3 15.5t3 17.5q2 10 3 19t1 20v9v11v3v3q-14 -14 -31.5 -26.5t-38.5 -22.5q-27 -14 -52.5 -25.5 t-53.5 -19.5l-55 -12q-28 -6 -56 -10l-8 -3l-8 -2h-11h-8h-8l-8 -2h-82h-8h-8h-4h-5h-2h-4h-4h-2l-52.5 7.5t-51.5 9.5l-53 12q-26 6 -50 16q-27 10 -50 22.5t-46 27.5q-20 14 -40.5 30.5t-39.5 34.5q-23 20 -42 42t-36 46q-16 25 -30.5 50.5t-24.5 52.5t-18.5 54.5 t-14.5 55.5q-6 29 -8 58.5t-2 60.5zM319 567q0 -47 7.5 -90t21.5 -84q16 -39 38 -75.5t52 -69.5q29 -33 64 -58.5t73 -42.5q29 -14 63 -21t69 -9q12 0 24 2l23 4q20 4 39.5 9t40.5 13q18 8 36.5 17.5t36.5 21.5l34 27q17 14 34 31l21 22q11 12 20 27q10 14 18 30l17 29 q8 16 14 32l12 32q4 16 9.5 32.5t7.5 32.5v8l4 13v8l2 10v8l2 11v8v10q0 47 -8.5 90t-24.5 82t-40.5 74t-57.5 67q-33 31 -68 55.5t-76 39.5q-33 12 -68.5 20t-72.5 10q-29 -4 -57.5 -12t-55.5 -18q-37 -14 -70.5 -39t-62.5 -58q-31 -33 -53 -67.5t-39 -71.5 q-14 -37 -21.5 -77t-7.5 -83z" />
<glyph unicode="h" horiz-adv-x="1331" d="M129 0v1513h82h151v-458q12 10 26 17l28 15l44 20q22 9 44 17q23 6 47 10.5t49 6.5h82h4h4h6h6q27 0 52.5 -3t52.5 -10q27 -6 52.5 -14t51.5 -18q25 -10 49.5 -23.5t45.5 -30.5q23 -16 42 -34.5t37 -38.5q16 -20 30.5 -42t27.5 -44q12 -23 21.5 -46.5t15.5 -45.5l4 -25 l4 -25q2 -14 4 -26l4 -25q4 -27 5 -52.5t1 -51.5v-586h-82h-151v590q0 16 -1 32.5t-3 34.5q-2 16 -3 34t-6 34q-2 16 -7 33.5t-11 32.5q-2 8 -6 16l-8 16q-6 6 -10.5 14.5t-10.5 16.5q-12 16 -26.5 31.5t-30.5 27.5q-14 12 -32.5 24.5t-37.5 20.5q-20 10 -39.5 16.5 t-40.5 10.5q-4 0 -7 1t-7 1q-6 2 -12 3t-13 1l-29 -4q-15 -2 -30 -6l-34 -12q-17 -6 -34 -17q-16 -8 -31.5 -19t-29.5 -24q-14 -12 -26.5 -24.5t-22.5 -26.5l-8 -12q-4 -6 -9 -10q-2 -6 -5 -12.5t-7 -12.5q-6 -12 -9 -25.5t-7 -27.5q-2 -14 -5 -27.5t-5 -28.5q-2 -14 -3 -27 v-28v-8v-8v-8v-9v-8v-8v-12v-586h-81h-152z" />
<glyph unicode="i" horiz-adv-x="491" d="M129 0v1120h82h151v-1120h-81h-152zM129 1255v258h82h151v-258h-81h-152z" />
<glyph unicode="j" horiz-adv-x="497" d="M-92 -246q43 4 73.5 11.5t55.5 21.5t41 34.5t24 47.5t14.5 54.5t10.5 56.5q4 27 6 56.5t2 61.5v1022h82h152v-1018v-8v-4v-4v-4q0 -27 -1 -50.5t-3 -43.5q-2 -23 -3.5 -45.5t-5.5 -44.5l-4 -22q-2 -11 -6 -23l-8 -22q-4 -11 -10 -21t-13.5 -20.5t-13.5 -22.5l-16 -21 q-8 -10 -19 -20q-14 -14 -28.5 -26.5t-30.5 -23.5q-14 -10 -32 -19l-34 -17q-4 -2 -9 -3.5t-9 -3.5t-9 -4l-10 -4q-12 -4 -24 -7t-27 -5q-14 -2 -28.5 -3t-28.5 -1l-84 -2zM135 1255v258h82h152v-258h-82h-152z" />
<glyph unicode="k" horiz-adv-x="1110" d="M129 0v1513h82h151v-956l433 563h82h194l-434 -561l463 -559h-82h-195l-321 391l-140 -178v-213h-81h-152z" />
<glyph unicode="l" horiz-adv-x="491" d="M129 0v1513h82h151v-1513h-81h-152z" />
<glyph unicode="m" horiz-adv-x="2002" d="M129 0v1120h82h143v-47q10 8 21 14l20 13q20 10 42 17l42 13q23 4 45.5 7.5t46.5 3.5h82q29 0 54.5 -3t52.5 -10q25 -6 49.5 -14t46.5 -18q23 -10 44.5 -23.5t41.5 -30.5q16 -12 29.5 -24t27.5 -29l21 22l20 21l33 25q16 12 37 22q18 10 37.5 19.5t40.5 15.5l41 12 q20 6 41 9h8l10 2l8 2h9h8l10 2h82h8h8q10 0 21.5 -1t23.5 -1l22 -4l21 -5q23 -6 45.5 -14t44.5 -18q23 -10 44.5 -23.5t42.5 -30.5q10 -8 20 -17t23 -17l20 -19.5l20 -19.5q16 -16 31 -34.5t25 -37.5q10 -20 18 -39.5t12 -42.5l5 -21l4 -22q2 -12 3 -23.5t3 -21.5 q2 -23 3 -46.5t1 -47.5v-635h-82h-152v625v7v7v8v8v9v10l-2 8v10q-2 4 -3 9.5t-1 11.5v7v5q-2 4 -2 7v5q-2 4 -3 9.5t-1 11.5q0 4 -1 6t-1 6q-2 2 -3 5t-1 5q-2 10 -7 21.5l-9 21.5q-2 4 -4.5 9.5t-6.5 11.5q-2 4 -4 9t-6 9q-12 16 -24.5 30.5t-26.5 27.5q-14 12 -28.5 22 t-30.5 19q-16 8 -34 14t-36 10q-4 0 -8 1t-8 3q-4 0 -8.5 1t-8.5 1q-8 -2 -15 -3t-16 -3q-16 -4 -33.5 -10t-33.5 -14t-31.5 -18.5t-30.5 -22.5q-14 -12 -25 -24.5t-22 -27.5q-6 -8 -12 -17t-10 -20q-2 -4 -4 -9t-4 -9q0 -6 -2.5 -11t-2.5 -9l-4 -21l-4 -20q-2 -10 -2 -21 v-20q-2 -6 -2 -12v-9v-11v-9v-12v-9v-9v-9v-4v-2v-4v-621h-82h-151v641v9v9q-2 4 -2 10v9v9v11q-2 4 -2 10v9q-2 10 -3 19t-4 18q-2 4 -3 9t-1 11q-2 4 -3 9t-3 12q-2 4 -3 8t-3 8t-3 8t-3 8q-2 2 -3 4.5t-1 4.5q-2 2 -3 4t-3 4t-3 4t-1 4q-2 2 -3 4t-4 4q-10 16 -22 29.5 t-27 25.5q-14 12 -29.5 23.5t-31.5 19.5q-16 10 -33.5 16.5t-36.5 10.5q-8 2 -15 3t-18 3q-6 0 -12 -1t-14 -3q-16 -2 -33.5 -8t-34.5 -14q-16 -8 -31.5 -17.5t-27.5 -19.5q-14 -12 -26.5 -24.5t-22.5 -26.5t-18.5 -27.5t-14.5 -30.5q-6 -14 -9 -28.5t-5 -28.5t-3 -29.5 t-1 -32.5q0 -8 -1.5 -16t-1.5 -14v-17v-16v-637h-81h-152z" />
<glyph unicode="n" horiz-adv-x="1331" d="M129 0v1120h82h143v-78q16 14 34 26.5t36 23.5q23 12 45.5 21t46.5 15q25 6 51.5 9.5t53.5 3.5h81q29 0 56.5 -3t54.5 -10q29 -6 54.5 -15t52.5 -21t51 -27.5t45 -32.5q23 -16 43 -35.5t41 -42.5q8 -10 15 -20t13 -21q6 -12 13 -22l12 -21q6 -10 10 -21l8 -22l7.5 -23 t5.5 -22l8 -46q4 -24 6 -48q2 -25 3 -50.5t1 -51.5v-586h-82h-151v590v7v7q-2 4 -2 8v9v19v17q-2 8 -3 16.5t-1 16.5q0 4 -1 8t-1 11q-2 4 -3.5 8t-1.5 8q-2 16 -7 33.5t-11 32.5q-6 16 -15.5 31.5t-19.5 29.5l-29 32q-14 15 -30 29q-14 12 -31.5 24.5t-36.5 20.5 q-20 10 -39.5 16.5t-40.5 10.5q-6 2 -11 3t-11 1q-6 2 -11.5 3t-11.5 1q-14 -2 -26.5 -5t-24.5 -7l-36 -12q-17 -6 -34 -17q-16 -8 -31.5 -19t-27.5 -24q-14 -12 -26.5 -24.5t-22.5 -26.5l-8 -12l-8 -12l-8 -15q-3 -6 -7 -12q-6 -14 -10 -27.5t-6 -27.5t-5 -27.5t-3 -30.5 q-2 -14 -2 -28v-29l-3 -8v-8v-9v-8v-6v-4v-4v-4v-586h-81h-152z" />
<glyph unicode="o" horiz-adv-x="1423" d="M86 549q0 59 10 116.5t31 108.5q23 53 54.5 100.5t74.5 92.5q43 43 91 75.5t99 53.5q53 23 109.5 34t118.5 11v4h82q59 -2 112.5 -13.5t104.5 -33.5q51 -20 98 -53t92 -76q43 -43 76 -90.5t53 -98.5q23 -51 34 -104t11 -113q0 -59 -10 -114.5t-33 -108.5 q-20 -51 -53 -100.5t-74 -92.5q-43 -45 -89 -76.5t-99 -54.5q-51 -20 -107.5 -30.5t-115.5 -10.5l-82 -2q-59 2 -114.5 12.5t-108.5 28.5q-51 20 -99.5 51t-91.5 74q-45 41 -76.5 88t-54.5 99q-20 51 -31.5 106.5t-11.5 116.5zM319 549q0 -45 8.5 -87t22.5 -81 q16 -39 40 -74t56 -65q33 -33 68 -56.5t74 -40.5q29 -12 61.5 -18t65.5 -10q35 4 67.5 10t61.5 20q39 16 73.5 42t65.5 59q29 33 52.5 68.5t37.5 74.5q16 41 23.5 84t7.5 88q0 23 -2 45.5t-6 42.5t-10.5 40t-14.5 40q-8 18 -17.5 36.5t-21.5 37.5q-12 16 -27.5 33.5 t-31.5 33.5q-14 14 -32 27l-34 25q-16 10 -34.5 20l-36.5 19q-20 8 -40 14t-40 10q-4 0 -9.5 1t-9.5 1q-2 0 -4 1t-4 1q-6 0 -13 1t-14 1q-33 -4 -61.5 -12t-56.5 -20q-39 -16 -74 -41t-66 -58q-33 -33 -55 -68.5t-39 -76.5q-14 -39 -22.5 -81t-8.5 -87z" />
<glyph unicode="p" horiz-adv-x="1478" d="M129 -393v1513h82h143v-102l29 21q14 11 31 20l45 23q23 11 45 20q23 10 47 16t49 10h4q2 0 4 2h2h4h4q2 0 5 3h4h4l12 2h4q2 0 4 2h4h4h5h4h2h4h4q2 0 4 2h4h4l12 2h82h9h8q16 0 30.5 -1t30.5 -3l30 -4q15 -2 30 -7q29 -6 58.5 -15t57.5 -21q14 -6 29 -15l29 -16l26 -18 l29 -19q14 -10 28 -22l27 -23l26 -26l28 -27l12 -13q6 -6 12 -14q4 -8 10 -15.5t13 -17.5q12 -18 23 -40.5t22 -47.5q10 -27 17 -53.5t13 -54.5q4 -27 7.5 -56.5t3.5 -60.5q0 -63 -12.5 -119.5t-34.5 -109.5q-23 -51 -57 -98.5t-79 -88.5t-94 -71.5t-102 -51.5 q-53 -16 -110.5 -26.5t-117.5 -10.5l-81 -2h-9h-8l-10 2h-8h-8h-9l-10 2h-8l-54 13q-28 6 -53 12q-27 8 -51 19.5t-49 25.5q-18 10 -33.5 21.5t-32.5 25.5v-487h-81h-152zM352 565q0 -23 2 -44l4 -44l9 -42q4 -22 12 -40q6 -20 14 -38.5t21 -37.5q12 -18 26.5 -34.5 t30.5 -32.5l33 -32q16 -15 35 -27q18 -12 38 -23l39 -20q20 -8 42 -15.5t42 -11.5q8 -2 15.5 -3t15.5 -1q9 0 18 -1q31 0 61 6q38 7 73 21q41 16 76.5 39t68.5 56q33 31 57.5 65.5t40.5 73.5q16 41 24.5 84t8.5 90q0 45 -8 87t-25 81q-14 41 -38.5 75.5t-57.5 67.5 t-67.5 57.5t-75.5 41.5q-31 12 -62.5 20t-66.5 10q-33 -2 -66 -9t-63 -19q-39 -14 -76 -38t-70 -55t-57.5 -65.5t-40.5 -73.5t-24.5 -80t-8.5 -88z" />
<glyph unicode="q" horiz-adv-x="1478" d="M86 551q0 29 2 56.5t6 54.5t12 52l17 50l19 46q9 22 20 40q10 18 21.5 33.5t23.5 27.5v2l4 5l2 2l4 4q23 29 47.5 51t50.5 43q25 20 52.5 36.5t54.5 28.5q29 12 56 22l54 17q29 8 56.5 12.5t56.5 6.5h82h8h8h9h8h7h7q2 -2 6 -2h8h8h7q2 -2 6 -2h8q8 -2 15.5 -3t15.5 -1 t15 -1.5l16 -3.5q23 -4 46 -10t48 -16q23 -8 46 -19.5l46 -23.5q16 -10 31 -22l28 -23v106h82h144v-1513h-82h-152v489q-14 -14 -30.5 -26.5t-34.5 -22.5q-25 -14 -50.5 -25.5t-52.5 -19.5l-52 -12q-26 -6 -52 -10l-10 -3l-9 -2h-10h-8h-8l-8 -2h-82h-9h-8 q-61 2 -118.5 12.5t-110.5 26.5q-53 20 -102.5 51t-94.5 72t-78.5 88t-56.5 99q-23 53 -34 109.5t-11 119.5zM319 553q0 -47 8.5 -90t24.5 -84q16 -39 41 -74t58 -65q33 -33 69.5 -55.5t75.5 -39.5q29 -10 61.5 -17t65.5 -11h13q7 0 14 2q6 0 13 1t13 3q23 4 44.5 11 t41.5 16l40 20q19 10 38 23q18 12 35.5 27.5l34.5 31.5q16 16 29.5 32.5t25.5 34.5q10 18 19.5 37t15.5 39q6 18 11 40t7 42q4 23 6 44.5t2 43.5q0 47 -9 88t-25 80t-41 74t-58 65q-33 31 -68.5 54.5t-76.5 38.5q-31 12 -62.5 19t-66.5 9q-33 -2 -65.5 -10t-63.5 -20 q-39 -16 -74 -41t-67 -58q-33 -33 -56.5 -67.5t-40.5 -75.5q-16 -39 -24.5 -81t-8.5 -87z" />
<glyph unicode="r" horiz-adv-x="698" d="M129 0v1120h82h143v-55q10 10 23.5 17.5t28.5 13.5q23 10 45 18t47 14l49 7.5t51 5.5h82v-146q-6 -2 -12 -3t-13 -1q-6 -2 -11 -3t-11 -3t-11.5 -3t-11.5 -1q-4 -2 -9 -3t-9 -3l-11.5 -4t-9.5 -2q-6 -2 -11 -4t-9 -4q-8 -4 -17.5 -9.5t-19.5 -9.5l-4 -4l-4 -2l-6 -4 l-4 -4l-4 -4l-5 -2l-6 -4l-4 -5q-4 -2 -8 -5t-8 -7l-12 -12l-7 -6l-6 -6l-6 -9l-4 -6l-19 -27q-9 -13 -16 -26q-8 -12 -12 -25.5t-6 -27.5t-5 -29.5t-3 -32.5q-2 -16 -3 -35v-36v-623h-81h-152z" />
<glyph unicode="s" horiz-adv-x="876" d="M37 309v4v4v5v4v4h82h151v-6v-2v-5q0 -20 3 -39.5t12 -37.5q6 -18 18 -34l27 -32q14 -14 29.5 -26.5t33.5 -18.5q10 -2 19.5 -5t17.5 -5q8 2 13.5 3t11.5 1q4 2 7 3t5 1q16 6 32.5 15.5t30.5 23.5q14 12 24.5 27.5t18.5 31.5q6 16 10.5 36t4.5 40q0 25 -4 47.5t-13 40.5 q-8 18 -21 32.5t-30 27.5q-16 10 -34.5 20t-36.5 18t-38 15.5t-40 13.5h-11l-8 4l-10 4l-8 4l-23.5 7.5t-21.5 7.5l-21.5 9l-21.5 9t-21 10l-20 13q-10 6 -19.5 14t-17.5 16q-12 10 -22 22l-19 23q-8 12 -15.5 24.5t-11.5 27.5q-6 14 -10 28l-8 29q-2 14 -3 29.5t-1 29.5 q0 35 5 66t17 57q12 29 31 54.5t43 48.5q23 23 49.5 38t55.5 27q29 10 59.5 16.5t62.5 6.5h82q31 0 60.5 -6.5t56.5 -16.5q29 -12 53.5 -28.5t46.5 -38.5q23 -23 40.5 -47.5t29.5 -51.5q10 -27 16.5 -55.5t6.5 -58.5h-82l-152 4q0 16 -4 31.5t-10 29.5t-15.5 26.5 t-21.5 22.5t-25.5 18.5t-29.5 14.5q-6 2 -12.5 3t-12.5 3q-2 0 -5 -1t-5 -3q-4 0 -6 -1l-6 -3q-14 -6 -26.5 -14t-23.5 -19q-12 -12 -20 -24.5t-14 -26.5t-8.5 -28.5t-2.5 -30.5q0 -23 3 -42.5t12 -35.5q8 -16 20 -28.5t27 -22.5q16 -8 31.5 -17.5t31.5 -15.5 q16 -8 34.5 -14.5t37.5 -10.5q31 -10 61.5 -22.5l57.5 -24.5q29 -14 53.5 -29.5t46.5 -31.5q23 -16 40 -38t30 -50q12 -27 18 -61t6 -70q0 -39 -7 -76t-19 -68q-12 -33 -32 -60.5t-44 -51.5q-27 -25 -55.5 -43.5t-61.5 -26.5q-33 -12 -68.5 -18.5t-74.5 -6.5l-82 -2 q-35 2 -68 8.5t-61 18.5q-31 8 -58.5 26.5t-52.5 45.5q-27 25 -45 51.5t-31 56.5q-12 29 -18 61.5t-6 67.5z" />
<glyph unicode="t" horiz-adv-x="776" d="M25 983v137h233v393h82h152v-393h260v-137h-260v-983h-82h-152v983h-233z" />
<glyph unicode="u" horiz-adv-x="1327" d="M129 470v54v596h82h151v-592v-34q0 -16 3 -33q0 -16 2 -32l4 -32q2 -16 5 -31.5t9 -31.5q4 -14 11 -28.5t16 -29.5q10 -20 24 -36l29 -33l33 -28q16 -13 37 -23q18 -10 39.5 -18.5t41.5 -12.5q6 -2 11.5 -3t11.5 -1q6 -2 11 -3t12 -1q10 2 20 3t18 3l19.5 4t19.5 6 q8 4 18.5 8t18.5 9l34 20q17 10 32 23q16 12 29.5 27.5t25.5 31.5q10 14 19.5 29.5t15.5 31.5l12 33q6 16 8 35q4 16 5 33.5t4 36.5q2 18 3 36.5t1 36.5v596h82h151v-1120h-82h-143v66q-16 -14 -34.5 -26.5t-39.5 -23.5q-25 -10 -50 -16l-52 -12q-27 -6 -55.5 -9.5 t-57.5 -3.5l-82 -2l-44 4q-22 2 -44 7q-20 2 -41.5 7t-42.5 9q-20 6 -39.5 16.5l-40.5 22.5q-20 12 -39.5 28.5t-38.5 34.5l-8 9l-8 8l-8 8l-8 8l-9 8l-8 9l-4 4q-2 2 -2 6l-4 4l-4 4q-14 12 -24.5 28.5t-18.5 34.5t-13.5 39t-9.5 45q-4 23 -7 47.5t-5 51.5q-2 26 -2 54z " />
<glyph unicode="v" horiz-adv-x="1216" d="M16 1120h82h164l346 -829l346 829h82h164l-473 -1120h-82h-158z" />
<glyph unicode="w" horiz-adv-x="1783" d="M14 1120h82h160l309 -821l221 684h82h125l221 -684l314 821h82h159l-426 -1120h-81h-175l-198 614l-195 -614h-82h-174z" />
<glyph unicode="x" horiz-adv-x="1064" d="M16 0l383 569l-383 551h82h178l256 -372l256 372h82h179l-385 -551l385 -569h-82h-179l-256 387l-256 -387h-81h-179z" />
<glyph unicode="y" horiz-adv-x="1179" d="M18 1120h82h162l320 -794l336 794h81h162l-647 -1513h-82h-160l177 428z" />
<glyph unicode="z" horiz-adv-x="952" d="M20 0v133l607 850h-586v137h82h770v-137l-602 -846h641v-137h-82h-830z" />
<glyph unicode="{" horiz-adv-x="800" d="M76 623q6 2 13 4t15 4q6 4 13.5 7t15.5 5q4 2 7 3t7 3q2 2 6.5 4t6.5 4l12 9l12 8q10 8 19.5 17t15.5 20q6 10 10 20t7 21q2 10 3 21t3 24v12q0 6 2 12v14v13v2v4v4v346q0 39 3 73t11 62q6 29 17.5 53.5t25.5 43.5q14 18 35.5 32.5t48.5 22.5q29 10 63.5 14t77.5 4h82h6 h7h8h8q-23 -8 -42.5 -17t-35.5 -19t-28.5 -22.5t-22.5 -27.5q-8 -14 -15.5 -30.5t-11.5 -34.5t-6 -40t-2 -44v-361q0 -31 -2 -57.5t-6 -48.5q-4 -23 -10 -43.5t-15 -38.5q-8 -18 -21 -34.5t-32 -28.5q-20 -12 -45 -22.5t-53 -16.5q29 -6 52.5 -15.5t41.5 -19.5t32.5 -23.5 t22.5 -29.5t14.5 -35t10.5 -41q4 -20 7 -45t3 -52v-387q0 -20 2 -41.5t6 -42.5q4 -18 10.5 -34.5t14.5 -30.5t20.5 -26.5t28.5 -22.5t36.5 -18.5t45.5 -16.5l-82 -2q-8 2 -16 2h-17q-8 2 -16 2h-17q-14 0 -29.5 1t-29.5 3t-27.5 5t-27.5 9t-27.5 14.5t-25.5 18.5 q-12 8 -22.5 19.5t-18.5 21.5t-13 23l-8 24q-4 14 -7 27.5t-5 26.5q-2 12 -3 25t-1 28v4v6v4v6v393v11v4v4v2v4q0 2 -1 4t-1 4v2v4v13q0 6 -1 12t-3 12t-3.5 12.5t-3.5 12.5l-6 12l-6 12l-8 13q-2 2 -3 4t-1 4q-2 2 -3 4t-3 4q-2 4 -6.5 7t-6.5 5l-7 8q-3 3 -7 5l-15 11 q-7 5 -16 9q-8 4 -15 7t-17 5q-4 2 -8.5 3t-8.5 1q-6 2 -10 3.5t-8 1.5z" />
<glyph unicode="|" horiz-adv-x="1458" d="M623 0v1513h82h131v-1513h-82h-131z" />
<glyph unicode="}" horiz-adv-x="800" d="M78 -260l43 18.5t35 18.5q16 10 27.5 22.5t19.5 26.5t14 30.5t10 34.5q4 20 6.5 42t2.5 44v390q0 25 2 48t6 44q4 23 11 41t15 35q10 16 23.5 29.5t32.5 23.5q18 10 41.5 19t52.5 16q-31 6 -55.5 16t-42.5 23q-18 12 -32 28.5t-22 34.5t-14 38.5t-10 43.5t-6 49.5 t-2 52.5v4v365q0 23 -3.5 42t-7.5 38q-4 18 -10 34.5t-14 30.5t-20.5 26.5t-28.5 23.5q-14 10 -33 19t-41 17h82h4h4h2h4h8h8q41 0 76 -4t62 -14q29 -8 48 -22.5t34 -32.5q14 -18 24 -43t17 -54q6 -29 10 -63.5t4 -75.5v-342v-29q0 -14 2 -26q0 -12 2 -24.5t4 -22.5 q2 -12 6 -22.5t10 -20.5t15.5 -19.5t21.5 -19.5q4 -4 11 -8l12 -9q6 -4 12 -7l14 -7q6 -2 13.5 -5t15.5 -7q6 -2 13.5 -4l15.5 -4q-8 -2 -17.5 -3.5t-17.5 -5.5q-8 -2 -16.5 -5t-16.5 -7t-15 -9t-13 -11q-8 -6 -15 -13l-12 -12q-2 -4 -5 -8t-7 -8l-9 -13l-8 -12l-4 -12 q-2 -6 -5 -12.5t-5 -12.5t-2 -12v-12v-6v-7v-7v-7v-13v-16v-385v-10v-4v-6v-6q-2 -12 -3 -25.5t-3 -25.5q-2 -6 -3 -12.5t-1 -14.5q-2 -6 -3 -13.5t-3 -13.5q-2 -12 -8.5 -24.5t-14.5 -22.5l-17 -21q-9 -11 -22 -20l-6 -6l-6 -4l-6 -4l-7 -4q-2 0 -5 -1t-7 -3q-2 0 -5 -1 t-7 -3q-2 -2 -5 -3.5l-7 -3.5q-2 0 -5.5 -1t-5.5 -3q-6 -2 -12 -3t-12 -3q-6 0 -12.5 -1t-12.5 -3q-6 0 -12 -1t-12 -1q-8 -2 -15 -2h-12h-13q-7 0 -14 -2h-15h-13z" />
<glyph unicode="~" horiz-adv-x="1323" d="M104 532l5 5l4 6l4 8l4 8q10 20 22.5 38.5l26.5 37.5q14 18 29.5 35.5l31.5 34.5q16 16 35 28t39 21q20 8 43 12t49 4h82q10 0 20.5 -1t20.5 -3t21.5 -3t21.5 -5l11.5 -4t11.5 -2q4 -2 10 -4l12 -5q10 -2 21.5 -7t23.5 -9l9 -4l8 -4q4 -2 8 -3t8 -3l8 -4l8 -2l9 -5l8 -4 q8 -4 15 -7l16 -7q6 -2 13 -5t15 -7q16 -6 29.5 -12.5t28.5 -10.5q14 -6 26 -10l25 -8h4q2 0 4 2l2 1q2 1 4 1q6 2 12.5 5t12.5 7q4 4 10 8t12 11l22 20q11 10 19 21q10 10 19.5 22t17.5 25l6 8l6 12l2 6l4 6l3 5l4 6v4h82l86 -96l-5 -9v-4l-4 -4l-2 -4q-12 -20 -24.5 -38.5 l-26.5 -37.5q-14 -18 -31 -36l-32 -33q-16 -16 -35 -28.5t-41 -21.5q-20 -8 -43 -12t-47 -4h-82h-16q-7 0 -15 2q-8 0 -15 2t-16 4q-4 0 -9 1t-9 3t-8 3t-8 4q-6 2 -10.5 3t-8.5 3t-9 3t-9 3l-6 2l-7 4h-8l-6 4l-14 6l-13 6q-8 2 -14 4l-12 5q-2 2 -5 3t-7 3q-2 0 -5.5 1 t-5.5 3l-12 4q-6 2 -10 4q-2 2 -4 3t-4 3q-4 0 -6.5 1t-4.5 3h-4l-2 2h-4l-4 2h-4l-2 4h-4l-4 4q-4 2 -9.5 3.5t-9.5 3.5l-8 4l-8 4q-6 0 -10 2l-9 4q-4 2 -9 3t-9 3t-9 3t-9 3h-4q-3 0 -4 1t-3 1t-5 -1t-5 -3q-4 0 -6 -1l-6 -3q-14 -6 -26.5 -14t-22.5 -19l-20 -21l-19 -24 q-4 -6 -9.5 -12t-9.5 -12q-4 -8 -8 -15l-8 -12l-6 -12l-6 -10l-7 -13l-6 -8h-82z" />
<glyph unicode="&#xa0;" />
<glyph unicode="&#xa1;" horiz-adv-x="686" d="M227 -393v1122h82h152v-1122h-82h-152zM227 862v258h82h152v-258h-82h-152z" />
<glyph unicode="&#xa2;" horiz-adv-x="1216" d="M92 786q0 45 8.5 87t24.5 81t40.5 76t57.5 72t69 60.5t75 43.5t79.5 29.5t85.5 13.5v195h82h136v-191q31 -6 61.5 -15t58.5 -21q29 -12 56.5 -29t54.5 -39q27 -20 48.5 -45t39.5 -49q16 -27 30.5 -54.5t24.5 -58.5h-82l-170 4q-10 18 -22 34.5t-29 31.5 q-14 16 -32.5 28.5t-38.5 22.5t-40 17t-42 14q-10 4 -22.5 5t-24.5 3q-23 -2 -43.5 -8.5t-40.5 -14.5q-29 -12 -56.5 -29.5t-52.5 -39.5q-27 -23 -46.5 -48.5t-31.5 -54.5t-18 -59.5t-6 -63.5q0 -35 6 -67.5t18 -61.5t30.5 -55.5t45.5 -50.5q25 -25 52.5 -43.5t58.5 -30.5 q23 -8 44 -13t46 -9q10 2 19 3t18 3q10 2 19 5t19 7q8 4 18.5 8t18.5 8l36 21q17 10 32 22q16 12 31 28l28 32l164 4h82q-10 -31 -24.5 -57.5t-30.5 -51.5q-18 -25 -40 -46t-48 -40q-27 -20 -52.5 -35.5t-54.5 -27.5q-27 -12 -55.5 -19.5t-56.5 -11.5v-178h-82h-136v182 q-47 0 -90 10.5t-82 28.5t-74.5 46t-66.5 65q-33 35 -56.5 73.5t-39.5 79.5q-14 41 -22.5 85t-8.5 89z" />
<glyph unicode="&#xa3;" horiz-adv-x="1216" d="M37 709v137h149l-8 20l-8 21q-4 10 -7 22.5t-7 24.5q-2 10 -5.5 22.5t-5.5 24.5t-2 25v24v8v9v8v8v9q0 5 2 9q0 4 1 9.5t4 9.5q0 8 2 16l4 17q2 10 4 19t4 17q4 8 7 16.5t5 16.5q2 4 3 8t3 11l4 8l4 8q8 16 18 33l17 30q10 16 19.5 29.5t21.5 28.5q16 23 36 41l40 35 q23 16 45.5 29.5t46.5 23.5q25 10 49.5 18t51.5 15q27 6 54 9t56 5h82q45 -2 88 -10t84 -25q41 -14 79 -37.5t75 -54.5q35 -31 63.5 -65.5t48.5 -73.5q23 -39 35 -80t17 -86h-82l-144 4q-6 29 -16 55.5t-27 50.5q-14 25 -34.5 48.5t-45.5 44.5q-25 20 -50 35.5t-54 25.5 q-18 8 -37.5 13t-40.5 7q-27 -2 -50.5 -8t-45.5 -16q-31 -12 -59.5 -31.5t-53.5 -44.5q-27 -27 -46 -55.5t-32 -59.5q-12 -31 -18 -65.5t-4 -71.5v-4v-2v-4v-2v-6v-6v-6v-7q0 -10 2 -20l4 -21q2 -10 5 -20t5 -21q4 -10 7 -19t10 -19q4 -8 10 -17.5t14 -17.5l500 4h82v-137 h-438q16 -18 29 -37l28 -39l24 -40q12 -19 23 -42q6 -10 10 -22l8 -21l9 -24q4 -11 6 -21q4 -23 7 -46.5t3 -45.5q0 -16 -1 -31.5t-3 -32.5q-2 -14 -5 -29.5t-7 -29.5t-9.5 -29.5t-11.5 -30.5l-12 -27l-12 -28h33q17 0 34 2h19q8 0 18 2q8 0 17.5 1t17.5 1q16 2 33.5 6.5 t33.5 10.5t34 14t34 18q14 10 27 23l24 25q12 12 21.5 27.5t17.5 31.5t14.5 32.5t10.5 32.5t6 35t2 37v2v4v2v4v9v8v8v8q-2 4 -3 8t-1 9v8v8q-2 4 -3 9t-1 7q0 4 -1 8.5t-3 8.5l147 4h82q2 -8 3 -16.5t3 -16.5t3 -15t3 -16v-8q0 -4 2 -6v-7v-7v-9q0 -4 2 -6v-7v-7 q0 -27 -3 -51.5t-7 -46.5q-6 -25 -14 -46.5t-19 -43.5q-10 -20 -22 -41t-29 -39q-14 -18 -33 -35l-37 -33q-20 -16 -41.5 -29.5t-44.5 -23.5q-20 -8 -43.5 -14.5t-46.5 -10.5t-46 -7t-48 -3q-25 -2 -49 -2h-49h-82h-561v137h284q8 4 15.5 11.5t13.5 15.5t11.5 17t9.5 20 q4 10 9 20t7 21q4 10 7 21t5 22v4q0 2 2 6v5v5q0 4 1 9t3 12v8l2 12l3 8v11q-2 27 -5.5 51t-9.5 47t-15 43t-20 39l-25 34q-13 17 -30 35q-14 16 -31.5 34t-36.5 34l-4 2l-2 4h-4l-4 4l-6 6l-6 7z" />
<glyph unicode="&#xa4;" horiz-adv-x="1216" d="M53 610v34q0 17 2 34q0 8 2 16t2 17q2 6 4 14l5 16l8 29q4 14 10 29q4 8 7 15t5 15q4 6 7.5 13.5l7.5 15.5l8 12q2 4 5 8.5t5 8.5l4 8l4 8q4 4 7.5 8t5.5 9l-89 92l107 108h82l59 -57q2 2 5 3t6 3q2 0 5 1t5 3q18 10 37.5 17.5t40.5 13.5q20 6 40.5 11t41.5 7 q20 4 41.5 5t41.5 1h82q20 0 40 -2t40 -6l19.5 -4l19.5 -4q8 -2 18.5 -4t18.5 -6q10 -4 18.5 -8l18.5 -9q8 -4 17.5 -8t17.5 -8q2 -2 4 -3t6 -1q2 -2 4 -3t4 -3l62 61h82l106 -108l-88 -88l8 -17l8 -12l4 -6l5 -6l2 -6l4 -7q10 -16 17 -32.5t13 -32.5q4 -8 6.5 -16.5 t4.5 -14.5q4 -8 6 -16l4 -17q4 -16 7 -33.5t5 -33.5q2 -18 3 -37t1 -37q0 -16 -1 -31.5t-3 -29.5q-2 -8 -3 -15.5t-1 -13.5q-2 -8 -3 -15.5t-3 -13.5q-4 -14 -9 -27.5t-10 -25.5q-2 -6 -5 -13t-5 -14q-4 -6 -6 -12t-6 -12q-2 -4 -5 -9.5t-7 -9.5l-4 -8l-5 -8l-6 -8l-4 -8 l-6 -11l-6 -8l88 -82l-106 -108h-82l-56 53q-6 -4 -12 -7t-12 -7q-18 -10 -38 -18.5t-40 -14.5t-39.5 -10l-42.5 -9l-42 -4q-22 -2 -44 -2h-82q-20 0 -41.5 2t-40.5 4q-20 4 -38.5 8.5t-37.5 12.5q-18 6 -37 15l-34 18q-4 4 -9.5 6l-11.5 4l-55 -51h-82l-107 108l89 86 l-11 11l-8 12l-4 6l-4 8l-4 6l-2 6q-8 14 -15.5 28.5t-13.5 29.5q-6 16 -11 31.5t-9 29.5t-7.5 29.5t-5.5 32.5q-2 16 -3 33.5t-1 35.5zM283 602q0 -37 6 -70.5t20 -64.5q12 -31 34 -59.5t48 -55.5q27 -27 55.5 -46t61.5 -34q23 -8 46.5 -14t49.5 -10q29 4 53.5 9t47.5 15 q33 14 63.5 35t56.5 47q27 27 46.5 56.5t33.5 62.5t21.5 69t7.5 74v5q0 35 -7 67.5t-20 63.5q-12 31 -31.5 61.5t-44.5 56.5q-27 29 -55 48.5t-59 33.5q-25 10 -49.5 17.5t-53.5 9.5q-29 -2 -56.5 -8t-51.5 -17q-33 -12 -62.5 -31.5t-56.5 -45.5q-27 -27 -46 -55.5 t-32 -61.5q-14 -33 -20 -68t-6 -74v-4v-4v-2v-2v-4z" />
<glyph unicode="&#xa5;" horiz-adv-x="1216" d="M0 1513h82h166l401 -770l391 770h82h166l-297 -575h203v-127h-270l-101 -199h357v-127h-416v-485h-82h-152v485h-421v127h362l-104 199h-273v127h207z" />
<glyph unicode="&#xa6;" />
<glyph unicode="&#xa7;" horiz-adv-x="1341" d="M178 688q0 25 3 49.5t9 44.5q6 23 15.5 43.5t21.5 40.5q12 18 26.5 37t31.5 35q16 16 34.5 32.5t38.5 30.5l-12 13q-6 6 -10 14q-6 6 -11.5 15.5t-9.5 17.5t-8 17l-8 18q-4 10 -7 19t-5 18q-2 4 -3 9t-3 9t-2 9v9l-3 9v10v8v8q0 35 6.5 68t18.5 63q12 31 31.5 57.5 t46.5 49.5q25 23 53.5 40t59.5 29q31 10 63.5 16.5t67.5 6.5h82h6h8l6 -2h8h6h9l8 -2h8q29 -4 54.5 -12.5t51.5 -20.5q27 -12 51.5 -27.5t49.5 -33.5q23 -20 41 -42t30 -46q12 -25 18.5 -52.5t8.5 -58.5h-82v4h-143q-2 12 -5 24.5t-10 24.5q-6 10 -15 21.5t-19 19.5l-13 8 q-6 4 -10 9l-12 8q-6 4 -12 6q-12 6 -25.5 11t-28.5 7h-4q-2 0 -4 2h-4h-4l-12 4q-8 0 -15.5 -3t-15.5 -5q-4 0 -7 -1t-7 -3q-16 -6 -32 -15t-30 -22q-14 -12 -24.5 -27.5t-16.5 -31.5q-8 -18 -11 -36.5t-3 -41.5q0 -18 2 -34.5t8 -30.5t14.5 -25.5t18.5 -22.5 q10 -10 22.5 -19l24.5 -17l26 -17q13 -8 27 -14l258 -125l6 -8l7 -4l4 -2h4l2 -2h4q23 -12 42 -24.5l40 -27.5l40 -28q19 -14 38 -31q18 -16 32.5 -34.5t22.5 -41.5q10 -20 14 -44.5t4 -53.5v-8v-8l-2 -11v-8l-2 -8v-8l-4 -11v-8q-4 -16 -10 -34l-12 -33q-8 -16 -18 -32 l-19 -32l-22 -28q-11 -14 -23 -27q-12 -12 -25.5 -22.5t-28.5 -18.5q10 -8 20.5 -18.5t18.5 -20.5l16 -21l15 -24q4 -6 6 -12l4 -13q4 -8 6 -14l5 -12l4 -12l4 -13q2 -8 3 -14t3 -12v-11v-8v-4l2 -4v-4v-4q0 -41 -7 -77t-22 -69q-14 -33 -35.5 -61.5t-50.5 -52.5 q-29 -25 -60.5 -43.5t-66.5 -30.5t-71.5 -18.5t-77.5 -6.5l-82 -2q-45 2 -86 9.5t-78 23.5q-37 14 -70.5 38t-62.5 52q-29 31 -50.5 65t-37.5 68q-14 33 -23.5 73t-9.5 85l143 4h82q0 -31 6.5 -57.5t14.5 -48.5q10 -23 23.5 -43.5t31.5 -40.5t38.5 -36t43.5 -24 q18 -8 37.5 -12t40.5 -6q6 0 11 1t9 1q10 2 21.5 4t19.5 6q20 8 39 18.5t35 24.5t29.5 30.5t21.5 35.5q8 14 12.5 36.5t4.5 49.5q0 16 -3.5 32.5t-9.5 30.5t-15 26.5t-22 22.5l-12 11.5t-12 9.5l-14.5 11t-12.5 9q-12 10 -25 19l-28 16l-8 4l-6 4l-9 2l-6 4l-8 5l-6 4l-8 2 l-6 4l-332 176q-18 6 -33.5 15t-30.5 22q-14 10 -27.5 22.5t-23.5 26.5t-18 29.5t-15 31.5q-6 16 -8 36t-2 40zM406 713q0 -16 2 -30.5t8 -27.5q4 -12 12 -22t18 -21l20.5 -17t22.5 -17q10 -8 22.5 -15.5t27.5 -13.5h-82v4h82l315 -158q10 6 17 16l16 19q8 10 14 21l12 20 q4 10 9.5 21.5t9.5 23.5v12l4 13v6l2 6v6v6q0 18 -3 35.5t-7 32.5q-6 14 -13.5 26.5t-17.5 20.5q-10 10 -22.5 19.5t-24.5 17.5q-12 10 -26 17l-27 16h-4l-5 2h-4l-2 4l-286 149l-4 -4q-2 -2 -3 -4q-2 -2 -4 -3t-4 -3q-10 -10 -19 -22.5l-18 -24.5l-15 -28q-7 -13 -11 -28 q-4 -14 -7 -27t-5 -28v-6v-6v-4v-4z" />
<glyph unicode="&#xa8;" horiz-adv-x="837" d="M152 1255v258h81h152v-258h-82h-151zM453 1255v258h82h151v-258h-82h-151z" />
<glyph unicode="&#xa9;" horiz-adv-x="1611" d="M-12 754q0 80 13 154.5t40 144.5q29 70 71 132t99 120q57 57 120.5 100t133.5 72t144.5 43t156.5 14h82q80 0 154.5 -14.5t144.5 -42.5q70 -29 132 -72t120 -100q57 -57 100 -120t72 -132q29 -70 43 -144.5t14 -154.5q0 -82 -14.5 -157t-42.5 -144q-29 -70 -72 -133.5 t-100 -120.5t-119.5 -99.5t-132.5 -70.5q-70 -27 -144.5 -40.5t-154.5 -13.5l-82 -2q-82 2 -156.5 15.5t-144.5 40.5q-70 29 -133.5 70.5t-120.5 99.5q-57 57 -99 120.5t-71 133.5q-27 70 -40 144.5t-13 156.5zM160 754q0 -72 12 -138.5t37 -128.5q25 -61 62.5 -116.5 t88.5 -106.5t106.5 -89t117.5 -62q43 -16 89 -28.5t93 -16.5q72 -2 136.5 9t125.5 36t116.5 62.5t106.5 88.5q49 51 87 106.5t63 116.5t38 128t13 139t-13.5 136t-37.5 126q-25 61 -63 116.5t-87 106.5q-51 49 -106 87t-117 63q-51 23 -106.5 35t-114.5 14 q-59 -2 -115.5 -14.5t-107.5 -34.5q-61 -25 -116.5 -63t-107.5 -87q-51 -51 -89 -106.5t-62 -116.5q-25 -61 -37 -125.5t-12 -136.5zM367 760q0 47 7 92t21 84q14 41 36 77t50 68q29 31 63 55.5t72 39.5q39 16 83 24t96 8h82q35 0 67.5 -5t63.5 -15q31 -8 58.5 -23.5 t53.5 -34.5q25 -20 46.5 -42.5t35.5 -51.5q16 -27 26.5 -57.5t16.5 -65.5h-82l-112 5q-4 23 -12.5 42t-18.5 37q-12 18 -26.5 34t-30.5 30q-18 14 -38 24.5t-40 16.5q-6 2 -12.5 3t-12.5 3q-8 2 -14 3t-12 3q-27 -2 -49.5 -8t-43.5 -16q-29 -12 -53 -32t-45 -46 q-20 -27 -34.5 -55.5t-24.5 -59.5q-10 -33 -15.5 -66.5t-5.5 -68.5t5 -69t16 -64q10 -33 26.5 -61.5t36.5 -57.5q20 -27 45 -48.5t56 -33.5q20 -8 42.5 -14t47.5 -11q12 2 24 5.5l25 7.5q20 6 39.5 16t38.5 25q18 14 32.5 30.5t24.5 34.5t18.5 41t10.5 47v4h82h112 q-4 -37 -13 -68.5t-26 -60.5q-14 -27 -34.5 -51t-47.5 -45q-27 -20 -55.5 -35.5t-58.5 -25.5q-31 -10 -61.5 -15.5t-65.5 -5.5h-82q-49 0 -93 8.5t-85 24.5q-39 16 -74 39.5t-64 56.5q-31 33 -52 70t-38 76q-14 41 -21 85t-7 93z" />
<glyph unicode="&#xaa;" horiz-adv-x="837" d="M63 666v90h82h631v-90h-82h-631zM63 1219q0 35 5.5 65.5t17.5 56.5q12 29 29.5 54.5t40.5 48.5t49 39t53 28q29 10 60.5 16.5t64.5 6.5h82h2h4h4h6h6l28 -4q13 -2 28 -6q14 -4 27.5 -9.5l27.5 -11.5q2 -2 4 -2l1 -1l1 -1v27h82h90v-598h-82h-90v16q-2 -2 -4 -3l-2 -1 q-2 -2 -4 -3t-4 -1q-8 -4 -15.5 -7t-13.5 -5q-8 -2 -15 -4t-16 -5q-8 -2 -16 -3t-14 -1q-8 -2 -17 -2h-16h-82q-33 0 -62.5 5.5t-58.5 15.5t-55.5 27.5t-48.5 39.5q-25 23 -43.5 48.5t-30.5 52.5q-12 29 -17.5 58.5t-5.5 62.5zM236 1221q0 -25 4 -46.5t12 -41.5 q10 -20 22.5 -37t30.5 -33q16 -16 35.5 -28.5t40.5 -20.5q10 -4 21.5 -6t21.5 -4q10 2 21.5 5t21.5 7q18 8 36.5 20.5t35.5 28.5q16 16 28.5 33.5t20.5 36.5q8 18 12 39.5t4 44.5t-4 44t-12 42q-8 20 -19.5 38.5t-27.5 34.5t-35 29.5t-37 22.5q-10 4 -22.5 7t-26.5 5 q-10 -2 -21.5 -5t-21.5 -7q-20 -8 -39 -21.5t-35 -30.5q-16 -16 -28.5 -34.5t-22.5 -36.5q-8 -20 -12 -41.5t-4 -44.5z" />
<glyph unicode="&#xab;" horiz-adv-x="952" d="M82 616l231 408h82l119 -63l-192 -345l192 -344l-119 -65h-82zM436 616l232 408h82l120 -63l-192 -345l192 -344l-120 -65h-82z" />
<glyph unicode="&#xac;" />
<glyph unicode="&#xad;" horiz-adv-x="1105" />
<glyph unicode="&#xae;" horiz-adv-x="1611" d="M-12 754q0 80 13 154.5t40 144.5q29 70 71 132t99 120q57 57 120.5 100t133.5 72t144.5 43t156.5 14h82q80 0 154.5 -14.5t144.5 -42.5q70 -29 132 -72t120 -100q57 -57 100 -120t72 -132q29 -70 43 -144.5t14 -154.5q0 -82 -14.5 -157t-42.5 -144q-29 -70 -72 -133.5 t-100 -120.5t-119.5 -99.5t-132.5 -70.5q-70 -27 -144.5 -40.5t-154.5 -13.5l-82 -2q-82 2 -156.5 15.5t-144.5 40.5q-70 29 -133.5 70.5t-120.5 99.5q-57 57 -99 120.5t-71 133.5q-27 70 -40 144.5t-13 156.5zM160 754q0 -72 12 -138.5t37 -128.5q25 -61 62.5 -116.5 t88.5 -106.5t106.5 -89t117.5 -62q43 -16 89 -28.5t93 -16.5q72 -2 136.5 9t125.5 36t116.5 62.5t106.5 88.5q49 51 87 106.5t63 116.5t38 128t13 139t-13.5 136t-37.5 126q-25 61 -63 116.5t-87 106.5q-51 49 -106 87t-117 63q-51 23 -106.5 35t-114.5 14 q-59 -2 -115.5 -14.5t-107.5 -34.5q-61 -25 -116.5 -63t-107.5 -87q-51 -51 -89 -106.5t-62 -116.5q-25 -61 -37 -125.5t-12 -136.5zM475 319v875h82h381q4 0 7 -1t7 -1q2 -2 6 -2h7h7h7q2 -2 6 -2h8q6 -2 12.5 -3t12.5 -1h7h7q2 -2 6 -2h9q14 -2 27 -5t26 -8q6 -2 12 -5 t14 -5q6 -4 12.5 -6t12.5 -6q10 -6 20.5 -13.5t18.5 -17.5q10 -8 17 -19l14 -22q4 -6 6 -12t4 -10l4 -13l4 -12q4 -12 6 -24l4 -25v-6v-6v-4v-5q0 -33 -5 -60.5t-15 -49.5q-8 -23 -23.5 -41.5t-36.5 -30.5q-20 -14 -41.5 -24.5t-46.5 -16.5q-25 -8 -51 -12t-55 -4l262 -400 h-82h-127l-250 404h-114v-404h-82h-107zM664 807h163l9 -4h4h4h4h4q18 0 36.5 2t37.5 6q16 4 33.5 9t33.5 14q16 6 28.5 18t20.5 27q8 16 12.5 36.5t4.5 45.5q0 23 -4 42t-13 33q-8 16 -19 26.5t-28 18.5q-14 6 -31.5 12.5t-33.5 8.5q-8 2 -17.5 3t-17.5 3q-10 2 -18.5 3 t-18.5 1h-4h-2h-4h-4h-6h-7l-167 2v-307z" />
<glyph unicode="&#xaf;" />
<glyph unicode="&#xb0;" />
<glyph unicode="&#xb1;" horiz-adv-x="1323" d="M104 0v156h82h1033v-156h-82h-1033zM104 647v156h439v332h82h155v-332h439v-156h-439v-336h-82h-155v336h-439z" />
<glyph unicode="&#xb2;" />
<glyph unicode="&#xb3;" />
<glyph unicode="&#xb4;" horiz-adv-x="849" d="M152 1370l393 238h82l71 -119l-395 -234h-82z" />
<glyph unicode="&#xb5;" horiz-adv-x="1327" d="M129 -393v1513h82h151v-592v-34q0 -16 3 -33q0 -16 2 -32l4 -32q2 -16 5 -31.5t9 -31.5q4 -14 11 -28.5t16 -29.5q10 -20 24 -36l29 -33l33 -28q16 -13 37 -23q18 -10 39.5 -18.5t41.5 -12.5q6 -2 11.5 -3t11.5 -1q6 -2 11 -3t12 -1q10 2 20 3t18 3l19.5 4t19.5 6 q8 4 18.5 8t18.5 9l34 20q17 10 32 23q16 12 29.5 27.5t25.5 31.5q10 14 19.5 29.5t15.5 31.5l12 33q6 16 8 35q4 16 5 33.5t4 36.5q2 18 3 36.5t1 36.5v4v592h82h151v-1120h-82h-143v66q-16 -14 -34.5 -26.5t-39.5 -23.5q-25 -10 -50 -16l-52 -12q-27 -6 -55.5 -9.5 t-57.5 -3.5l-82 -2l-44 4q-22 2 -42 7q-20 2 -40.5 7t-41.5 9q-18 6 -36.5 14.5t-35.5 18.5v-426h-81h-152z" />
<glyph unicode="&#xb6;" horiz-adv-x="1236" d="M76 1112q0 20 2 41t6 41q4 23 10 42t15 40q8 20 18 38.5t23 35.5q12 16 26 31.5t31 29.5q18 16 36.5 30.5t37.5 22.5q18 10 37.5 17.5t39.5 11.5q10 2 20.5 3t20.5 3q10 0 21.5 1t21.5 3q23 2 44.5 3t45.5 3l474 4h81v-1773h-81h-152v1636h-152v-1636h-81h-152v987 q-39 -2 -76 4t-71 21q-33 14 -66 35.5t-61 50.5q-31 29 -52.5 61.5t-38.5 65.5q-14 35 -21 71.5t-7 75.5z" />
<glyph unicode="&#xb7;" />
<glyph unicode="&#xb8;" horiz-adv-x="745" d="M152 -307l90 8h82q0 -2 1 -4t1 -6q2 -2 3 -5t3 -5q4 -4 7 -9.5t9 -9.5q2 -2 5 -4t5 -4q4 0 7.5 -2t5.5 -4h1q1 0 1 -2h2q2 0 4 2l4 4q2 0 4 2l4 4q2 2 4 3t4 3l12 15q5 7 7 16q4 8 5 17t1 20q0 10 -2 19t-6 18q-2 8 -8.5 16t-12.5 14t-13 11.5t-15 9.5l-1 -1l-1 -1 q-2 0 -4 -1l-12 -8.5t-9 -7.5t-7 -8t-7 -10l-82 -2l-64 35l82 184h82h76l-49 -119h-82l4 4h4l2 2h4l6 4h6l9 5h82h8h8h12q18 2 34.5 0t31.5 -9q16 -6 28.5 -14t22.5 -20q10 -10 18.5 -23.5t14.5 -28.5q4 -16 7 -32.5t3 -34.5t-4 -35.5t-10 -34.5q-6 -16 -15.5 -31.5 t-21.5 -29.5t-26.5 -24.5t-31.5 -18.5q-14 -6 -32.5 -10.5t-36.5 -4.5l-82 -2q-18 2 -34.5 5t-33.5 8l-28 12q-14 6 -25 16q-12 8 -21.5 20.5t-17.5 26.5t-13 30t-9 32z" />
<glyph unicode="&#xb9;" />
<glyph unicode="&#xba;" horiz-adv-x="837" d="M66 666v90h81h625v-90h-82h-624zM66 1219q0 33 5 63.5t17 56.5q10 29 27.5 54.5t40.5 48.5t49 40t53 29q29 10 58.5 16.5t62.5 6.5v4h82q33 -2 62.5 -9t56.5 -20q29 -12 53 -29.5t47 -39.5q23 -25 40 -49.5t30 -53.5q10 -27 16 -57.5t6 -60.5q0 -33 -6 -62t-18 -55 q-12 -27 -30 -52.5t-40 -48.5q-23 -23 -47.5 -40t-52.5 -29q-27 -12 -56.5 -17.5t-60.5 -5.5h-82q-33 0 -61.5 5.5t-57.5 17.5q-27 10 -53.5 27.5t-48.5 39.5q-23 23 -40.5 48.5t-29.5 52.5q-12 29 -17 57.5t-5 61.5zM242 1223q0 -23 3 -44.5t11 -41.5t20.5 -38t26.5 -34 q16 -16 32.5 -28.5t37.5 -20.5q10 -4 21.5 -7t21.5 -5q10 0 17 2t16 4q4 2 8 3t8 3q18 8 36.5 20.5t33.5 28.5q16 16 26 33.5t19 38.5q8 20 12 41.5t4 44.5t-4 44t-12 40q-8 18 -18.5 36.5t-26.5 34.5q-14 16 -33 28.5t-37 20.5q-10 4 -22.5 7.5t-24.5 5.5q-6 0 -11.5 -1 t-11.5 -3t-11 -4t-11 -5q-20 -8 -37 -20t-33 -29q-14 -16 -26.5 -34.5t-20.5 -36.5t-11 -39.5t-3 -44.5z" />
<glyph unicode="&#xbb;" horiz-adv-x="952" d="M82 272l192 344l-192 345l119 63h82l231 -408l-231 -409h-82zM436 272l193 344l-193 345l121 63h82l231 -408l-231 -409h-82z" />
<glyph unicode="&#xbc;" />
<glyph unicode="&#xbd;" horiz-adv-x="1783" d="M197 1430v83h82h276v-907h-82h-111v824h-165zM424 0l680 1513h82h131l-680 -1513h-82h-131zM1036 0v82l375 334h82l4 -2h-82l4 4l4 4l4 4l22 21l24 24l21 25q11 12 22 26q10 14 17 28.5t13 29.5q4 16 7 31.5t3 31.5q0 20 -4 38.5t-12 35.5q-8 16 -18.5 31.5t-24.5 29.5 t-30.5 24.5t-34.5 16.5q-8 4 -19.5 6t-21.5 4q-10 -2 -20.5 -5t-20.5 -7q-18 -8 -34 -18.5t-28 -24.5q-14 -14 -23.5 -31.5t-15.5 -35.5t-9 -39t-3 -43v-4v-3v-4v-4h-82l-111 4v2v5v4v2v4q0 31 5.5 58.5t15.5 53.5q10 27 27.5 49.5t40.5 43.5q23 20 48 35.5t52 25.5 q29 10 60.5 15.5t66.5 5.5h82q16 0 31.5 -1.5t29.5 -3.5t28 -6l28 -8q12 -4 24 -10l25 -12l12 -9l12 -8q4 -4 10.5 -9t12.5 -11l20 -22l19 -21l8 -13q4 -6 6 -10l8 -12q4 -6 6 -12q4 -6 7 -13l4 -12q2 -8 4 -14l4 -13q4 -12 6 -25.5t2 -27.5q0 -25 -3 -47.5t-9 -42.5 t-15.5 -37.5t-21.5 -34.5q-12 -16 -25.5 -31.5t-27.5 -29.5l-28 -29q-13 -14 -30 -28l-8 -9l-8 -8l-4 -4l-2 -2l-4 -4l-4 -2l-287 -252h471v-84h-82h-625z" />
<glyph unicode="&#xbe;" />
<glyph unicode="&#xbf;" horiz-adv-x="1292" d="M135 27q0 29 3 56.5t12 51.5q6 25 18 47.5t27 42.5l31 40q15 19 32 38q8 10 16.5 19.5t16.5 19.5q10 8 19 18.5t18 18.5l33 35l34 37q8 10 16.5 19l16.5 17q6 10 14.5 19.5t16.5 19.5q14 20 24.5 43t18.5 47q8 25 12 51.5t6 57.5l152 4h82v-6v-4v-4v-2q0 -33 -4.5 -64 t-12.5 -59q-8 -29 -19 -55.5t-28 -51.5q-14 -27 -33 -51l-36 -47q-18 -23 -39 -44.5t-43 -41.5l-13 -12l-12 -13l-12 -12l-13 -8q-6 -6 -13 -12t-13 -13q-6 -8 -11.5 -14l-11.5 -12q-10 -12 -19 -25.5l-18 -27.5q-8 -14 -15 -30t-11 -34t-6 -36.5t-2 -41.5q0 -29 5 -57.5 t17 -54.5q12 -27 30.5 -51.5t43.5 -47.5t51.5 -38t52.5 -27q18 -8 37 -13.5t39 -7.5q23 2 44.5 8.5t41.5 16.5q29 12 55.5 31.5t51.5 44.5q23 27 40 54.5t29 55.5q12 29 18.5 58.5t6.5 60.5v6v6v6v7v4h82h145v-45v-11v-6l-2 -6v-2v-6v-6l-2 -4v-7q-2 -8 -3 -17t-3 -19 q-2 -8 -4 -18.5t-6 -18.5l-13 -37q-6 -18 -16 -37q-8 -16 -19 -34l-22 -34q-12 -16 -25 -30l-24 -29l-37 -32q-18 -15 -39 -27l-41 -25q-20 -12 -43 -20t-46 -14.5t-46 -10.5q-25 -4 -48.5 -7t-45.5 -3l-82 -2q-49 2 -94 11t-86 26q-41 16 -78 40.5t-70 59.5 q-33 33 -56.5 72t-39.5 79q-16 41 -24.5 86.5t-8.5 90.5zM520 862v258h82h152v-258h-82h-152z" />
<glyph unicode="&#xc0;" horiz-adv-x="1597" d="M23 0l653 1513h82h168l649 -1513h-82h-164l-219 508h-623l-219 -508h-82h-163zM522 1866l66 123h82l405 -222l-67 -118h-82zM547 645h504l-250 598z" />
<glyph unicode="&#xc1;" horiz-adv-x="1597" d="M23 0l653 1513h82h168l649 -1513h-82h-164l-219 508h-623l-219 -508h-82h-163zM526 1763l394 238h81l72 -119l-395 -233h-82zM547 645h504l-250 598z" />
<glyph unicode="&#xc2;" horiz-adv-x="1597" d="M23 0l653 1513h82h168l649 -1513h-82h-164l-219 508h-623l-219 -508h-82h-163zM395 1649l297 258h82h131l297 -258h-82h-184l-137 114l-137 -114h-82h-185zM547 645h504l-250 598z" />
<glyph unicode="&#xc3;" horiz-adv-x="1597" d="M23 0l653 1513h82h168l649 -1513h-82h-164l-219 508h-623l-219 -508h-82h-163zM463 1772l19 15l20 15l20 15.5t21 13.5l22 9q12 5 25 7q12 4 25.5 5t27.5 1h82h9q5 0 11 -2q4 0 9.5 -1t9.5 -1q10 -2 17 -3t16 -5l8 -4q4 -2 8 -2q2 -2 6 -4l8 -4q4 -2 7.5 -4t7.5 -2 q2 -2 6 -4l8 -5l8 -6l13 -6l4 -4h6l4 -4l6 -2l8 -4l10 -4l7 -4l4 2q4 2 8 3t8 3l12 8l13 8l12 8q4 4 8 7.5t8 5.5v4h82l62 -98q-6 -8 -13.5 -15.5t-15.5 -13.5l-15 -11q-7 -5 -16 -10q-8 -6 -17 -10t-20 -8q-8 -4 -16 -7t-16 -5l-13 -4h-82h-8h-10h-8h-15q-6 0 -12 2 q-6 0 -12 1t-12 3l-13 4l-12 4q-6 2 -12 5t-13 5h-6l-4 4l-6 2l-6 4l-12 7l-13 6l-8 4l-8 4l-8 4l-8 4l-9 2l-8 4l-10 2l-6 2q-8 -2 -14 -6l-13 -8q-8 -4 -14 -9t-10 -9q-6 -4 -12 -10l-9 -9h-82zM547 645h504l-250 598z" />
<glyph unicode="&#xc4;" horiz-adv-x="1597" d="M23 0l653 1513h82h168l649 -1513h-82h-164l-219 508h-623l-219 -508h-82h-163zM532 1649v258h82h152v-258h-82h-152zM547 645h504l-250 598zM834 1649v258h81h152v-258h-82h-151z" />
<glyph unicode="&#xc5;" horiz-adv-x="1597" d="M23 0l653 1513h82h168l649 -1513h-82h-164l-219 508h-623l-219 -508h-82h-163zM547 645h504l-250 598zM569 1833q0 18 3 36.5t12 35.5q6 16 16 31.5t25 29.5q14 14 29.5 24.5t31.5 16.5t33.5 10t38.5 4v4h82q18 -2 36.5 -7t34.5 -11t31.5 -16.5t30.5 -24.5 q14 -14 24.5 -29.5t16.5 -31.5t10 -35t4 -37q0 -20 -4 -37.5t-10 -34.5q-6 -16 -16.5 -31.5t-24.5 -29.5t-29.5 -24.5t-32.5 -16.5q-16 -8 -34.5 -11t-36.5 -3h-82q-20 0 -38 3t-34 11q-16 6 -31.5 16.5t-29.5 24.5t-24.5 29.5t-16.5 31.5q-8 16 -11.5 34t-3.5 38zM727 1835 q0 -12 2 -23.5t6 -21.5t10.5 -19.5t14.5 -17.5t17 -14t18 -10h2v-3h1q1 0 1 3h2q10 4 19 10t18 14q8 8 14 17.5t10 17.5q4 10 6 21.5t2 23.5q0 10 -2 21.5t-6 21.5t-10 19.5t-14 17.5t-17.5 14t-19.5 10h-2h-2q-10 -4 -19.5 -10t-17.5 -14t-14.5 -16.5t-10.5 -18.5t-6 -21.5 t-2 -21.5z" />
<glyph unicode="&#xc6;" horiz-adv-x="2113" d="M23 0l1052 1513h82h842v-137h-649v-545h626v-137h-626v-557h649v-137h-82h-801v510h-475l-356 -510h-82h-180zM737 647h379v557z" />
<glyph unicode="&#xc7;" horiz-adv-x="1746" d="M90 758q0 80 14.5 154.5t42.5 144.5q29 68 72 130t100 120q57 57 120 100t132 70q70 29 145 43t156 14h82q14 0 28.5 -1t29.5 -1q12 -2 26.5 -3t28.5 -3q29 -2 57.5 -8.5t57.5 -14.5t54.5 -17t51.5 -22q27 -12 52.5 -26.5t50.5 -30.5l8 -6l10 -6l8 -9l10 -6q4 -4 9.5 -8 l11.5 -8l4 -4q2 -2 6 -2q2 -2 5 -4t5 -4l25 -22l25 -23l24 -25q12 -12 25 -27q4 -4 6 -8t6 -6q2 -4 5 -7t5 -7q6 -6 11.5 -12.5t9.5 -12.5q4 -8 9 -15l9 -14q2 -2 4 -6t4 -6q0 -4 2 -7t4 -7v-6l5 -6l2 -7l4 -6h-82v4h-168q-20 29 -43 53.5t-47 47.5q-25 23 -53.5 43 t-61.5 37l-64.5 30.5t-66.5 24.5q-33 10 -66.5 17t-68.5 9h-8h-9h-12q-49 -4 -96 -15t-92 -30q-55 -25 -106.5 -60.5t-98.5 -82.5t-83 -98t-58 -107q-23 -55 -34 -114.5t-11 -120.5q0 -68 11 -129.5t36 -118.5t60.5 -108.5t84.5 -98.5q47 -47 99.5 -83t109.5 -58 q47 -20 97 -30.5t102 -14.5q29 2 57.5 6t54.5 10q37 10 73 23.5t71 33.5q35 18 67.5 40t59.5 46q29 25 54 53.5t48 61.5l168 4h82q-25 -49 -55.5 -92t-65.5 -82q-37 -39 -79 -72.5t-89 -62.5t-96 -50.5t-100 -35.5q-51 -10 -102.5 -17.5t-104.5 -7.5l-82 -2q-84 2 -161 15.5 t-149 40.5q-70 29 -134 69.5t-122 98.5q-57 57 -100 120.5t-72 133.5t-43 146.5t-14 160.5zM653 -307l90 8h82q0 -2 1 -4t1 -6q2 -2 3 -5t4 -5q4 -4 7 -9.5t9 -9.5q2 -2 5 -4t5 -4q4 0 7 -2t5 -4q2 0 2 -2h2q3 0 5 2l4 4q2 0 4 2l4 4q2 2 4 3t4 3l11 15q5 7 8 16q4 8 5 17 t1 20q0 10 -2 19t-6 18q-2 8 -8.5 16t-12.5 14t-13 11.5t-16 9.5l-2 -2q-2 0 -3 -1l-1 -1l-11 -7.5t-9 -7.5t-7.5 -8t-7.5 -10l-82 -2l-63 35l82 184h82h76l-50 -119h-81l4 4h4l2 2h4l6 4h6l8 5h82h8h9h12q18 2 34.5 0t30.5 -9q16 -6 28.5 -14t23.5 -20q10 -10 18 -23.5 t14 -28.5q4 -16 7.5 -32.5t3.5 -34.5t-4.5 -35.5t-10.5 -34.5q-6 -16 -15 -31.5t-22 -29.5q-12 -14 -26 -24.5t-31 -18.5q-14 -6 -32.5 -10.5t-36.5 -4.5l-82 -2q-18 2 -35 5t-33 8l-29 12q-14 6 -24 16q-12 8 -21.5 20.5t-17.5 26.5t-13.5 30t-9.5 32z" />
<glyph unicode="&#xc8;" horiz-adv-x="1179" d="M156 0v1513h82h827v-137h-676v-545h653v-137h-653v-557h676v-137h-82h-827zM313 1866l66 123h82l405 -222l-67 -118h-82z" />
<glyph unicode="&#xc9;" horiz-adv-x="1179" d="M156 0v1513h82h827v-137h-676v-545h653v-137h-653v-557h676v-137h-82h-827zM317 1763l394 238h82l71 -119l-395 -233h-82z" />
<glyph unicode="&#xca;" horiz-adv-x="1179" d="M156 0v1513h82h827v-137h-676v-545h653v-137h-653v-557h676v-137h-82h-827zM186 1649l297 258h82h131l297 -258h-82h-184l-137 114l-137 -114h-82h-185z" />
<glyph unicode="&#xcb;" horiz-adv-x="1179" d="M156 0v1513h82h827v-137h-676v-545h653v-137h-653v-557h676v-137h-82h-827zM324 1649v258h82h151v-258h-82h-151zM625 1649v258h82h151v-258h-82h-151z" />
<glyph unicode="&#xcc;" horiz-adv-x="544" d="M-4 1866l65 123h82l406 -222l-68 -118h-82zM156 0v1513h82h151v-1513h-82h-151z" />
<glyph unicode="&#xcd;" horiz-adv-x="544" d="M0 1763l393 238h82l72 -119l-395 -233h-82zM156 0v1513h82h151v-1513h-82h-151z" />
<glyph unicode="&#xce;" horiz-adv-x="544" d="M-131 1649l297 258h82h131l297 -258h-82h-184l-138 114l-137 -114h-82h-184zM156 0v1513h82h151v-1513h-82h-151z" />
<glyph unicode="&#xcf;" horiz-adv-x="544" d="M6 1649v258h82h152v-258h-82h-152zM156 0v1513h82h151v-1513h-82h-151zM307 1649v258h82h152v-258h-82h-152z" />
<glyph unicode="&#xd0;" horiz-adv-x="1699" d="M53 737v137h197v639h82h407q41 -2 81 -6l79 -8l77 -12q38 -6 77 -14q37 -8 72.5 -22.5t70.5 -31.5q35 -16 69.5 -37.5t67.5 -48.5t61.5 -56.5t53.5 -62.5t47.5 -67.5t40.5 -73.5t32.5 -77t22.5 -78l8 -41q4 -20 7 -39q2 -20 3 -41t1 -41q0 -41 -4 -81t-13 -79 q-8 -39 -20 -76t-29 -74q-16 -37 -35.5 -71.5t-42.5 -65.5q-23 -33 -49 -61.5t-55 -54.5q-33 -31 -69 -56.5t-70 -46.5q-37 -20 -74 -33.5t-74 -23.5l-78 -15.5t-79 -11.5q-39 -2 -82 -4t-86 -2h-82h-418v737h-197zM483 137h113q37 -2 74 -1t73 3q35 4 71 7.5t69 7.5 q35 4 66.5 14t64.5 25q33 14 64.5 33.5t64.5 45.5q29 23 54.5 47.5t45.5 51.5q23 27 40 55.5t32 60.5q14 31 24.5 64t18.5 65q8 35 12 69t6 71q-2 37 -6 71.5t-12 67.5q-8 35 -18.5 65.5t-24.5 61.5q-14 29 -31.5 57.5t-40.5 55.5q-20 29 -47 53l-55 47q-33 23 -65 42 t-64 34q-33 16 -65 25.5t-66 15.5l-69 8q-36 4 -71 6q-35 4 -71.5 5t-73.5 1l-113 2v-500h267v-137h-267v-600z" />
<glyph unicode="&#xd1;" horiz-adv-x="1597" d="M156 0v1513h82h204l766 -1134v1134h82h152v-1513h-82h-152l-819 1210v-1210h-82h-151zM463 1772l19 15l20 15l20 15.5t21 13.5l22 9q12 5 25 7q12 4 25.5 5t27.5 1h82h9q5 0 11 -2q4 0 9.5 -1t9.5 -1q10 -2 17 -3t16 -5l8 -4q4 -2 8 -2q2 -2 6 -4l8 -4q4 -2 7.5 -4 t7.5 -2q2 -2 6 -4l8 -5l8 -6l13 -6l4 -4h6l4 -4l6 -2l8 -4l10 -4l7 -4l4 2q4 2 8 3t8 3l12 8l13 8l12 8q4 4 8 7.5t8 5.5v4h82l62 -98q-6 -8 -13.5 -15.5t-15.5 -13.5l-15 -11q-7 -5 -16 -10q-8 -6 -17 -10t-20 -8q-8 -4 -16 -7t-16 -5l-13 -4h-82h-8h-10h-8h-15q-6 0 -12 2 q-6 0 -12 1t-12 3l-13 4l-12 4q-6 2 -12 5t-13 5h-6l-4 4l-6 2l-6 4l-12 7l-13 6l-8 4l-8 4l-8 4l-8 4l-9 2l-8 4l-10 2l-6 2q-8 -2 -14 -6l-13 -8q-8 -4 -14 -9t-10 -9q-6 -4 -12 -10l-9 -9h-82z" />
<glyph unicode="&#xd2;" />
<glyph unicode="&#xd3;" horiz-adv-x="1861" d="M90 745q0 82 14.5 158t42.5 146q29 72 74 135t105 121q59 57 123.5 100t134.5 72q72 29 147.5 43t157.5 14v4h82q80 -2 155.5 -17.5t145.5 -43.5q72 -27 136.5 -70t123.5 -98q59 -57 104 -120t76 -130q29 -70 44.5 -144.5t15.5 -156.5t-15.5 -159t-44.5 -146 q-31 -70 -74 -133.5t-102 -120.5t-123.5 -99.5t-136.5 -70.5q-70 -27 -146.5 -40.5t-158.5 -13.5l-82 -2q-80 2 -155 14.5t-144 39.5q-70 29 -135.5 69.5t-124.5 98.5q-59 55 -104.5 117.5t-75.5 131.5q-31 70 -45.5 144.5t-14.5 156.5zM324 745q0 -66 11 -127t36 -116 t61.5 -105.5t85.5 -97.5q49 -45 101.5 -81t109.5 -58q41 -16 83 -26.5t85 -14.5q66 -2 125 8t117 33q57 23 109 58.5t100 82.5q47 47 82.5 98.5t60.5 108.5q23 57 35 119.5t12 130.5q0 66 -12.5 126t-36.5 115q-25 55 -61.5 107.5t-84.5 97.5q-49 47 -101 81t-109 56 q-47 20 -98.5 31.5t-104.5 13.5q-55 -2 -107.5 -13t-99.5 -32q-57 -25 -110.5 -59.5t-100.5 -81.5t-83 -99t-58 -110q-25 -57 -36 -118.5t-11 -127.5zM657 1763l394 238h82l71 -119l-395 -233h-82z" />
<glyph unicode="&#xd4;" horiz-adv-x="1861" d="M90 745q0 82 14.5 158t42.5 146q29 72 74 135t105 121q59 57 123.5 100t134.5 72q72 29 147.5 43t157.5 14v4h82q80 -2 155.5 -17.5t145.5 -43.5q72 -27 136.5 -70t123.5 -98q59 -57 104 -120t76 -130q29 -70 44.5 -144.5t15.5 -156.5t-15.5 -159t-44.5 -146 q-31 -70 -74 -133.5t-102 -120.5t-123.5 -99.5t-136.5 -70.5q-70 -27 -146.5 -40.5t-158.5 -13.5l-82 -2q-80 2 -155 14.5t-144 39.5q-70 29 -135.5 69.5t-124.5 98.5q-59 55 -104.5 117.5t-75.5 131.5q-31 70 -45.5 144.5t-14.5 156.5zM324 745q0 -66 11 -127t36 -116 t61.5 -105.5t85.5 -97.5q49 -45 101.5 -81t109.5 -58q41 -16 83 -26.5t85 -14.5q66 -2 125 8t117 33q57 23 109 58.5t100 82.5q47 47 82.5 98.5t60.5 108.5q23 57 35 119.5t12 130.5q0 66 -12.5 126t-36.5 115q-25 55 -61.5 107.5t-84.5 97.5q-49 47 -101 81t-109 56 q-47 20 -98.5 31.5t-104.5 13.5q-55 -2 -107.5 -13t-99.5 -32q-57 -25 -110.5 -59.5t-100.5 -81.5t-83 -99t-58 -110q-25 -57 -36 -118.5t-11 -127.5zM528 1649l297 258h82h131l297 -258h-82h-184l-137 114l-137 -114h-82h-185z" />
<glyph unicode="&#xd5;" horiz-adv-x="1861" d="M90 745q0 82 14.5 158t42.5 146q29 72 74 135t105 121q59 57 123.5 100t134.5 72q72 29 147.5 43t157.5 14v4h82q80 -2 155.5 -17.5t145.5 -43.5q72 -27 136.5 -70t123.5 -98q59 -57 104 -120t76 -130q29 -70 44.5 -144.5t15.5 -156.5t-15.5 -159t-44.5 -146 q-31 -70 -74 -133.5t-102 -120.5t-123.5 -99.5t-136.5 -70.5q-70 -27 -146.5 -40.5t-158.5 -13.5l-82 -2q-80 2 -155 14.5t-144 39.5q-70 29 -135.5 69.5t-124.5 98.5q-59 55 -104.5 117.5t-75.5 131.5q-31 70 -45.5 144.5t-14.5 156.5zM324 745q0 -66 11 -127t36 -116 t61.5 -105.5t85.5 -97.5q49 -45 101.5 -81t109.5 -58q41 -16 83 -26.5t85 -14.5q66 -2 125 8t117 33q57 23 109 58.5t100 82.5q47 47 82.5 98.5t60.5 108.5q23 57 35 119.5t12 130.5q0 66 -12.5 126t-36.5 115q-25 55 -61.5 107.5t-84.5 97.5q-49 47 -101 81t-109 56 q-47 20 -98.5 31.5t-104.5 13.5q-55 -2 -107.5 -13t-99.5 -32q-57 -25 -110.5 -59.5t-100.5 -81.5t-83 -99t-58 -110q-25 -57 -36 -118.5t-11 -127.5zM594 1772l19 15l20 15q10 8 20.5 15.5t20.5 13.5l22 9q12 5 25 7q12 4 25.5 5t27.5 1h82h9q5 0 12 -2q4 0 9 -1t9 -1 q10 -2 17.5 -3t15.5 -5l8 -4q4 -2 8 -2q2 -2 6 -4l8 -4q4 -2 7.5 -4t7.5 -2q2 -2 6 -4l8 -5l8 -6l13 -6l4 -4h6l4 -4l6 -2l8 -4l11 -4l6 -4l4 2q4 2 8 3t8 3l12 8l13 8l12 8q4 4 8 7.5t8 5.5v4h82l62 -98q-6 -8 -13.5 -15.5t-15.5 -13.5l-15 -11q-7 -5 -16 -10 q-8 -6 -17 -10t-19 -8q-8 -4 -16.5 -7t-16.5 -5l-13 -4h-81h-9h-10h-8h-14q-6 0 -13 2q-6 0 -12 1t-12 3l-13 4l-12 4q-6 2 -12 5t-12 5h-7l-4 4l-6 2l-6 4l-12 7l-13 6l-8 4l-8 4l-8 4l-8 4l-9 2l-8 4l-10 2l-6 2q-8 -2 -14 -6l-13 -8q-8 -4 -14 -9t-10 -9q-6 -4 -12 -10 l-9 -9h-82z" />
<glyph unicode="&#xd6;" horiz-adv-x="1861" d="M90 745q0 82 14.5 158t42.5 146q29 72 74 135t105 121q59 57 123.5 100t134.5 72q72 29 147.5 43t157.5 14v4h82q80 -2 155.5 -17.5t145.5 -43.5q72 -27 136.5 -70t123.5 -98q59 -57 104 -120t76 -130q29 -70 44.5 -144.5t15.5 -156.5t-15.5 -159t-44.5 -146 q-31 -70 -74 -133.5t-102 -120.5t-123.5 -99.5t-136.5 -70.5q-70 -27 -146.5 -40.5t-158.5 -13.5l-82 -2q-80 2 -155 14.5t-144 39.5q-70 29 -135.5 69.5t-124.5 98.5q-59 55 -104.5 117.5t-75.5 131.5q-31 70 -45.5 144.5t-14.5 156.5zM324 745q0 -66 11 -127t36 -116 t61.5 -105.5t85.5 -97.5q49 -45 101.5 -81t109.5 -58q41 -16 83 -26.5t85 -14.5q66 -2 125 8t117 33q57 23 109 58.5t100 82.5q47 47 82.5 98.5t60.5 108.5q23 57 35 119.5t12 130.5q0 66 -12.5 126t-36.5 115q-25 55 -61.5 107.5t-84.5 97.5q-49 47 -101 81t-109 56 q-47 20 -98.5 31.5t-104.5 13.5q-55 -2 -107.5 -13t-99.5 -32q-57 -25 -110.5 -59.5t-100.5 -81.5t-83 -99t-58 -110q-25 -57 -36 -118.5t-11 -127.5zM664 1649v258h81h152v-258h-82h-151zM965 1649v258h82h151v-258h-82h-151z" />
<glyph unicode="&#xd7;" />
<glyph unicode="&#xd8;" horiz-adv-x="1859" d="M90 745q0 39 3 77t11 75q6 37 17.5 74t25.5 71q14 35 32 69t38 65l47 61q25 31 51 59q29 29 57.5 53.5t61.5 45.5q33 23 68 41t71 34q37 16 74 27.5t76 20.5q37 8 76 12t78 4h81h13h7h7l12 -2h4h5h2h4q4 0 7 -1t7 -1q2 -2 6 -2h6h14h15q10 -2 20.5 -3t20.5 -3l20 -4 l21 -5q10 -2 19.5 -5t19.5 -7q4 -2 9 -3t11 -1q4 -2 9.5 -3t11.5 -3l40 -15q19 -7 38 -16q2 0 4 -1t4 -1q0 -2 2 -3t4 -1l168 227h82l110 -88l-186 -247q33 -31 61.5 -62t53.5 -65q25 -33 47 -70t41 -76q16 -39 30.5 -80t22.5 -82q10 -41 14 -83t4 -85q0 -82 -15 -157.5 t-46 -143.5q-31 -70 -76 -131t-104 -116q-61 -55 -126 -96.5t-136 -69.5q-70 -27 -144.5 -39.5t-154.5 -14.5l-82 -2q-27 4 -54.5 6.5t-54.5 6.5q-27 2 -53.5 7t-52.5 9q-27 6 -52.5 15.5l-50.5 19.5q-4 2 -9 4t-9 6l-11.5 4t-9.5 4l-170 -225h-82l-112 84l194 260 q-33 25 -60.5 53.5t-51.5 61.5q-25 33 -46.5 67.5t-37.5 71.5q-18 37 -31.5 75t-24.5 77q-8 41 -12 81.5t-4 83.5zM324 733q0 -33 3 -64.5t11 -62.5t18.5 -59.5t24.5 -57.5q14 -27 30.5 -54t34.5 -52l18 -22l17 -21l727 969q-16 10 -33 18l-36 16q-18 8 -38 14.5t-40 10.5 l-40 8q-19 4 -40 6q-12 2 -24.5 3t-24.5 4q-57 -2 -110.5 -14.5t-102.5 -35.5q-57 -25 -108.5 -60.5t-98.5 -82.5q-47 -49 -83 -101.5t-58 -111.5q-25 -57 -36 -119.5t-11 -130.5zM639 209q18 -14 38 -25l40 -20l40 -16q19 -7 40 -11q20 -6 42 -10l42 -8q4 0 9 -1t9 -1t9 -1 t10 -1q55 4 107 14t101 31q57 23 110.5 58.5t102.5 80.5q49 47 86 97t62 106q25 55 37 115.5t12 125.5q0 35 -4 69t-10 67t-16.5 64.5t-24.5 62.5t-31.5 59.5t-38.5 54.5q-10 16 -21.5 29.5l-23.5 26.5z" />
<glyph unicode="&#xd9;" horiz-adv-x="1423" d="M156 590v923h82h151v-919v-12v-11v-11v-9v-9v-10v-9q0 -5 2 -9q0 -16 2 -32l4 -31q2 -14 5.5 -29.5l7.5 -32.5l8 -30q4 -15 10 -29t14 -29l17 -29q10 -20 24.5 -36.5t30.5 -30.5t33.5 -26.5t38.5 -22.5q20 -10 40.5 -18.5t41.5 -12.5q6 -2 11 -3t11 -1q6 -2 11.5 -3 t11.5 -1t12 1t12 3q4 0 10.5 1t12.5 3q18 4 37 12l37 17q16 8 32.5 18t30.5 23q16 12 28.5 26.5t24.5 30.5t22.5 34.5t18.5 37.5q8 18 14.5 36.5t10.5 38.5t7 40t5 40t3 40t3 40v4v4v2v4v9v8v923h82h152v-919q0 -31 -1 -59.5t-5 -57.5q-2 -29 -7 -56l-8 -54 q-4 -27 -12 -54.5t-21 -52.5q-12 -27 -26 -51.5t-33 -46.5q-18 -25 -37.5 -45.5t-42.5 -38.5t-47 -32.5t-51 -27.5q-14 -6 -28 -10l-25 -8q-14 -2 -27.5 -6t-28.5 -6q-27 -6 -56.5 -9.5t-57.5 -3.5l-82 -2q-29 2 -56.5 5.5t-56.5 9.5l-53 12q-27 6 -53 16q-27 10 -50.5 24.5 t-46.5 31.5q-23 16 -43 35.5t-37 42.5q-20 23 -36.5 47t-28.5 51t-21.5 54.5t-13.5 55.5q-6 29 -9 56.5t-7 56.5q-2 29 -3 58.5t-1 60.5zM436 1866l66 123h82l405 -222l-67 -118h-82z" />
<glyph unicode="&#xda;" horiz-adv-x="1423" d="M156 590v923h82h151v-919v-12v-11v-11v-9v-9v-10v-9q0 -5 2 -9q0 -16 2 -32l4 -31q2 -14 5.5 -29.5l7.5 -32.5l8 -30q4 -15 10 -29t14 -29l17 -29q10 -20 24.5 -36.5t30.5 -30.5t33.5 -26.5t38.5 -22.5q20 -10 40.5 -18.5t41.5 -12.5q6 -2 11 -3t11 -1q6 -2 11.5 -3 t11.5 -1t12 1t12 3q4 0 10.5 1t12.5 3q18 4 37 12l37 17q16 8 32.5 18t30.5 23q16 12 28.5 26.5t24.5 30.5t22.5 34.5t18.5 37.5q8 18 14.5 36.5t10.5 38.5t7 40t5 40t3 40t3 40v4v4v2v4v9v8v923h82h152v-919q0 -31 -1 -59.5t-5 -57.5q-2 -29 -7 -56l-8 -54 q-4 -27 -12 -54.5t-21 -52.5q-12 -27 -26 -51.5t-33 -46.5q-18 -25 -37.5 -45.5t-42.5 -38.5t-47 -32.5t-51 -27.5q-14 -6 -28 -10l-25 -8q-14 -2 -27.5 -6t-28.5 -6q-27 -6 -56.5 -9.5t-57.5 -3.5l-82 -2q-29 2 -56.5 5.5t-56.5 9.5l-53 12q-27 6 -53 16q-27 10 -50.5 24.5 t-46.5 31.5q-23 16 -43 35.5t-37 42.5q-20 23 -36.5 47t-28.5 51t-21.5 54.5t-13.5 55.5q-6 29 -9 56.5t-7 56.5q-2 29 -3 58.5t-1 60.5zM438 1763l393 238h82l72 -119l-395 -233h-82z" />
<glyph unicode="&#xdb;" horiz-adv-x="1423" d="M156 590v923h82h151v-919v-12v-11v-11v-9v-9v-10v-9q0 -5 2 -9q0 -16 2 -32l4 -31q2 -14 5.5 -29.5l7.5 -32.5l8 -30q4 -15 10 -29t14 -29l17 -29q10 -20 24.5 -36.5t30.5 -30.5t33.5 -26.5t38.5 -22.5q20 -10 40.5 -18.5t41.5 -12.5q6 -2 11 -3t11 -1q6 -2 11.5 -3 t11.5 -1t12 1t12 3q4 0 10.5 1t12.5 3q18 4 37 12l37 17q16 8 32.5 18t30.5 23q16 12 28.5 26.5t24.5 30.5t22.5 34.5t18.5 37.5q8 18 14.5 36.5t10.5 38.5t7 40t5 40t3 40t3 40v4v4v2v4v9v8v923h82h152v-919q0 -31 -1 -59.5t-5 -57.5q-2 -29 -7 -56l-8 -54 q-4 -27 -12 -54.5t-21 -52.5q-12 -27 -26 -51.5t-33 -46.5q-18 -25 -37.5 -45.5t-42.5 -38.5t-47 -32.5t-51 -27.5q-14 -6 -28 -10l-25 -8q-14 -2 -27.5 -6t-28.5 -6q-27 -6 -56.5 -9.5t-57.5 -3.5l-82 -2q-29 2 -56.5 5.5t-56.5 9.5l-53 12q-27 6 -53 16q-27 10 -50.5 24.5 t-46.5 31.5q-23 16 -43 35.5t-37 42.5q-20 23 -36.5 47t-28.5 51t-21.5 54.5t-13.5 55.5q-6 29 -9 56.5t-7 56.5q-2 29 -3 58.5t-1 60.5zM309 1649l297 258h82h131l297 -258h-82h-184l-137 114l-138 -114h-81h-185z" />
<glyph unicode="&#xdc;" horiz-adv-x="1423" d="M156 590v923h82h151v-919v-12v-11v-11v-9v-9v-10v-9q0 -5 2 -9q0 -16 2 -32l4 -31q2 -14 5.5 -29.5l7.5 -32.5l8 -30q4 -15 10 -29t14 -29l17 -29q10 -20 24.5 -36.5t30.5 -30.5t33.5 -26.5t38.5 -22.5q20 -10 40.5 -18.5t41.5 -12.5q6 -2 11 -3t11 -1q6 -2 11.5 -3 t11.5 -1t12 1t12 3q4 0 10.5 1t12.5 3q18 4 37 12l37 17q16 8 32.5 18t30.5 23q16 12 28.5 26.5t24.5 30.5t22.5 34.5t18.5 37.5q8 18 14.5 36.5t10.5 38.5t7 40t5 40t3 40t3 40v4v4v2v4v9v8v923h82h152v-919q0 -31 -1 -59.5t-5 -57.5q-2 -29 -7 -56l-8 -54 q-4 -27 -12 -54.5t-21 -52.5q-12 -27 -26 -51.5t-33 -46.5q-18 -25 -37.5 -45.5t-42.5 -38.5t-47 -32.5t-51 -27.5q-14 -6 -28 -10l-25 -8q-14 -2 -27.5 -6t-28.5 -6q-27 -6 -56.5 -9.5t-57.5 -3.5l-82 -2q-29 2 -56.5 5.5t-56.5 9.5l-53 12q-27 6 -53 16q-27 10 -50.5 24.5 t-46.5 31.5q-23 16 -43 35.5t-37 42.5q-20 23 -36.5 47t-28.5 51t-21.5 54.5t-13.5 55.5q-6 29 -9 56.5t-7 56.5q-2 29 -3 58.5t-1 60.5zM444 1649v258h82h152v-258h-82h-152zM745 1649v258h82h152v-258h-82h-152z" />
<glyph unicode="&#xdd;" />
<glyph unicode="&#xde;" horiz-adv-x="1294" d="M156 0v1513h82h151v-305h246l52 -4l52 -4l53 -4l52 -4q27 -2 52.5 -8t49.5 -17q25 -8 48.5 -19t45.5 -26q25 -14 46.5 -32.5t39.5 -38.5t34 -42t28 -46q12 -25 21.5 -50.5t15.5 -52.5t10 -54.5t4 -55.5q0 -27 -3 -51.5t-7 -49.5q-6 -25 -14.5 -49.5t-18.5 -46.5 q-10 -23 -23.5 -44.5t-29.5 -39.5q-16 -20 -34.5 -36.5t-41.5 -33.5q-23 -16 -46.5 -29.5t-45.5 -23.5l-25 -8q-12 -4 -22 -8q-12 -4 -24.5 -7.5t-24.5 -5.5l-25 -4l-25 -4q-14 0 -26 -2t-25 -2q-27 -2 -52.5 -3t-51.5 -1h-82v4h-203v-305h-82h-151zM389 442h260h4h4 q2 -2 5 -2h4h4q2 0 6 2h4h4q10 0 20.5 1t20.5 3q10 0 19.5 2.5t19.5 4.5q8 2 18.5 5t18.5 7l18 7l19 7q8 6 17 10.5t17 10.5q16 10 28.5 20t25.5 23q12 12 23.5 27.5t19.5 31.5t14 32.5t10 33.5q4 16 7.5 34.5t5.5 36.5v2v4v3v4q0 25 -3.5 48t-9.5 44q-6 23 -15 42t-22 38 q-12 18 -27.5 33.5t-31.5 29.5q-18 14 -37.5 26.5t-42.5 20.5l-12 4l-12 4l-13 5q-6 2 -10 4q-6 2 -12 3t-13 3q-6 0 -12 1t-12 3h-5q-3 0 -7 2h-6h-7h-5q-3 0 -7 2h-5h-7h-7q-3 0 -8 2h-5h-7h-12h-12h-9h-8h-10h-8h-8h-9h-8h-8h-6h-6h-9h-6h-12h-12l-113 2v-627z" />
<glyph unicode="&#xdf;" horiz-adv-x="1216" d="M121 0v958v11v12v12v13v12v12v13q0 7 2 16q0 16 1 33.5t3 35.5q0 10 1 18.5t3 18.5q2 8 3 17.5t3 17.5l8 34q4 17 11 34q6 16 15 33.5t19 33.5q14 23 31 43.5t35 38.5t40.5 33.5t47.5 30.5q25 12 49.5 22t50.5 17q25 6 51.5 10t53.5 4h82q43 0 83 -8t77 -25 q37 -14 70.5 -38.5t64.5 -55.5q31 -33 54.5 -67.5t37.5 -71.5q16 -37 23.5 -77t7.5 -81q0 -25 -3.5 -49.5t-7.5 -46.5q-6 -23 -13 -44.5t-17 -43.5q-10 -20 -23.5 -41t-30.5 -37q-16 -16 -35.5 -30.5t-41.5 -24.5q33 -12 61.5 -26.5t54.5 -33.5q25 -18 47.5 -39.5 t40.5 -46.5q18 -27 32.5 -54.5t23.5 -55.5q10 -31 14 -63t4 -66q0 -23 -2 -44.5t-6 -41.5q-2 -20 -7 -40t-12 -38q-6 -18 -15 -37t-19 -35q-12 -18 -25.5 -34.5t-30.5 -33.5q-14 -14 -31 -28l-34 -27q-16 -12 -34.5 -22.5t-39.5 -20.5q-20 -6 -39.5 -11t-42.5 -9 q-20 -4 -41.5 -7.5t-44.5 -3.5l-82 -2h-6h-4l-6 2h-6h-13h-10q-27 4 -54.5 10.5t-51.5 14.5q-27 8 -51.5 20.5t-47.5 28.5l-27 21q-13 10 -26 22v-92h-82h-143zM354 416h101v-6v-2v-5v-4v-2q0 -27 5 -52.5t13 -49.5q10 -25 24.5 -47.5t34.5 -44.5q18 -23 40 -40.5t46 -27.5 q16 -6 32 -10l32 -8q18 4 35.5 7t34.5 11q25 10 47 26.5t43 37.5q20 23 35.5 45t23.5 49q10 25 15.5 53.5t5.5 59.5q0 23 -3.5 42t-9.5 39t-15 39t-22 37q-12 16 -25 31.5t-30 28.5q-14 12 -32.5 23t-39.5 20q-12 4 -24 9t-25 7q-12 4 -24.5 5t-24.5 3h-5q-3 0 -7 2h-5h-7 h-6q-3 0 -7 2h-5h-7h-4h-2h-4h-4h-4h-82h-9h-10h-8l-14 4v138h82h12h5q3 0 5 2q2 0 5 1t5 1q12 2 23.5 5t21.5 5q10 4 21.5 7t21.5 7t20.5 10.5t20.5 14.5q14 10 26.5 20.5t23.5 22.5q10 12 19 26.5l17 28.5l13 30q6 15 8 32q4 16 6 32.5t2 32.5q0 29 -5 53.5t-15 49.5 q-8 25 -23.5 47t-34.5 43q-20 20 -41.5 35.5t-44.5 25.5q-14 6 -30.5 11t-32.5 7q-4 0 -9.5 -1t-9.5 -3t-9 -3t-9 -1q-18 -6 -34.5 -14t-33.5 -18q-16 -10 -30.5 -22.5t-26.5 -29.5q-12 -14 -21.5 -30.5t-17.5 -34.5q-4 -10 -7 -20.5t-7 -20.5q-2 -8 -4 -20l-4 -21 q-2 -10 -3.5 -21.5t-3.5 -21.5t-2 -22v-21l-2 -12v-11v-12v-12v-13v-12v-11v-9v-4v-4v-5v-2v-538z" />
<glyph unicode="&#xe0;" horiz-adv-x="1480" d="M86 563q0 29 2 56.5t8 54.5t14.5 52.5t18.5 51.5q10 25 23.5 49.5t27.5 44.5l33 43q16 20 35 41q20 20 41.5 39t44.5 35t48.5 31.5t51.5 28.5q27 12 55.5 21t61.5 15q31 6 64.5 10.5t70.5 4.5h82h4h2h4q33 -2 64.5 -6.5t62.5 -12.5t60.5 -18t58.5 -25q29 -14 54.5 -31.5 t45.5 -39.5v112h82h146v-1120h-82h-146v100q-23 -23 -48 -40t-54 -31t-59 -23l-62 -16q-33 -6 -64.5 -10.5t-64.5 -4.5l-82 -2q-4 2 -9 2h-9q-4 2 -9 2h-10h-8h-8q-4 2 -8 3h-8q-4 0 -8.5 1t-8.5 1q-6 2 -10 3t-8 1q-8 2 -16.5 3t-16.5 3q-25 4 -48.5 10t-45.5 14l-46 21 q-24 10 -46 24q-23 14 -44.5 29.5t-43.5 34.5l-42 39q-22 20 -40 43l-11 10l-3 3q-1 1 -1 3q-2 2 -3 4t-3 4q-2 4 -5 8.5t-7 8.5q-2 4 -4 9t-4 11q-8 12 -15 27l-12 29l-12 33q-6 17 -11 38q-6 18 -9 39t-7 41q-2 23 -3 44t-1 44zM319 551q0 -45 8.5 -88t24.5 -82t43 -75 t60 -66q35 -33 71.5 -55.5t75.5 -39.5q31 -12 62.5 -18t64.5 -10q33 4 64.5 11t60.5 19q39 16 74 40t67 57q33 33 57.5 67.5t39.5 73.5q16 37 24 78t8 86q0 47 -8 90t-24 82q-14 41 -38 75.5t-55 67.5q-33 33 -67.5 57.5t-73.5 41.5q-33 12 -67.5 20t-71.5 10 q-33 -4 -63.5 -12t-59.5 -18q-39 -14 -76 -39t-69 -58q-33 -33 -57.5 -67.5t-41.5 -75.5q-16 -39 -24.5 -82t-8.5 -90zM465 1473l65 122h82l406 -221l-68 -119h-82z" />
<glyph unicode="&#xe1;" horiz-adv-x="1480" d="M86 563q0 29 2 56.5t8 54.5t14.5 52.5t18.5 51.5q10 25 23.5 49.5t27.5 44.5l33 43q16 20 35 41q20 20 41.5 39t44.5 35t48.5 31.5t51.5 28.5q27 12 55.5 21t61.5 15q31 6 64.5 10.5t70.5 4.5h82h4h2h4q33 -2 64.5 -6.5t62.5 -12.5t60.5 -18t58.5 -25q29 -14 54.5 -31.5 t45.5 -39.5v112h82h146v-1120h-82h-146v100q-23 -23 -48 -40t-54 -31t-59 -23l-62 -16q-33 -6 -64.5 -10.5t-64.5 -4.5l-82 -2q-4 2 -9 2h-9q-4 2 -9 2h-10h-8h-8q-4 2 -8 3h-8q-4 0 -8.5 1t-8.5 1q-6 2 -10 3t-8 1q-8 2 -16.5 3t-16.5 3q-25 4 -48.5 10t-45.5 14l-46 21 q-24 10 -46 24q-23 14 -44.5 29.5t-43.5 34.5l-42 39q-22 20 -40 43l-11 10l-3 3q-1 1 -1 3q-2 2 -3 4t-3 4q-2 4 -5 8.5t-7 8.5q-2 4 -4 9t-4 11q-8 12 -15 27l-12 29l-12 33q-6 17 -11 38q-6 18 -9 39t-7 41q-2 23 -3 44t-1 44zM319 551q0 -45 8.5 -88t24.5 -82t43 -75 t60 -66q35 -33 71.5 -55.5t75.5 -39.5q31 -12 62.5 -18t64.5 -10q33 4 64.5 11t60.5 19q39 16 74 40t67 57q33 33 57.5 67.5t39.5 73.5q16 37 24 78t8 86q0 47 -8 90t-24 82q-14 41 -38 75.5t-55 67.5q-33 33 -67.5 57.5t-73.5 41.5q-33 12 -67.5 20t-71.5 10 q-33 -4 -63.5 -12t-59.5 -18q-39 -14 -76 -39t-69 -58q-33 -33 -57.5 -67.5t-41.5 -75.5q-16 -39 -24.5 -82t-8.5 -90zM467 1370l393 238h82l72 -119l-396 -234h-81z" />
<glyph unicode="&#xe2;" horiz-adv-x="1480" d="M86 563q0 29 2 56.5t8 54.5t14.5 52.5t18.5 51.5q10 25 23.5 49.5t27.5 44.5l33 43q16 20 35 41q20 20 41.5 39t44.5 35t48.5 31.5t51.5 28.5q27 12 55.5 21t61.5 15q31 6 64.5 10.5t70.5 4.5h82h4h2h4q33 -2 64.5 -6.5t62.5 -12.5t60.5 -18t58.5 -25q29 -14 54.5 -31.5 t45.5 -39.5v112h82h146v-1120h-82h-146v100q-23 -23 -48 -40t-54 -31t-59 -23l-62 -16q-33 -6 -64.5 -10.5t-64.5 -4.5l-82 -2q-4 2 -9 2h-9q-4 2 -9 2h-10h-8h-8q-4 2 -8 3h-8q-4 0 -8.5 1t-8.5 1q-6 2 -10 3t-8 1q-8 2 -16.5 3t-16.5 3q-25 4 -48.5 10t-45.5 14l-46 21 q-24 10 -46 24q-23 14 -44.5 29.5t-43.5 34.5l-42 39q-22 20 -40 43l-11 10l-3 3q-1 1 -1 3q-2 2 -3 4t-3 4q-2 4 -5 8.5t-7 8.5q-2 4 -4 9t-4 11q-8 12 -15 27l-12 29l-12 33q-6 17 -11 38q-6 18 -9 39t-7 41q-2 23 -3 44t-1 44zM319 551q0 -45 8.5 -88t24.5 -82t43 -75 t60 -66q35 -33 71.5 -55.5t75.5 -39.5q31 -12 62.5 -18t64.5 -10q33 4 64.5 11t60.5 19q39 16 74 40t67 57q33 33 57.5 67.5t39.5 73.5q16 37 24 78t8 86q0 47 -8 90t-24 82q-14 41 -38 75.5t-55 67.5q-33 33 -67.5 57.5t-73.5 41.5q-33 12 -67.5 20t-71.5 10 q-33 -4 -63.5 -12t-59.5 -18q-39 -14 -76 -39t-69 -58q-33 -33 -57.5 -67.5t-41.5 -75.5q-16 -39 -24.5 -82t-8.5 -90zM338 1255l297 258h82h131l297 -258h-82h-184l-138 115l-137 -115h-82h-184z" />
<glyph unicode="&#xe3;" horiz-adv-x="1480" d="M86 563q0 29 2 56.5t8 54.5t14.5 52.5t18.5 51.5q10 25 23.5 49.5t27.5 44.5l33 43q16 20 35 41q20 20 41.5 39t44.5 35t48.5 31.5t51.5 28.5q27 12 55.5 21t61.5 15q31 6 64.5 10.5t70.5 4.5h82h4h2h4q33 -2 64.5 -6.5t62.5 -12.5t60.5 -18t58.5 -25q29 -14 54.5 -31.5 t45.5 -39.5v112h82h146v-1120h-82h-146v100q-23 -23 -48 -40t-54 -31t-59 -23l-62 -16q-33 -6 -64.5 -10.5t-64.5 -4.5l-82 -2q-4 2 -9 2h-9q-4 2 -9 2h-10h-8h-8q-4 2 -8 3h-8q-4 0 -8.5 1t-8.5 1q-6 2 -10 3t-8 1q-8 2 -16.5 3t-16.5 3q-25 4 -48.5 10t-45.5 14l-46 21 q-24 10 -46 24q-23 14 -44.5 29.5t-43.5 34.5l-42 39q-22 20 -40 43l-11 10l-3 3q-1 1 -1 3q-2 2 -3 4t-3 4q-2 4 -5 8.5t-7 8.5q-2 4 -4 9t-4 11q-8 12 -15 27l-12 29l-12 33q-6 17 -11 38q-6 18 -9 39t-7 41q-2 23 -3 44t-1 44zM319 551q0 -45 8.5 -88t24.5 -82t43 -75 t60 -66q35 -33 71.5 -55.5t75.5 -39.5q31 -12 62.5 -18t64.5 -10q33 4 64.5 11t60.5 19q39 16 74 40t67 57q33 33 57.5 67.5t39.5 73.5q16 37 24 78t8 86q0 47 -8 90t-24 82q-14 41 -38 75.5t-55 67.5q-33 33 -67.5 57.5t-73.5 41.5q-33 12 -67.5 20t-71.5 10 q-33 -4 -63.5 -12t-59.5 -18q-39 -14 -76 -39t-69 -58q-33 -33 -57.5 -67.5t-41.5 -75.5q-16 -39 -24.5 -82t-8.5 -90zM403 1378l20 16l19 15q10 8 20.5 15.5t20.5 13.5l23 9q12 5 24 7q12 4 25.5 5t28.5 1h82h9q5 0 11 -2q4 0 9 -1t10 -1q10 -2 17 -3t15 -5l8 -4q4 -2 9 -2 q2 -2 6 -4l8 -4q4 -2 7 -4.5t7 -2.5q2 -2 6 -4l9 -4l8 -6l12 -6l4 -4h6l4 -4l7 -2l8 -4l10 -4l6 -5l4 2q4 2 8.5 3.5t8.5 3.5l12 8l12 8l13 8q4 4 8 7l8 6v4h82l61 -99q-6 -8 -13 -15t-15 -13l-16 -12q-7 -5 -15 -9q-8 -6 -17.5 -10l-19.5 -8q-8 -4 -16.5 -7.5t-16.5 -5.5 l-12 -4h-82h-8h-10h-9h-14q-6 0 -12 2q-6 0 -12.5 1t-12.5 3l-12 5l-12 4q-6 2 -12.5 5t-12.5 5h-6l-4 4l-6 2l-6 4l-13 6l-12 6l-8 5l-8 4l-9 4l-8 4l-8 2l-8 4l-10 2l-7 2q-8 -2 -14 -6l-12 -8q-8 -4 -14.5 -9.5t-10.5 -9.5q-6 -4 -11 -9l-9 -9h-82z" />
<glyph unicode="&#xe4;" horiz-adv-x="1480" d="M86 563q0 29 2 56.5t8 54.5t14.5 52.5t18.5 51.5q10 25 23.5 49.5t27.5 44.5l33 43q16 20 35 41q20 20 41.5 39t44.5 35t48.5 31.5t51.5 28.5q27 12 55.5 21t61.5 15q31 6 64.5 10.5t70.5 4.5h82h4h2h4q33 -2 64.5 -6.5t62.5 -12.5t60.5 -18t58.5 -25q29 -14 54.5 -31.5 t45.5 -39.5v112h82h146v-1120h-82h-146v100q-23 -23 -48 -40t-54 -31t-59 -23l-62 -16q-33 -6 -64.5 -10.5t-64.5 -4.5l-82 -2q-4 2 -9 2h-9q-4 2 -9 2h-10h-8h-8q-4 2 -8 3h-8q-4 0 -8.5 1t-8.5 1q-6 2 -10 3t-8 1q-8 2 -16.5 3t-16.5 3q-25 4 -48.5 10t-45.5 14l-46 21 q-24 10 -46 24q-23 14 -44.5 29.5t-43.5 34.5l-42 39q-22 20 -40 43l-11 10l-3 3q-1 1 -1 3q-2 2 -3 4t-3 4q-2 4 -5 8.5t-7 8.5q-2 4 -4 9t-4 11q-8 12 -15 27l-12 29l-12 33q-6 17 -11 38q-6 18 -9 39t-7 41q-2 23 -3 44t-1 44zM319 551q0 -45 8.5 -88t24.5 -82t43 -75 t60 -66q35 -33 71.5 -55.5t75.5 -39.5q31 -12 62.5 -18t64.5 -10q33 4 64.5 11t60.5 19q39 16 74 40t67 57q33 33 57.5 67.5t39.5 73.5q16 37 24 78t8 86q0 47 -8 90t-24 82q-14 41 -38 75.5t-55 67.5q-33 33 -67.5 57.5t-73.5 41.5q-33 12 -67.5 20t-71.5 10 q-33 -4 -63.5 -12t-59.5 -18q-39 -14 -76 -39t-69 -58q-33 -33 -57.5 -67.5t-41.5 -75.5q-16 -39 -24.5 -82t-8.5 -90zM473 1255v258h82h152v-258h-82h-152zM774 1255v258h82h152v-258h-82h-152z" />
<glyph unicode="&#xe5;" horiz-adv-x="1480" d="M86 563q0 29 2 56.5t8 54.5t14.5 52.5t18.5 51.5q10 25 23.5 49.5t27.5 44.5l33 43q16 20 35 41q20 20 41.5 39t44.5 35t48.5 31.5t51.5 28.5q27 12 55.5 21t61.5 15q31 6 64.5 10.5t70.5 4.5h82h4h2h4q33 -2 64.5 -6.5t62.5 -12.5t60.5 -18t58.5 -25q29 -14 54.5 -31.5 t45.5 -39.5v112h82h146v-1120h-82h-146v100q-23 -23 -48 -40t-54 -31t-59 -23l-62 -16q-33 -6 -64.5 -10.5t-64.5 -4.5l-82 -2q-4 2 -9 2h-9q-4 2 -9 2h-10h-8h-8q-4 2 -8 3h-8q-4 0 -8.5 1t-8.5 1q-6 2 -10 3t-8 1q-8 2 -16.5 3t-16.5 3q-25 4 -48.5 10t-45.5 14l-46 21 q-24 10 -46 24q-23 14 -44.5 29.5t-43.5 34.5l-42 39q-22 20 -40 43l-11 10l-3 3q-1 1 -1 3q-2 2 -3 4t-3 4q-2 4 -5 8.5t-7 8.5q-2 4 -4 9t-4 11q-8 12 -15 27l-12 29l-12 33q-6 17 -11 38q-6 18 -9 39t-7 41q-2 23 -3 44t-1 44zM319 551q0 -45 8.5 -88t24.5 -82t43 -75 t60 -66q35 -33 71.5 -55.5t75.5 -39.5q31 -12 62.5 -18t64.5 -10q33 4 64.5 11t60.5 19q39 16 74 40t67 57q33 33 57.5 67.5t39.5 73.5q16 37 24 78t8 86q0 47 -8 90t-24 82q-14 41 -38 75.5t-55 67.5q-33 33 -67.5 57.5t-73.5 41.5q-33 12 -67.5 20t-71.5 10 q-33 -4 -63.5 -12t-59.5 -18q-39 -14 -76 -39t-69 -58q-33 -33 -57.5 -67.5t-41.5 -75.5q-16 -39 -24.5 -82t-8.5 -90zM512 1440q0 18 3 36.5t11 34.5q6 16 16.5 32t24.5 30t29.5 24.5t32.5 16.5q16 6 33.5 10t37.5 4v4h82q18 -2 37 -7t35 -11t31.5 -16.5t29.5 -24.5 t24.5 -29.5t16.5 -32.5q6 -16 10.5 -34.5t4.5 -36.5q0 -20 -4 -38t-11 -34q-6 -16 -16 -31.5t-25 -29.5q-14 -14 -29.5 -24.5t-31.5 -16.5q-16 -8 -34.5 -11.5t-37.5 -3.5h-82q-20 0 -37.5 3t-33.5 12q-16 6 -31.5 16t-30.5 25q-14 14 -24.5 29.5t-16.5 31.5q-8 16 -11 34 t-3 38zM670 1442q0 -12 2 -23.5t6 -21.5t10 -19.5t14 -17.5t17.5 -14.5t17.5 -10.5h2v-2h1q1 0 1 2h2q10 4 19.5 10.5t17.5 14.5t14.5 17t10.5 18q4 10 6 21t2 24q0 10 -2 21.5t-6 21.5t-10.5 19t-14.5 18q-8 8 -17 14t-20 10h-2h-2q-10 -4 -19 -10t-18 -14q-8 -8 -14 -16.5 t-10 -18.5t-6 -21.5t-2 -21.5z" />
<glyph unicode="&#xe6;" horiz-adv-x="2451" d="M86 553q0 29 2 58.5t8 58.5t15.5 58.5t21.5 55.5q12 29 26.5 53.5l30.5 49.5t37 47l41 43q23 23 46.5 41t47.5 33q25 16 50.5 29.5t52.5 21.5q27 10 54 16l56 12q29 4 60 7.5t61 3.5h82q16 0 31.5 -1t32.5 -3l30.5 -4.5t30.5 -6.5q31 -6 60.5 -16t58.5 -25 q29 -14 55.5 -30.5t48.5 -36.5h2v-2v129h82h144v-127q12 10 25.5 19.5t27.5 17.5l44 23q22 11 44 20q23 10 45 16l45 12h4q2 0 4 2h2h4q4 0 8.5 1t8.5 4l12 2h4q2 0 4 2h4h5h4h4h2h4h4q2 0 4 2h4h4l13 2h81h9h8q33 0 64.5 -4t64.5 -13l32 -8q15 -4 31 -10l30.5 -12.5 l31.5 -12.5q31 -14 58.5 -32.5t53.5 -38.5q25 -20 48.5 -43t44.5 -47q18 -23 33.5 -46.5t27.5 -48.5t21.5 -50t17.5 -52l12 -53q6 -27 8 -56q2 -16 3.5 -35.5t3.5 -37.5v-18v-19h-1010q2 -41 11 -79t28 -73q18 -33 42.5 -64.5t57.5 -60.5t67 -50t68 -36q25 -8 51.5 -14 t53.5 -10h4q29 2 54.5 8t51.5 14q27 10 52.5 23.5t50.5 30.5q25 16 45 34.5t39 38.5q18 23 32.5 45.5t24.5 48.5l158 5h82q-14 -45 -34 -86t-46 -76q-27 -35 -59.5 -66t-71.5 -57q-39 -27 -80 -48.5t-82 -31.5q-43 -10 -86 -17.5t-88 -7.5l-82 -2q-33 2 -63.5 6.5 t-59.5 10.5q-31 6 -59.5 14t-57.5 21q-29 14 -55.5 30.5t-50.5 34.5l-3 3q-1 1 -3 1v-121h-82h-144v121q-2 0 -3 -1t-1 -3l-3 -3q-1 -1 -3 -1q-25 -20 -50.5 -35.5t-51.5 -27.5q-27 -12 -56.5 -19.5t-60.5 -13.5t-61.5 -10.5t-63.5 -4.5l-82 -2q-31 2 -59.5 5.5t-57.5 7.5 q-27 4 -54 9t-54 13q-27 10 -52.5 21.5t-49.5 25.5q-25 16 -47.5 33.5t-45.5 38.5l-41 42q-20 22 -36 46q-18 25 -33 51.5t-27 55.5t-21.5 56.5t-15.5 55.5q-6 29 -9 58.5t-3 60.5zM319 545q0 -45 8.5 -87t24.5 -81t41 -73t58 -64q33 -33 68.5 -55.5t74.5 -39.5 q29 -10 56.5 -16t54.5 -10q41 0 78.5 6t70.5 20q41 16 76 39t67 56q33 31 57.5 66.5t41.5 74.5q16 41 24 84t8 90t-8 91t-24 83q-16 41 -41 76t-58 65q-33 31 -67.5 54.5t-75.5 38.5q-31 12 -64.5 20t-70.5 10q-35 -2 -69 -10t-64 -20q-39 -16 -75 -41t-67 -58 q-33 -33 -55 -68.5t-39 -76.5q-14 -39 -22.5 -83t-8.5 -91zM1366 641h764q-4 35 -15.5 68.5t-29.5 66.5q-18 31 -43 59.5t-55 55.5q-33 27 -66 46t-68 32q-25 10 -50 16t-52 8q-14 -2 -26.5 -3t-24.5 -3q-20 -4 -42 -10t-40 -14q-20 -8 -38.5 -18.5t-35.5 -22.5 q-18 -14 -35.5 -29.5t-33.5 -32.5q-12 -12 -21.5 -24.5l-19.5 -24.5l-18 -26q-9 -13 -15 -27q-8 -14 -13.5 -27.5t-9.5 -30.5q-2 -6 -4 -14t-4 -14q0 -8 -2 -16.5t-2 -14.5z" />
<glyph unicode="&#xe7;" horiz-adv-x="1406" d="M86 557q0 61 11.5 119.5t33.5 109.5q23 53 57.5 99.5t79.5 87.5t94.5 72.5t102.5 52.5q53 23 109.5 33t117.5 10h82q45 0 88 -6.5t84 -18.5t82 -30.5t80 -43.5t71.5 -53t59.5 -63q29 -33 50.5 -71t37.5 -79h-82l-170 4q-14 23 -31.5 44.5t-37.5 41.5l-43 37 q-23 18 -50 33q-27 14 -52 24.5t-54 18.5l-37 8q-18 4 -39 6q-33 -2 -65.5 -10t-63.5 -20q-39 -14 -76 -38t-71 -55q-33 -31 -59.5 -65.5t-43.5 -73.5q-16 -39 -24.5 -82t-8.5 -90t8.5 -90t24.5 -82t40 -75t57 -68q33 -33 68.5 -56.5t74.5 -40.5q31 -14 63.5 -21t67.5 -9 q23 2 42 4t38 6q29 6 54.5 16.5t49.5 24.5q23 12 45.5 28.5t42.5 36.5q23 18 42.5 41t37.5 50v4h82h168q-20 -43 -42.5 -80t-51.5 -70q-27 -33 -58.5 -61.5t-66.5 -50.5q-37 -25 -75 -42.5t-79 -25.5q-41 -10 -84 -16.5t-88 -6.5l-82 -2q-63 2 -121.5 12.5t-111.5 26.5 q-55 20 -104.5 51t-94.5 72t-78.5 89t-56.5 100q-23 53 -34 111.5t-11 121.5zM483 -307l90 8h82q0 -2 1 -4t1 -6q2 -2 3.5 -5t3.5 -5q4 -4 7 -9.5t9 -9.5q2 -2 5 -4t5 -4q4 0 7 -2t5 -4h1q1 0 2 -2h2q2 0 4 2l4 4q2 0 4 2l4 4q2 2 4 3t4 3l11 15q5 7 8 16q4 8 5 17t1 20 q0 10 -2 19t-6 18q-2 8 -8.5 16t-12.5 14t-13 11.5t-16 9.5l-1 -1l-1 -1q-2 0 -3 -1l-12 -8.5t-9 -7.5t-7 -8t-8 -10l-82 -2l-63 35l82 184h82h76l-50 -119h-81l4 4h4l2 2h4l6 4h6l8 5h82h8h9h12q18 2 34.5 0t30.5 -9q16 -6 28.5 -14t23.5 -20q10 -10 18 -23.5t14 -28.5 q4 -16 7.5 -32.5t3.5 -34.5t-4 -35.5t-11 -34.5q-6 -16 -15 -31.5t-22 -29.5q-12 -14 -26 -24.5t-31 -18.5q-14 -6 -32.5 -10.5t-36.5 -4.5l-82 -2q-18 2 -35 5t-33 8l-29 12q-14 6 -24 16q-12 8 -21.5 20.5t-17.5 26.5t-13.5 30t-9.5 32z" />
<glyph unicode="&#xe8;" horiz-adv-x="1413" d="M86 555q0 59 10 115.5t31 107.5q23 53 54.5 100.5t74.5 90.5q41 43 88 75.5t98 53.5q53 23 109.5 33t118.5 10h82q33 0 64.5 -4t64.5 -11q31 -8 61.5 -18t58.5 -25q29 -14 56.5 -31.5t52.5 -37.5t48.5 -43t43.5 -47l34.5 -49.5t29.5 -49.5l12 -24q6 -12 10 -25 q4 -14 9.5 -26.5t7.5 -24.5q6 -27 11 -53.5t7 -55.5q2 -16 4 -35l4 -38q0 -8 1 -17.5t1 -19.5h-1014q2 -43 11.5 -81t25.5 -73q16 -33 41 -64.5t58 -60.5t66.5 -50t70.5 -36q29 -10 56.5 -16t56.5 -8q23 2 42 5t39 9q29 10 58.5 22.5t56.5 28.5q29 16 51.5 36t42.5 40 q20 23 37 48.5t29 53.5l158 5h81q-14 -45 -34.5 -84t-46.5 -74q-27 -35 -60 -65.5t-72 -59.5q-39 -27 -78.5 -48.5t-80.5 -33.5q-41 -10 -84 -17.5t-88 -7.5l-82 -2q-61 2 -117.5 12.5t-110.5 28.5q-51 20 -99 51t-91 74q-43 41 -74.5 89t-54.5 100q-20 53 -30.5 109.5 t-10.5 117.5zM319 643h781q-8 35 -21.5 68.5t-31.5 64.5t-43 59.5t-56 55.5t-63.5 46t-67.5 32q-25 10 -50.5 16t-53.5 8q-29 -2 -56.5 -8t-54.5 -16q-35 -12 -67.5 -30.5t-63.5 -43.5q-31 -27 -56.5 -55.5t-43.5 -59.5t-32 -65.5t-20 -71.5zM430 1473l66 122h82l405 -221 l-68 -119h-81z" />
<glyph unicode="&#xe9;" horiz-adv-x="1413" d="M86 555q0 59 10 115.5t31 107.5q23 53 54.5 100.5t74.5 90.5q41 43 88 75.5t98 53.5q53 23 109.5 33t118.5 10h82q33 0 64.5 -4t64.5 -11q31 -8 61.5 -18t58.5 -25q29 -14 56.5 -31.5t52.5 -37.5t48.5 -43t43.5 -47l34.5 -49.5t29.5 -49.5l12 -24q6 -12 10 -25 q4 -14 9.5 -26.5t7.5 -24.5q6 -27 11 -53.5t7 -55.5q2 -16 4 -35l4 -38q0 -8 1 -17.5t1 -19.5h-1014q2 -43 11.5 -81t25.5 -73q16 -33 41 -64.5t58 -60.5t66.5 -50t70.5 -36q29 -10 56.5 -16t56.5 -8q23 2 42 5t39 9q29 10 58.5 22.5t56.5 28.5q29 16 51.5 36t42.5 40 q20 23 37 48.5t29 53.5l158 5h81q-14 -45 -34.5 -84t-46.5 -74q-27 -35 -60 -65.5t-72 -59.5q-39 -27 -78.5 -48.5t-80.5 -33.5q-41 -10 -84 -17.5t-88 -7.5l-82 -2q-61 2 -117.5 12.5t-110.5 28.5q-51 20 -99 51t-91 74q-43 41 -74.5 89t-54.5 100q-20 53 -30.5 109.5 t-10.5 117.5zM319 643h781q-8 35 -21.5 68.5t-31.5 64.5t-43 59.5t-56 55.5t-63.5 46t-67.5 32q-25 10 -50.5 16t-53.5 8q-29 -2 -56.5 -8t-54.5 -16q-35 -12 -67.5 -30.5t-63.5 -43.5q-31 -27 -56.5 -55.5t-43.5 -59.5t-32 -65.5t-20 -71.5zM434 1370l393 238h82l72 -119 l-395 -234h-82z" />
<glyph unicode="&#xea;" horiz-adv-x="1413" d="M86 555q0 59 10 115.5t31 107.5q23 53 54.5 100.5t74.5 90.5q41 43 88 75.5t98 53.5q53 23 109.5 33t118.5 10h82q33 0 64.5 -4t64.5 -11q31 -8 61.5 -18t58.5 -25q29 -14 56.5 -31.5t52.5 -37.5t48.5 -43t43.5 -47l34.5 -49.5t29.5 -49.5l12 -24q6 -12 10 -25 q4 -14 9.5 -26.5t7.5 -24.5q6 -27 11 -53.5t7 -55.5q2 -16 4 -35l4 -38q0 -8 1 -17.5t1 -19.5h-1014q2 -43 11.5 -81t25.5 -73q16 -33 41 -64.5t58 -60.5t66.5 -50t70.5 -36q29 -10 56.5 -16t56.5 -8q23 2 42 5t39 9q29 10 58.5 22.5t56.5 28.5q29 16 51.5 36t42.5 40 q20 23 37 48.5t29 53.5l158 5h81q-14 -45 -34.5 -84t-46.5 -74q-27 -35 -60 -65.5t-72 -59.5q-39 -27 -78.5 -48.5t-80.5 -33.5q-41 -10 -84 -17.5t-88 -7.5l-82 -2q-61 2 -117.5 12.5t-110.5 28.5q-51 20 -99 51t-91 74q-43 41 -74.5 89t-54.5 100q-20 53 -30.5 109.5 t-10.5 117.5zM303 1255l297 258h82h131l297 -258h-82h-184l-137 115l-138 -115h-82h-184zM319 643h781q-8 35 -21.5 68.5t-31.5 64.5t-43 59.5t-56 55.5t-63.5 46t-67.5 32q-25 10 -50.5 16t-53.5 8q-29 -2 -56.5 -8t-54.5 -16q-35 -12 -67.5 -30.5t-63.5 -43.5 q-31 -27 -56.5 -55.5t-43.5 -59.5t-32 -65.5t-20 -71.5z" />
<glyph unicode="&#xeb;" horiz-adv-x="1413" d="M86 555q0 59 10 115.5t31 107.5q23 53 54.5 100.5t74.5 90.5q41 43 88 75.5t98 53.5q53 23 109.5 33t118.5 10h82q33 0 64.5 -4t64.5 -11q31 -8 61.5 -18t58.5 -25q29 -14 56.5 -31.5t52.5 -37.5t48.5 -43t43.5 -47l34.5 -49.5t29.5 -49.5l12 -24q6 -12 10 -25 q4 -14 9.5 -26.5t7.5 -24.5q6 -27 11 -53.5t7 -55.5q2 -16 4 -35l4 -38q0 -8 1 -17.5t1 -19.5h-1014q2 -43 11.5 -81t25.5 -73q16 -33 41 -64.5t58 -60.5t66.5 -50t70.5 -36q29 -10 56.5 -16t56.5 -8q23 2 42 5t39 9q29 10 58.5 22.5t56.5 28.5q29 16 51.5 36t42.5 40 q20 23 37 48.5t29 53.5l158 5h81q-14 -45 -34.5 -84t-46.5 -74q-27 -35 -60 -65.5t-72 -59.5q-39 -27 -78.5 -48.5t-80.5 -33.5q-41 -10 -84 -17.5t-88 -7.5l-82 -2q-61 2 -117.5 12.5t-110.5 28.5q-51 20 -99 51t-91 74q-43 41 -74.5 89t-54.5 100q-20 53 -30.5 109.5 t-10.5 117.5zM319 643h781q-8 35 -21.5 68.5t-31.5 64.5t-43 59.5t-56 55.5t-63.5 46t-67.5 32q-25 10 -50.5 16t-53.5 8q-29 -2 -56.5 -8t-54.5 -16q-35 -12 -67.5 -30.5t-63.5 -43.5q-31 -27 -56.5 -55.5t-43.5 -59.5t-32 -65.5t-20 -71.5zM440 1255v258h82h152v-258h-82 h-152zM741 1255v258h82h152v-258h-82h-152z" />
<glyph unicode="&#xec;" horiz-adv-x="491" d="M-31 1473l66 122h82l405 -221l-67 -119h-82zM129 0v1120h82h151v-1120h-81h-152z" />
<glyph unicode="&#xed;" horiz-adv-x="491" d="M-27 1370l394 238h82l71 -119l-395 -234h-82zM129 0v1120h82h151v-1120h-81h-152z" />
<glyph unicode="&#xee;" horiz-adv-x="491" d="M-158 1255l297 258h82h131l297 -258h-82h-184l-137 115l-137 -115h-82h-185zM129 0v1120h82h151v-1120h-81h-152z" />
<glyph unicode="&#xef;" horiz-adv-x="491" d="M-20 1255v258h81h152v-258h-82h-151zM129 0v1120h82h151v-1120h-81h-152zM281 1255v258h81h152v-258h-82h-151z" />
<glyph unicode="&#xf0;" horiz-adv-x="1423" d="M86 549q0 63 11.5 121.5t31.5 109.5q23 53 54.5 100.5t74.5 90.5q43 41 91 73.5t100 53.5q53 23 108 33t117 10h82h7h7q2 -2 6 -2h8h9h8q2 -2 6 -2h8q8 -2 15.5 -3t15.5 -1q8 -2 16 -3.5t17 -3.5q14 -2 27.5 -7t25.5 -9l1 -1q1 -1 3 -1t3 -1l1 -1l-17 21l-20 24 q-18 18 -41 39l-51 45l-52 41l-59 45l-165 -55h-82l-127 53l235 82q-2 0 -6 1t-6 3q-4 2 -7 3t-7 3q-6 4 -12.5 7t-12.5 5q-8 2 -15.5 5.5t-13.5 5.5q-8 4 -15 7t-13 5l-15.5 4t-13.5 6q-8 2 -15.5 5t-15.5 5q-8 4 -16 7.5t-15 5.5q-8 4 -16 7t-16 5h-6l-7 4h-8l-6 4h-6 l-6 4h-8l-7 4l5 9h81l252 -3l7 -6l8 -2l6 -4h6l12 -4h13q4 -2 9 -3t9 -3t8 -3t8 -3l9 -4l8 -2l6 -4l8 -5l6 -4l242 88h82l115 -57l-293 -102q45 -27 88 -61t82 -74q41 -39 77.5 -87.5t69.5 -101.5q35 -53 59.5 -111.5t43.5 -123.5q16 -63 25 -132t9 -141q0 -63 -10 -121.5 t-33 -111.5q-20 -53 -53 -101.5t-74 -89.5q-43 -43 -89 -73.5t-99 -51.5q-51 -18 -107.5 -28.5t-115.5 -10.5l-82 -2q-59 2 -114.5 12.5t-108.5 28.5q-51 20 -99.5 51t-91.5 74q-45 41 -76.5 88t-54.5 99q-20 51 -31.5 106.5t-11.5 116.5zM319 549q0 -45 8.5 -87t22.5 -81 q16 -39 40 -74t56 -65q33 -33 68 -56.5t74 -40.5q29 -12 61.5 -18t65.5 -10q35 4 67.5 10t61.5 20q39 16 73.5 42t65.5 59q29 33 52.5 68.5t37.5 74.5q16 41 23.5 84t7.5 88q0 43 -8.5 84t-24.5 80q-14 37 -37.5 72t-54.5 67q-33 33 -67.5 57.5t-71.5 39.5q-33 12 -66 20 t-69 10q-33 -4 -63 -12t-58 -20q-39 -16 -74 -41t-66 -58q-33 -33 -55 -68.5t-39 -76.5q-14 -39 -22.5 -81t-8.5 -87z" />
<glyph unicode="&#xf1;" horiz-adv-x="1331" d="M129 0v1120h82h143v-78q16 14 34 26.5t36 23.5q23 12 45.5 21t46.5 15q25 6 51.5 9.5t53.5 3.5h81q29 0 56.5 -3t54.5 -10q29 -6 54.5 -15t52.5 -21t51 -27.5t45 -32.5q23 -16 43 -35.5t41 -42.5q8 -10 15 -20t13 -21q6 -12 13 -22l12 -21q6 -10 10 -21l8 -22l7.5 -23 t5.5 -22l8 -46q4 -24 6 -48q2 -25 3 -50.5t1 -51.5v-586h-82h-151v590v7v7q-2 4 -2 8v9v19v17q-2 8 -3 16.5t-1 16.5q0 4 -1 8t-1 11q-2 4 -3.5 8t-1.5 8q-2 16 -7 33.5t-11 32.5q-6 16 -15.5 31.5t-19.5 29.5l-29 32q-14 15 -30 29q-14 12 -31.5 24.5t-36.5 20.5 q-20 10 -39.5 16.5t-40.5 10.5q-6 2 -11 3t-11 1q-6 2 -11.5 3t-11.5 1q-14 -2 -26.5 -5t-24.5 -7l-36 -12q-17 -6 -34 -17q-16 -8 -31.5 -19t-27.5 -24q-14 -12 -26.5 -24.5t-22.5 -26.5l-8 -12l-8 -12l-8 -15q-3 -6 -7 -12q-6 -14 -10 -27.5t-6 -27.5t-5 -27.5t-3 -30.5 q-2 -14 -2 -28v-29l-3 -8v-8v-9v-8v-6v-4v-4v-4v-586h-81h-152zM330 1378l19 16l20 15l20 15.5t21 13.5l22 9q12 5 25 7q12 4 25.5 5t27.5 1h82h9q5 0 11 -2q4 0 9.5 -1t9.5 -1q10 -2 17 -3t16 -5l8 -4q4 -2 8 -2q2 -2 6 -4l8 -4q4 -2 7.5 -4.5t7.5 -2.5q2 -2 6 -4l8 -4 l8 -6l12 -6l5 -4h6l4 -4l6 -2l8 -4l10 -4l6 -5l5 2q4 2 8 3.5t8 3.5l12 8l13 8l12 8q4 4 8 7l8 6v4h82l62 -99q-6 -8 -13.5 -15t-15.5 -13l-15 -12q-7 -5 -16 -9q-8 -6 -17 -10t-20 -8q-8 -4 -16 -7.5t-16 -5.5l-13 -4h-82h-8h-10h-8h-15q-6 0 -12 2q-6 0 -12 1t-12 3l-13 5 l-12 4q-6 2 -12 5t-13 5h-6l-4 4l-6 2l-6 4l-12 6l-13 6l-8 5l-8 4l-8 4l-9 4l-8 2l-8 4l-10 2l-6 2q-8 -2 -15 -6l-12 -8q-8 -4 -14 -9.5t-10 -9.5q-6 -4 -12 -9l-9 -9h-82z" />
<glyph unicode="&#xf2;" horiz-adv-x="1423" d="M86 549q0 59 10 116.5t31 108.5q23 53 54.5 100.5t74.5 92.5q43 43 91 75.5t99 53.5q53 23 109.5 34t118.5 11v4h82q59 -2 112.5 -13.5t104.5 -33.5q51 -20 98 -53t92 -76q43 -43 76 -90.5t53 -98.5q23 -51 34 -104t11 -113q0 -59 -10 -114.5t-33 -108.5 q-20 -51 -53 -100.5t-74 -92.5q-43 -45 -89 -76.5t-99 -54.5q-51 -20 -107.5 -30.5t-115.5 -10.5l-82 -2q-59 2 -114.5 12.5t-108.5 28.5q-51 20 -99.5 51t-91.5 74q-45 41 -76.5 88t-54.5 99q-20 51 -31.5 106.5t-11.5 116.5zM319 549q0 -45 8.5 -87t22.5 -81 q16 -39 40 -74t56 -65q33 -33 68 -56.5t74 -40.5q29 -12 61.5 -18t65.5 -10q35 4 67.5 10t61.5 20q39 16 73.5 42t65.5 59q29 33 52.5 68.5t37.5 74.5q16 41 23.5 84t7.5 88q0 23 -2 45.5t-6 42.5t-10.5 40t-14.5 40q-8 18 -17.5 36.5t-21.5 37.5q-12 16 -27.5 33.5 t-31.5 33.5q-14 14 -32 27l-34 25q-16 10 -34.5 20l-36.5 19q-20 8 -40 14t-40 10q-4 0 -9.5 1t-9.5 1q-2 0 -4 1t-4 1q-6 0 -13 1t-14 1q-33 -4 -61.5 -12t-56.5 -20q-39 -16 -74 -41t-66 -58q-33 -33 -55 -68.5t-39 -76.5q-14 -39 -22.5 -81t-8.5 -87zM436 1473l66 122h82 l405 -221l-67 -119h-82z" />
<glyph unicode="&#xf3;" horiz-adv-x="1423" d="M86 549q0 59 10 116.5t31 108.5q23 53 54.5 100.5t74.5 92.5q43 43 91 75.5t99 53.5q53 23 109.5 34t118.5 11v4h82q59 -2 112.5 -13.5t104.5 -33.5q51 -20 98 -53t92 -76q43 -43 76 -90.5t53 -98.5q23 -51 34 -104t11 -113q0 -59 -10 -114.5t-33 -108.5 q-20 -51 -53 -100.5t-74 -92.5q-43 -45 -89 -76.5t-99 -54.5q-51 -20 -107.5 -30.5t-115.5 -10.5l-82 -2q-59 2 -114.5 12.5t-108.5 28.5q-51 20 -99.5 51t-91.5 74q-45 41 -76.5 88t-54.5 99q-20 51 -31.5 106.5t-11.5 116.5zM319 549q0 -45 8.5 -87t22.5 -81 q16 -39 40 -74t56 -65q33 -33 68 -56.5t74 -40.5q29 -12 61.5 -18t65.5 -10q35 4 67.5 10t61.5 20q39 16 73.5 42t65.5 59q29 33 52.5 68.5t37.5 74.5q16 41 23.5 84t7.5 88q0 23 -2 45.5t-6 42.5t-10.5 40t-14.5 40q-8 18 -17.5 36.5t-21.5 37.5q-12 16 -27.5 33.5 t-31.5 33.5q-14 14 -32 27l-34 25q-16 10 -34.5 20l-36.5 19q-20 8 -40 14t-40 10q-4 0 -9.5 1t-9.5 1q-2 0 -4 1t-4 1q-6 0 -13 1t-14 1q-33 -4 -61.5 -12t-56.5 -20q-39 -16 -74 -41t-66 -58q-33 -33 -55 -68.5t-39 -76.5q-14 -39 -22.5 -81t-8.5 -87zM438 1370l393 238 h82l72 -119l-395 -234h-82z" />
<glyph unicode="&#xf4;" horiz-adv-x="1423" d="M86 549q0 59 10 116.5t31 108.5q23 53 54.5 100.5t74.5 92.5q43 43 91 75.5t99 53.5q53 23 109.5 34t118.5 11v4h82q59 -2 112.5 -13.5t104.5 -33.5q51 -20 98 -53t92 -76q43 -43 76 -90.5t53 -98.5q23 -51 34 -104t11 -113q0 -59 -10 -114.5t-33 -108.5 q-20 -51 -53 -100.5t-74 -92.5q-43 -45 -89 -76.5t-99 -54.5q-51 -20 -107.5 -30.5t-115.5 -10.5l-82 -2q-59 2 -114.5 12.5t-108.5 28.5q-51 20 -99.5 51t-91.5 74q-45 41 -76.5 88t-54.5 99q-20 51 -31.5 106.5t-11.5 116.5zM309 1255l297 258h82h131l297 -258h-82h-184 l-137 115l-138 -115h-81h-185zM319 549q0 -45 8.5 -87t22.5 -81q16 -39 40 -74t56 -65q33 -33 68 -56.5t74 -40.5q29 -12 61.5 -18t65.5 -10q35 4 67.5 10t61.5 20q39 16 73.5 42t65.5 59q29 33 52.5 68.5t37.5 74.5q16 41 23.5 84t7.5 88q0 23 -2 45.5t-6 42.5t-10.5 40 t-14.5 40q-8 18 -17.5 36.5t-21.5 37.5q-12 16 -27.5 33.5t-31.5 33.5q-14 14 -32 27l-34 25q-16 10 -34.5 20l-36.5 19q-20 8 -40 14t-40 10q-4 0 -9.5 1t-9.5 1q-2 0 -4 1t-4 1q-6 0 -13 1t-14 1q-33 -4 -61.5 -12t-56.5 -20q-39 -16 -74 -41t-66 -58q-33 -33 -55 -68.5 t-39 -76.5q-14 -39 -22.5 -81t-8.5 -87z" />
<glyph unicode="&#xf5;" horiz-adv-x="1423" d="M86 549q0 59 10 116.5t31 108.5q23 53 54.5 100.5t74.5 92.5q43 43 91 75.5t99 53.5q53 23 109.5 34t118.5 11v4h82q59 -2 112.5 -13.5t104.5 -33.5q51 -20 98 -53t92 -76q43 -43 76 -90.5t53 -98.5q23 -51 34 -104t11 -113q0 -59 -10 -114.5t-33 -108.5 q-20 -51 -53 -100.5t-74 -92.5q-43 -45 -89 -76.5t-99 -54.5q-51 -20 -107.5 -30.5t-115.5 -10.5l-82 -2q-59 2 -114.5 12.5t-108.5 28.5q-51 20 -99.5 51t-91.5 74q-45 41 -76.5 88t-54.5 99q-20 51 -31.5 106.5t-11.5 116.5zM319 549q0 -45 8.5 -87t22.5 -81 q16 -39 40 -74t56 -65q33 -33 68 -56.5t74 -40.5q29 -12 61.5 -18t65.5 -10q35 4 67.5 10t61.5 20q39 16 73.5 42t65.5 59q29 33 52.5 68.5t37.5 74.5q16 41 23.5 84t7.5 88q0 23 -2 45.5t-6 42.5t-10.5 40t-14.5 40q-8 18 -17.5 36.5t-21.5 37.5q-12 16 -27.5 33.5 t-31.5 33.5q-14 14 -32 27l-34 25q-16 10 -34.5 20l-36.5 19q-20 8 -40 14t-40 10q-4 0 -9.5 1t-9.5 1q-2 0 -4 1t-4 1q-6 0 -13 1t-14 1q-33 -4 -61.5 -12t-56.5 -20q-39 -16 -74 -41t-66 -58q-33 -33 -55 -68.5t-39 -76.5q-14 -39 -22.5 -81t-8.5 -87zM375 1378l19 16 l20 15l20 15.5t21 13.5l22 9q12 5 25 7q12 4 25.5 5t27.5 1h82h9q5 0 11 -2q4 0 9.5 -1t9.5 -1q10 -2 17 -3t16 -5l8 -4q4 -2 8 -2q2 -2 6 -4l8 -4q4 -2 7.5 -4.5t7.5 -2.5q2 -2 6 -4l8 -4l8 -6l12 -6l5 -4h6l4 -4l6 -2l8 -4l10 -4l7 -5l4 2q4 2 8 3.5t8 3.5l12 8l13 8l12 8 q4 4 8 7l8 6v4h82l62 -99q-6 -8 -13.5 -15t-15.5 -13l-15 -12q-7 -5 -16 -9q-8 -6 -17 -10t-20 -8q-8 -4 -16 -7.5t-16 -5.5l-13 -4h-82h-8h-10h-8h-15q-6 0 -12 2q-6 0 -12 1t-12 3l-13 5l-12 4q-6 2 -12 5t-13 5h-6l-4 4l-6 2l-6 4l-12 6l-13 6l-8 5l-8 4l-8 4l-8 4l-9 2 l-8 4l-10 2l-6 2q-8 -2 -15 -6l-12 -8q-8 -4 -14 -9.5t-10 -9.5q-6 -4 -12 -9l-9 -9h-82z" />
<glyph unicode="&#xf6;" horiz-adv-x="1423" d="M86 549q0 59 10 116.5t31 108.5q23 53 54.5 100.5t74.5 92.5q43 43 91 75.5t99 53.5q53 23 109.5 34t118.5 11v4h82q59 -2 112.5 -13.5t104.5 -33.5q51 -20 98 -53t92 -76q43 -43 76 -90.5t53 -98.5q23 -51 34 -104t11 -113q0 -59 -10 -114.5t-33 -108.5 q-20 -51 -53 -100.5t-74 -92.5q-43 -45 -89 -76.5t-99 -54.5q-51 -20 -107.5 -30.5t-115.5 -10.5l-82 -2q-59 2 -114.5 12.5t-108.5 28.5q-51 20 -99.5 51t-91.5 74q-45 41 -76.5 88t-54.5 99q-20 51 -31.5 106.5t-11.5 116.5zM319 549q0 -45 8.5 -87t22.5 -81 q16 -39 40 -74t56 -65q33 -33 68 -56.5t74 -40.5q29 -12 61.5 -18t65.5 -10q35 4 67.5 10t61.5 20q39 16 73.5 42t65.5 59q29 33 52.5 68.5t37.5 74.5q16 41 23.5 84t7.5 88q0 23 -2 45.5t-6 42.5t-10.5 40t-14.5 40q-8 18 -17.5 36.5t-21.5 37.5q-12 16 -27.5 33.5 t-31.5 33.5q-14 14 -32 27l-34 25q-16 10 -34.5 20l-36.5 19q-20 8 -40 14t-40 10q-4 0 -9.5 1t-9.5 1q-2 0 -4 1t-4 1q-6 0 -13 1t-14 1q-33 -4 -61.5 -12t-56.5 -20q-39 -16 -74 -41t-66 -58q-33 -33 -55 -68.5t-39 -76.5q-14 -39 -22.5 -81t-8.5 -87zM444 1255v258h82 h152v-258h-82h-152zM745 1255v258h82h152v-258h-82h-152z" />
<glyph unicode="&#xf7;" />
<glyph unicode="&#xf8;" horiz-adv-x="1419" d="M86 520v8v11v8v8q0 59 11.5 114.5t31.5 106.5q23 51 54.5 98.5t74.5 92.5q43 43 90 75.5t98 53.5q51 23 106.5 34t115.5 11h82h12q6 0 14 -2q6 0 12.5 -1t12.5 -1t12 -1t12 -1q4 -2 10.5 -3.5t12.5 -1.5q6 -2 11 -3t11 -1q4 -2 10.5 -3t12.5 -3l12 -4q6 -2 13 -2 q4 -2 10 -4l12 -4q2 -2 5 -3t5 -1q4 -2 7.5 -3t5.5 -3q4 -2 7 -3t5 -1l7 -3.5t5 -3.5h2l98 132h82l111 -84l-121 -156l19.5 -24.5t19.5 -22.5q8 -12 17.5 -24.5t17.5 -24.5q16 -25 29.5 -49.5t25.5 -51.5q10 -27 18.5 -53.5t14.5 -54.5q6 -29 9 -58.5t3 -58.5 q0 -61 -11 -116.5t-34 -108.5q-20 -51 -53 -98.5t-76 -90.5q-45 -43 -92 -74.5t-98 -52.5q-51 -18 -107.5 -28.5t-116.5 -10.5l-81 -2h-9h-6l-8 2h-8h-8h-7l-8 2h-6q-14 4 -29.5 6.5t-31.5 6.5q-14 2 -28.5 5t-29.5 5q-14 4 -27.5 9t-25.5 11l-86 -112h-82l-106 82l112 145 q-14 10 -28.5 24.5t-26.5 28.5l-25 33q-12 16 -22 37q-10 18 -19.5 37.5t-17.5 40.5q-8 20 -15 40.5t-12 41.5l-4 16l-4 17q-2 10 -3 19t-3 17t-3 16.5t-1 16.5zM319 516q0 -4 1.5 -8t3.5 -8q2 -18 5 -36t7 -34t10 -32.5t14 -32.5q6 -16 16 -32l17 -30l490 637l-13 4 q-6 2 -10 6q-6 2 -12 5l-12 6l-13 4q-6 2 -12 6q-8 2 -14 4l-13 4q-14 4 -27.5 7t-25.5 5h-4q-2 0 -4 2h-4h-4q-33 -2 -62.5 -11t-58.5 -19q-39 -14 -75 -38t-68 -55q-33 -31 -57.5 -65.5t-41.5 -73.5q-16 -39 -24.5 -80t-8.5 -86v-8v-8v-8v-9v-8v-8zM547 170q8 -8 17 -13 l18 -10q10 -4 20 -7t21 -7q10 -2 20 -5t21 -5q10 -2 20 -3t21 -1l10 -4q14 2 29.5 5t29.5 7q20 4 40 12t40 19q20 10 38.5 21t35.5 24q16 12 31 26l30 29l27 32q12 15 22 34q10 18 18.5 36.5t16.5 38.5q6 18 11.5 38t7.5 40q4 20 6 41t2 41q0 23 -2 42.5t-6 39.5 q-2 10 -4.5 19.5t-4.5 19.5q-2 8 -4 18.5t-6 18.5q-6 16 -14 33.5t-19 33.5q-2 2 -3 4.5t-1 4.5q-2 2 -3 4t-3 4z" />
<glyph unicode="&#xf9;" horiz-adv-x="1327" d="M129 470v54v596h82h151v-592v-34q0 -16 3 -33q0 -16 2 -32l4 -32q2 -16 5 -31.5t9 -31.5q4 -14 11 -28.5t16 -29.5q10 -20 24 -36l29 -33l33 -28q16 -13 37 -23q18 -10 39.5 -18.5t41.5 -12.5q6 -2 11.5 -3t11.5 -1q6 -2 11 -3t12 -1q10 2 20 3t18 3l19.5 4t19.5 6 q8 4 18.5 8t18.5 9l34 20q17 10 32 23q16 12 29.5 27.5t25.5 31.5q10 14 19.5 29.5t15.5 31.5l12 33q6 16 8 35q4 16 5 33.5t4 36.5q2 18 3 36.5t1 36.5v596h82h151v-1120h-82h-143v66q-16 -14 -34.5 -26.5t-39.5 -23.5q-25 -10 -50 -16l-52 -12q-27 -6 -55.5 -9.5 t-57.5 -3.5l-82 -2l-44 4q-22 2 -44 7q-20 2 -41.5 7t-42.5 9q-20 6 -39.5 16.5l-40.5 22.5q-20 12 -39.5 28.5t-38.5 34.5l-8 9l-8 8l-8 8l-8 8l-9 8l-8 9l-4 4q-2 2 -2 6l-4 4l-4 4q-14 12 -24.5 28.5t-18.5 34.5t-13.5 39t-9.5 45q-4 23 -7 47.5t-5 51.5q-2 26 -2 54z M387 1473l66 122h82l405 -221l-68 -119h-81z" />
<glyph unicode="&#xfa;" horiz-adv-x="1327" d="M129 470v54v596h82h151v-592v-34q0 -16 3 -33q0 -16 2 -32l4 -32q2 -16 5 -31.5t9 -31.5q4 -14 11 -28.5t16 -29.5q10 -20 24 -36l29 -33l33 -28q16 -13 37 -23q18 -10 39.5 -18.5t41.5 -12.5q6 -2 11.5 -3t11.5 -1q6 -2 11 -3t12 -1q10 2 20 3t18 3l19.5 4t19.5 6 q8 4 18.5 8t18.5 9l34 20q17 10 32 23q16 12 29.5 27.5t25.5 31.5q10 14 19.5 29.5t15.5 31.5l12 33q6 16 8 35q4 16 5 33.5t4 36.5q2 18 3 36.5t1 36.5v596h82h151v-1120h-82h-143v66q-16 -14 -34.5 -26.5t-39.5 -23.5q-25 -10 -50 -16l-52 -12q-27 -6 -55.5 -9.5 t-57.5 -3.5l-82 -2l-44 4q-22 2 -44 7q-20 2 -41.5 7t-42.5 9q-20 6 -39.5 16.5l-40.5 22.5q-20 12 -39.5 28.5t-38.5 34.5l-8 9l-8 8l-8 8l-8 8l-9 8l-8 9l-4 4q-2 2 -2 6l-4 4l-4 4q-14 12 -24.5 28.5t-18.5 34.5t-13.5 39t-9.5 45q-4 23 -7 47.5t-5 51.5q-2 26 -2 54z M391 1370l393 238h82l72 -119l-395 -234h-82z" />
<glyph unicode="&#xfb;" horiz-adv-x="1327" d="M129 470v54v596h82h151v-592v-34q0 -16 3 -33q0 -16 2 -32l4 -32q2 -16 5 -31.5t9 -31.5q4 -14 11 -28.5t16 -29.5q10 -20 24 -36l29 -33l33 -28q16 -13 37 -23q18 -10 39.5 -18.5t41.5 -12.5q6 -2 11.5 -3t11.5 -1q6 -2 11 -3t12 -1q10 2 20 3t18 3l19.5 4t19.5 6 q8 4 18.5 8t18.5 9l34 20q17 10 32 23q16 12 29.5 27.5t25.5 31.5q10 14 19.5 29.5t15.5 31.5l12 33q6 16 8 35q4 16 5 33.5t4 36.5q2 18 3 36.5t1 36.5v596h82h151v-1120h-82h-143v66q-16 -14 -34.5 -26.5t-39.5 -23.5q-25 -10 -50 -16l-52 -12q-27 -6 -55.5 -9.5 t-57.5 -3.5l-82 -2l-44 4q-22 2 -44 7q-20 2 -41.5 7t-42.5 9q-20 6 -39.5 16.5l-40.5 22.5q-20 12 -39.5 28.5t-38.5 34.5l-8 9l-8 8l-8 8l-8 8l-9 8l-8 9l-4 4q-2 2 -2 6l-4 4l-4 4q-14 12 -24.5 28.5t-18.5 34.5t-13.5 39t-9.5 45q-4 23 -7 47.5t-5 51.5q-2 26 -2 54z M260 1255l297 258h82h131l297 -258h-82h-184l-137 115l-138 -115h-82h-184z" />
<glyph unicode="&#xfc;" horiz-adv-x="1327" d="M129 470v54v596h82h151v-592v-34q0 -16 3 -33q0 -16 2 -32l4 -32q2 -16 5 -31.5t9 -31.5q4 -14 11 -28.5t16 -29.5q10 -20 24 -36l29 -33l33 -28q16 -13 37 -23q18 -10 39.5 -18.5t41.5 -12.5q6 -2 11.5 -3t11.5 -1q6 -2 11 -3t12 -1q10 2 20 3t18 3l19.5 4t19.5 6 q8 4 18.5 8t18.5 9l34 20q17 10 32 23q16 12 29.5 27.5t25.5 31.5q10 14 19.5 29.5t15.5 31.5l12 33q6 16 8 35q4 16 5 33.5t4 36.5q2 18 3 36.5t1 36.5v596h82h151v-1120h-82h-143v66q-16 -14 -34.5 -26.5t-39.5 -23.5q-25 -10 -50 -16l-52 -12q-27 -6 -55.5 -9.5 t-57.5 -3.5l-82 -2l-44 4q-22 2 -44 7q-20 2 -41.5 7t-42.5 9q-20 6 -39.5 16.5l-40.5 22.5q-20 12 -39.5 28.5t-38.5 34.5l-8 9l-8 8l-8 8l-8 8l-9 8l-8 9l-4 4q-2 2 -2 6l-4 4l-4 4q-14 12 -24.5 28.5t-18.5 34.5t-13.5 39t-9.5 45q-4 23 -7 47.5t-5 51.5q-2 26 -2 54z M397 1255v258h82h152v-258h-82h-152zM698 1255v258h82h152v-258h-82h-152z" />
<glyph unicode="&#xfd;" />
<glyph unicode="&#xfe;" horiz-adv-x="1478" d="M129 -393v1906h82h151v-489q4 4 9.5 7t9.5 7q4 2 9 6.5t11 6.5l41 20q20 10 41 19q20 10 42 17t44 13q4 0 9.5 1t9.5 3q4 0 9 1t11 3h4q2 0 4 2h6h5q4 0 9 1.5t9 3.5q10 2 19.5 3t17.5 1h9q5 0 9 2h10h9h82q16 0 30.5 -1t30.5 -3l30 -4q15 -2 30 -7q29 -6 58.5 -15 t57.5 -21q14 -6 29 -15l29 -16l26 -18l29 -19q14 -10 28 -22l27 -23l26 -26l28 -27l12 -13q6 -6 12 -14q4 -8 10 -15.5t13 -17.5q12 -18 23 -40.5t22 -47.5q10 -27 17 -53.5t13 -54.5q4 -27 7.5 -56.5t3.5 -60.5q0 -63 -12.5 -119.5t-34.5 -109.5q-23 -51 -57 -98.5 t-79 -88.5t-94 -71.5t-102 -51.5q-53 -16 -110.5 -26.5t-117.5 -10.5l-81 -2h-9h-8l-10 2h-8h-8h-9l-10 2h-8l-54 13q-28 6 -53 12q-27 8 -51 19.5t-49 25.5q-18 10 -33.5 21.5t-32.5 25.5v-487h-81h-152zM352 565q0 -23 2 -44l4 -44l9 -42q4 -22 12 -40q6 -20 14 -38.5 t21 -37.5q12 -18 26.5 -34.5t30.5 -32.5l33 -32q16 -15 35 -27q18 -12 38 -23l39 -20q20 -8 42 -15.5t42 -11.5q8 -2 15.5 -3t15.5 -1q41 -2 79 5t73 21q41 16 76.5 39t68.5 56q33 31 57.5 65.5t40.5 73.5q16 41 24.5 84t8.5 90q0 45 -8 87t-25 81q-14 41 -38.5 75.5 t-57.5 67.5t-67.5 57.5t-75.5 41.5q-31 12 -62.5 20t-66.5 10q-33 -2 -66 -9t-63 -19q-39 -14 -76 -38t-70 -55t-57.5 -65.5t-40.5 -73.5t-24.5 -80t-8.5 -88z" />
<glyph unicode="&#xff;" horiz-adv-x="1179" d="M18 1120h82h162l320 -794l336 794h81h162l-647 -1513h-82h-160l177 428zM324 1255v258h82h151v-258h-82h-151zM625 1255v258h82h151v-258h-82h-151z" />
<glyph unicode="&#x152;" horiz-adv-x="2527" d="M90 752q0 84 14.5 160.5t42.5 146.5q29 70 73 132t102 120q57 55 121.5 97t134.5 69q72 29 148.5 43t158.5 14h82h12h12h6h9l6 -2h6q43 -2 85 -10.5t83 -18.5t83 -25.5t81 -35.5q41 -20 75.5 -43t67.5 -51q10 -8 20.5 -17.5t18.5 -19.5v202h82h799v-137h-648v-547h625 v-137h-625v-555h648v-137h-82h-799v197q-8 -10 -19.5 -19.5t-21.5 -19.5q-33 -29 -71 -53.5t-79 -45.5q-41 -20 -82.5 -36.5t-84.5 -24.5q-43 -10 -86.5 -15.5t-88.5 -7.5l-81 -2h-5h-4h-4h-2q-84 2 -161.5 14.5t-149.5 39.5t-138.5 66.5t-125.5 94.5q-59 53 -104.5 117 t-73.5 133q-31 72 -45.5 150t-14.5 164zM324 748q0 -66 11 -127.5t36 -116.5q23 -57 58.5 -107.5t82.5 -97.5q47 -45 98.5 -81t108.5 -58q47 -20 98 -30.5t105 -12.5q55 2 107 12t101 31q59 23 111.5 58.5t99.5 80.5q47 47 83 98.5t61 108.5q23 57 35 119.5t12 132.5 q0 66 -12.5 127t-34.5 116q-25 55 -60.5 106.5t-83.5 96.5q-47 47 -99 81t-107 56q-49 20 -102.5 32.5t-110.5 15.5q-53 -4 -103.5 -16.5t-97.5 -31.5q-57 -23 -109.5 -56.5t-99.5 -78.5t-83 -97t-58 -110q-25 -57 -36 -119t-11 -132z" />
<glyph unicode="&#x153;" horiz-adv-x="2410" d="M86 561q0 59 11.5 114.5t31.5 106.5q23 51 54.5 98.5t74.5 90.5q43 41 90 73.5t98 53.5q51 23 106.5 33t115.5 10h82q39 0 75.5 -6.5t73.5 -16.5t73 -25.5t70 -37.5q35 -20 66 -45t57 -54l13 -12l12 -12l11 -14.5t11 -12.5q4 6 9.5 12.5t11.5 14.5q4 6 9 12t11 12 q25 27 52.5 50.5t60.5 44.5q33 20 66.5 35.5t66.5 27.5q35 10 70 17.5t71 9.5h82h7h8h4h4h2h4q63 0 120.5 -11.5t108.5 -33.5q53 -20 99.5 -53t87.5 -76q41 -45 71.5 -93.5t51.5 -101.5q20 -51 30.5 -109.5t10.5 -119.5v-41h-998q2 -43 11.5 -81t25.5 -73t42 -65.5t58 -59.5 q33 -27 67 -48t71 -36q27 -10 54.5 -15t53.5 -9q23 2 46.5 6t45.5 12q29 10 54.5 22.5t52.5 28.5t49.5 36t40.5 40q18 23 32.5 47.5t26.5 50.5l154 4h82q-12 -45 -31.5 -84.5t-44.5 -74.5q-27 -35 -58.5 -66t-70.5 -57q-39 -27 -79 -47.5t-81 -32.5l-83 -15.5t-85 -9.5 l-81 -2h-5h-4h-6h-6l-8 2h-6h-6h-7h-8h-6q-35 6 -68.5 13.5l-68.5 15.5q-33 10 -65.5 25.5t-63.5 36.5q-33 20 -59.5 42.5t-49.5 49.5q-6 8 -12 15t-12 15q-4 4 -6 8.5t-7 8.5q-10 -14 -21 -27.5t-24 -25.5q-27 -27 -57.5 -51.5t-65.5 -45.5q-35 -20 -70.5 -36.5 t-72.5 -22.5q-37 -10 -73.5 -15.5t-75.5 -5.5l-82 -2q-61 2 -117.5 12.5t-110.5 28.5q-51 23 -98 54.5t-88 76.5q-43 43 -74.5 91.5t-54.5 99.5q-20 53 -30.5 108.5t-10.5 116.5zM319 563q-2 -45 6.5 -88t22.5 -84q16 -39 39 -74.5t55 -68.5q31 -33 67 -58.5t75 -42.5 q27 -10 54.5 -17t57.5 -11q39 -2 75 6t69 22q37 16 71.5 40t65.5 57t54.5 67.5t37.5 73.5q16 37 23.5 78t7.5 86q0 43 -7.5 85t-23.5 81q-14 39 -37.5 75.5t-54.5 69.5q-31 35 -65.5 59.5t-71.5 41.5q-29 12 -60.5 21t-66.5 11q-33 -2 -65 -10t-60 -20q-39 -14 -74 -39 t-68 -56q-33 -33 -56 -67.5t-40 -71.5q-16 -39 -24.5 -80t-6.5 -86zM1333 639h764q-4 35 -15 68.5t-30 66.5q-18 31 -44 59.5t-56 55.5q-33 27 -65 46t-66 34q-25 10 -50.5 16t-52.5 8q-27 -2 -54.5 -8t-51.5 -16q-35 -12 -68 -31.5t-61 -44.5q-31 -27 -55.5 -55.5 t-43.5 -61.5q-18 -31 -31.5 -65.5t-19.5 -71.5z" />
<glyph unicode="&#x178;" horiz-adv-x="1294" d="M4 1513h82h166l395 -770l395 770h82h166l-526 -1007v-506h-82h-152v506zM381 1649v258h82h151v-258h-82h-151zM682 1649v258h82h151v-258h-81h-152z" />
<glyph unicode="&#x2c6;" horiz-adv-x="980" d="M154 1378l19 16l20 15l20 15.5t20 13.5l23 9q12 5 25 7q12 4 25 5t28 1h82h9q5 0 11 -2q4 0 9.5 -1t9.5 -1q10 -2 17 -3t15 -5l9 -4q4 -2 8 -2q2 -2 6 -4l8 -4q4 -2 7 -4.5t7 -2.5q2 -2 7 -4l8 -4l8 -6l12 -6l4 -4h7l4 -4l6 -2l8 -4l10 -4l6 -5l4 2q4 2 8.5 3.5t8.5 3.5 l12 8l12 8l13 8q4 4 8 7l8 6v4h82l61 -99q-6 -8 -13 -15t-15 -13l-16 -12q-7 -5 -15 -9q-8 -6 -17.5 -10l-19.5 -8q-8 -4 -16 -7.5t-17 -5.5l-12 -4h-82h-8h-10h-8h-15q-6 0 -12 2q-6 0 -12 1t-13 3l-12 5l-12 4q-6 2 -12.5 5t-12.5 5h-6l-4 4l-6 2l-6 4l-13 6l-12 6l-8 5 l-8 4l-8 4l-9 4l-8 2l-8 4l-10 2l-6 2q-8 -2 -15 -6l-12 -8q-8 -4 -14.5 -9.5t-10.5 -9.5q-6 -4 -11 -9l-9 -9h-82z" />
<glyph unicode="&#x2dc;" horiz-adv-x="1110" d="M152 1255l297 258h81h132l296 -258h-81h-185l-137 115l-137 -115h-82h-184z" />
<glyph unicode="&#x2000;" horiz-adv-x="1011" />
<glyph unicode="&#x2001;" horiz-adv-x="2025" />
<glyph unicode="&#x2002;" horiz-adv-x="1011" />
<glyph unicode="&#x2003;" horiz-adv-x="2025" />
<glyph unicode="&#x2004;" horiz-adv-x="673" />
<glyph unicode="&#x2005;" horiz-adv-x="505" />
<glyph unicode="&#x2006;" horiz-adv-x="335" />
<glyph unicode="&#x2007;" horiz-adv-x="335" />
<glyph unicode="&#x2008;" horiz-adv-x="251" />
<glyph unicode="&#x2009;" horiz-adv-x="403" />
<glyph unicode="&#x200a;" horiz-adv-x="110" />
<glyph unicode="&#x2010;" horiz-adv-x="761" d="M63 547v137h82h555v-137h-82h-555z" />
<glyph unicode="&#x2011;" horiz-adv-x="761" d="M63 547v137h82h555v-137h-82h-555z" />
<glyph unicode="&#x2012;" horiz-adv-x="761" d="M63 547v137h82h555v-137h-82h-555z" />
<glyph unicode="&#x2013;" horiz-adv-x="1105" d="M0 547v137h82h1024v-137h-82h-1024z" />
<glyph unicode="&#x2014;" horiz-adv-x="2129" d="M0 547v137h82h2048v-137h-82h-2048z" />
<glyph unicode="&#x2018;" horiz-adv-x="800" d="M201 1513h82h151l180 -395h-82h-151z" />
<glyph unicode="&#x2019;" horiz-adv-x="800" d="M186 1118l181 395h82h151l-180 -395h-82h-152z" />
<glyph unicode="&#x201a;" />
<glyph unicode="&#x201c;" horiz-adv-x="1110" d="M197 1513h82h151l180 -395h-82h-151zM500 1513h82h151l180 -395h-82h-151z" />
<glyph unicode="&#x201d;" horiz-adv-x="1073" d="M178 1118l172 395h82h152l-181 -395h-81h-144zM473 1118l180 395h82h152l-180 -395h-82h-152z" />
<glyph unicode="&#x201e;" horiz-adv-x="1110" d="M182 -137l180 395h82h152l-180 -395h-82h-152zM485 -137l181 395h82h149l-178 -395h-82h-152z" />
<glyph unicode="&#x2022;" horiz-adv-x="1323" d="M242 610q0 39 6 76t20 70q14 35 36 65.5t48 57.5q29 29 58.5 49t62.5 35q35 14 71 21t74 7h82q39 0 76 -7t70 -21q35 -14 65.5 -35t57.5 -49q29 -27 49 -57.5t35 -65.5q14 -33 21 -69t7 -75t-7 -75.5t-21 -71.5q-14 -33 -35 -62.5t-49 -58.5q-27 -27 -57.5 -48.5 t-65.5 -35.5q-33 -14 -70 -20.5t-76 -6.5h-82q-39 0 -74.5 6.5t-70.5 20.5q-33 14 -62.5 35.5t-58.5 48.5q-27 29 -48 58.5t-36 62.5q-14 35 -20 70.5t-6 74.5z" />
<glyph unicode="&#x2026;" horiz-adv-x="2129" d="M266 0v258h82h152v-258h-82h-152zM948 0v258h82h152v-258h-82h-152zM1630 0v258h82h152v-258h-82h-152z" />
<glyph unicode="&#x202f;" horiz-adv-x="403" />
<glyph unicode="&#x2039;" horiz-adv-x="595" d="M82 616l231 408h82l119 -63l-192 -345l192 -344l-119 -65h-82z" />
<glyph unicode="&#x203a;" horiz-adv-x="595" d="M82 272l192 344l-192 345l119 63h82l231 -408l-231 -409h-82z" />
<glyph unicode="&#x205f;" horiz-adv-x="505" />
<glyph unicode="&#x2122;" horiz-adv-x="2129" d="M129 1391v122h82h698v-122h-272v-740h-82h-152v740h-274zM979 651v862h82h221l207 -509l215 509h82h217v-862h-82h-135v537l-217 -537h-82h-80l-209 531v-531h-82h-137z" />
<glyph unicode="&#xfb01;" horiz-adv-x="1216" d="M854 0v1120h82h151v-1120h-81h-152zM854 1255v258h82h151v-258h-81h-152zM33 983v137h174v2v6v2v5v4q0 45 6 85t20 72q14 35 36 62.5t48 52.5q29 23 60 41t67 31q37 12 77 18t85 8l29 4h82v-137h-29q-29 -2 -55.5 -7t-48.5 -11q-23 -8 -42.5 -18.5t-35.5 -24.5 t-28.5 -32.5t-20.5 -41.5q-8 -20 -12.5 -47t-4.5 -55v-19h279v-137h-279v-983h-82h-151v983h-174z" />
<glyph unicode="&#xfb02;" horiz-adv-x="1216" d="M854 0v1513h82h151v-1513h-81h-152zM33 983v137h174v2v6v2v5v4q0 45 6 85t20 72q14 35 36 62.5t48 52.5q29 23 60 41t67 31q37 12 77 18t85 8l29 4h82v-137h-29q-29 -2 -55.5 -7t-48.5 -11q-23 -8 -42.5 -18.5t-35.5 -24.5t-28.5 -32.5t-20.5 -41.5q-8 -20 -12.5 -47 t-4.5 -55v-19h279v-137h-279v-983h-82h-151v983h-174z" />
<glyph unicode="&#xfb03;" horiz-adv-x="1941" d="M1579 0v1120h82h151v-1120h-81h-152zM1579 1255v258h82h151v-258h-81h-152zM758 983v137h174v2v6v2v5v4q0 45 6 85t20 72q14 35 36 62.5t48 52.5q29 23 60 41t67 31q37 12 77 18t85 8l29 4h82v-137h-29q-29 -2 -55.5 -7t-48.5 -11q-23 -8 -42.5 -18.5t-35.5 -24.5 t-28.5 -32.5t-20.5 -41.5q-8 -20 -12.5 -47t-4.5 -55v-19h279v-137h-279v-983h-82h-151v983h-174zM33 983v137h174v2v6v2v5v4q0 45 6 85t20 72q14 35 36 62.5t48 52.5q29 23 60 41t67 31q37 12 77 18t85 8l29 4h82v-137h-29q-29 -2 -55.5 -7t-48.5 -11q-23 -8 -42.5 -18.5 t-35.5 -24.5t-28.5 -32.5t-20.5 -41.5q-8 -20 -12.5 -47t-4.5 -55v-19h279v-137h-279v-983h-82h-151v983h-174z" />
<glyph unicode="&#xfb04;" horiz-adv-x="1941" d="M1579 0v1513h82h151v-1513h-81h-152zM758 983v137h174v2v6v2v5v4q0 45 6 85t20 72q14 35 36 62.5t48 52.5q29 23 60 41t67 31q37 12 77 18t85 8l29 4h82v-137h-29q-29 -2 -55.5 -7t-48.5 -11q-23 -8 -42.5 -18.5t-35.5 -24.5t-28.5 -32.5t-20.5 -41.5q-8 -20 -12.5 -47 t-4.5 -55v-19h279v-137h-279v-983h-82h-151v983h-174zM33 983v137h174v2v6v2v5v4q0 45 6 85t20 72q14 35 36 62.5t48 52.5q29 23 60 41t67 31q37 12 77 18t85 8l29 4h82v-137h-29q-29 -2 -55.5 -7t-48.5 -11q-23 -8 -42.5 -18.5t-35.5 -24.5t-28.5 -32.5t-20.5 -41.5 q-8 -20 -12.5 -47t-4.5 -55v-19h279v-137h-279v-983h-82h-151v983h-174z" />
</font>
</defs>
</svg>
